<?xml version="1.0" standalone="no"?>
<!DOCTYPE svg PUBLIC "-//W3C//DTD SVG 1.1//EN" "http://www.w3.org/Graphics/SVG/1.1/DTD/svg11.dtd" >
<svg xmlns="http://www.w3.org/2000/svg">
<metadata></metadata>
<defs>
<font id="hollywood_capital_hillsRg" horiz-adv-x="1139" >
<font-face units-per-em="2048" ascent="1638" descent="-410" />
<missing-glyph horiz-adv-x="462" />
<glyph horiz-adv-x="0" />
<glyph unicode="&#xd;" horiz-adv-x="406" />
<glyph unicode=" "  horiz-adv-x="462" />
<glyph unicode="&#x09;" horiz-adv-x="462" />
<glyph unicode="&#xa0;" horiz-adv-x="462" />
<glyph unicode="!" horiz-adv-x="636" d="M-429 -483q10 -16 42 -38q46 -32 98 -138h1260q46 242 65 252q32 17 -32 162q-72 27 -191 101q-115 -38 -131 -34q-18 4 -126 -47q-49 63 -73 57q-34 -9 -44 6q-32 48 -111 -41q-75 56 -115 34q-35 -19 -87 -23q-86 -62 -103 -72q-15 -10 -46 -4q-6 1 -30 6q-19 5 -31 7 q-40 6 -70 -7q-39 -17 -113 83q-29 -44 -89 -82q-58 -38 -62 -202q-21 -2 -11 -20zM-2 -330l31 4l8 447l574 26l-9 -449l31 1l9 489l-3 -1l10 362l-4 -1l10 362h-9l10 343l-615 -27l-9 -338h-1l-10 -368h-2l-9 -369h-1zM40 160l9 323l568 25l-9 -322zM51 521l10 322l563 26 l-9 -322zM61 882l10 304l554 26l-8 -304zM186 1475l27 -1065h286l26 1065h-339zM217 21h306l-20 286h-286v-286z" />
<glyph unicode="&#x22;" horiz-adv-x="647" d="M83 1439l12 -508l188 21l-7 488zM361 1457l12 -509l188 21l-7 488h-193z" />
<glyph unicode="#" horiz-adv-x="1069" d="M114 434l94 -2l-6 -271l247 -6l7 271l188 -5l-6 -271l247 -5l7 271l82 -2l6 247l-82 2l4 189l83 -2l6 247l-83 2l3 130l-247 6l-3 -130l-189 5l3 129l-247 6l-4 -130l-94 3l-6 -248l95 -2l-5 -189l-94 3zM462 673l4 189l189 -4l-5 -189z" />
<glyph unicode="$" horiz-adv-x="999" d="M-498 -610q-11 -14 12 -16q1 -17 4 -33h1660q-1 13 -12 17q-26 9 -103 274q-138 11 -177 17q-119 -38 -122 -17q-11 75 -56 100q-36 21 -115 18q-23 -2 -77 -7q-56 -5 -88 -7q-114 -6 -208 10q-183 32 -303 -1q-20 -6 -89 -31q-52 -19 -93 -25q-100 -221 -187 -266 q-36 -19 -46 -33zM41 189l247 -215l98 -3l-1 -75l144 -5l1 75l94 -3l282 209l23 327l-230 257l-153 8l5 208l112 -3v-93l270 1l-19 190l-205 206l-152 1l2 107l-138 5l-3 -110l-147 1l-208 -223l-1 -366l241 -173l96 -2l-5 -223l-71 3l-6 102l-271 11zM118 -484l31 4l19 478 l583 11l-19 -481l31 1l21 523h-3l18 387h-3l19 387h-10l18 368l-625 -10l-18 -363l-19 -395h-2l-18 -394h-2zM172 40l16 346l578 11l-16 -346zM191 427l17 346l574 11l-17 -346zM211 814l15 326l565 11l-16 -326zM326 917l75 61l10 -1l-5 -204h-7l-66 48zM537 301l4 195 l76 -41v-120z" />
<glyph unicode="%" horiz-adv-x="1286" d="M82 1230l4 -346l106 -90l197 -5l105 79l4 357l-108 102l-183 2zM175 203l214 -146l707 1223l-200 153zM235 1173l38 38l50 -4l31 -37l4 -222l-31 -38l-52 -1l-35 38zM775 580l4 -346l105 -90l197 -4l106 78l4 358l-109 102l-182 2zM927 524l39 37l50 -4l30 -37l4 -222 l-31 -38h-51l-36 37z" />
<glyph unicode="&#x26;" horiz-adv-x="1206" d="M-334 -535q16 -7 50 -124h1519q25 31 49 46q36 23 46 39q11 17 -12 20q-9 152 -76 187q-69 37 -104 79q-80 -100 -125 -85q-35 12 -79 6q-15 -2 -36 -7q-28 -7 -33 -8q-36 -7 -54 3q-18 9 -117 69q-85 50 -125 68q-46 21 -130 -37q-67 38 -102 -9q-11 -15 -50 -7 q-27 5 -81 -58q-124 48 -144 43q-18 -5 -149 31q-133 -77 -214 -106q-69 -134 -33 -150zM108 239l228 -224h402l62 78l55 -80l279 8l-175 271l4 242h-159l-207 280l290 245v267l-204 169l-317 -7l-232 -214l13 -208l197 -202l-236 -200v-425zM128 -654l34 4l21 522l635 12 l-22 -525l34 1l24 570h-4l20 421h-4l21 422l-11 1l20 400l-681 -11l-19 -396h-1l-20 -429h-2l-20 -430h-2zM186 -83l19 377l629 11l-18 -376zM208 339l18 376l625 12l-18 -376zM229 760l17 355l615 12l-17 -355zM368 333v227l74 68l227 -325l-22 -35l-201 -7zM420 1118v136 l195 7v-130l-111 -110z" />
<glyph unicode="'" horiz-adv-x="447" d="M77 1371l45 -399l266 53l-55 386z" />
<glyph unicode="(" horiz-adv-x="634" d="M37 167l360 -240l162 247l-213 178l14 885l228 179l-198 233l-353 -254v-1228z" />
<glyph unicode=")" horiz-adv-x="634" d="M27 1376l228 -179l14 -885l-213 -178l162 -247l360 240v1228l-353 254z" />
<glyph unicode="*" horiz-adv-x="649" d="M109 1334l120 -90l-116 -96l71 -65l120 101l120 -101l71 65l-116 96l120 90l-56 74l-93 -75v126h-92v-126l-93 75z" />
<glyph unicode="+" horiz-adv-x="851" d="M79 467l213 5l8 -190l268 16l-8 180l200 5l-8 268l-205 -2l-8 165l-266 -2l7 -166l-201 -2v-277z" />
<glyph unicode="," horiz-adv-x="446" d="M74 295l4 -356l272 5v488h-146z" />
<glyph unicode="-" horiz-adv-x="594" d="M28 679l496 -35l6 271l-484 30z" />
<glyph unicode="." horiz-adv-x="446" d="M37 13l331 -13l13 357h-331z" />
<glyph unicode="/" horiz-adv-x="812" d="M71 -10l292 -86l395 1587l-278 99z" />
<glyph unicode="0" horiz-adv-x="1088" d="M-322 -581q-11 -14 12 -16q2 -35 9 -62h1650q13 39 -7 46q-26 9 -103 274q-138 11 -177 17q-119 -38 -122 -17q-11 75 -56 100q-36 21 -115 18q-23 -2 -77 -7q-56 -5 -88 -7q-114 -6 -208 10q-183 32 -303 -1q-20 -6 -89 -31q-52 -19 -93 -25q-100 -221 -187 -266 q-36 -19 -46 -33zM61 1086l10 -901l243 -234l456 -12l243 205l10 930l-251 265l-422 5zM218 -278l30 -2l13 365l567 -23l-13 -367l31 -1l13 399h-3l13 295h-4l13 295h-9l12 280l-608 24l-12 -279h-1l-13 -295h-1l-13 -295h-1zM263 117l12 263l562 -22l-11 -264zM277 412 l12 263l558 -22l-12 -264zM290 706l11 249l550 -22l-11 -248zM414 939l88 98l116 -12l71 -95l9 -579l-72 -98l-119 -1l-81 97z" />
<glyph unicode="1" horiz-adv-x="755" d="M-745 -529q20 -8 84 -130h1859q29 30 56 45q44 25 57 43q14 18 -15 21q-62 5 -145 43q-85 40 -128 86q-48 51 -104 68q-43 12 -98 6q-18 -3 -44 -8q-34 -7 -41 -8q-44 -8 -66 3q-23 10 -145 74q-105 56 -155 75q-57 22 -160 -41q-82 42 -126 -10q-14 -16 -62 -7 q-34 6 -100 -63q-154 52 -178 46q-22 -5 -175 -82q-164 -83 -264 -114q-95 -30 -50 -47zM67 137l565 -14l26 306l-175 7l36 1029l-408 14v-334l102 -14l-15 -681h-131v-313zM78 -501l27 4l16 524l503 12l-17 -527l27 1l19 572h-4l17 423h-4l17 424h-8l15 402l-539 -11 l-15 -397h-1l-16 -431h-1l-17 -432h-1zM124 72l15 378l498 12l-14 -378zM141 495l15 378l494 12l-14 -378zM158 918l13 357l487 12l-14 -357z" />
<glyph unicode="2" horiz-adv-x="1002" d="M-464 -366q-51 -64 87 -66q55 -174 242 -227h1635q20 32 43 70q79 18 86 23q8 5 7 14q-2 7 -11 27q-28 63 -83 120q-63 67 -111 100q-12 9 -49 9t-49 7q-25 15 -136 -6q-1 5 -5 12q-7 10 -11 18q-5 12 -22 27q-15 14 -17 23q-7 29 -25 26q-17 -3 -61 16q-17 7 -24 9 q-14 2 -18 -8q-4 -8 -35 -23q-38 -16 -39 -18q-3 -1 -10 -8q-8 -8 -13 -11q-16 -12 -30 -4q-20 13 -23 13q-12 0 -45 -21t-37 -20q-2 0 -4 4q-3 5 -7 9q-10 9 -19 3q-2 -1 -16 -16q-7 -7 -16 -9q-14 -3 -19 -6q-3 -1 -6 -5q-45 -2 -81 8q-37 10 -47 30q-11 23 -28 37 q-20 16 -43 16q-26 -1 -70 4q-46 6 -58 12q-11 6 -80 -8q-64 -12 -79 -20q-43 -20 -82 -29q-30 -6 -63 7q-27 10 -44 29q-40 41 -44 45q-32 26 -48 10q-32 -32 -52 -47q-37 -26 -63 -17q-30 11 -44 8q-14 -2 -33 -23q-45 -49 -92 -54q-30 -3 -37 -6q-13 -6 -23 -28 q-8 -18 -22 -31q-21 -18 -26 -25zM73 935l291 4l3 152l55 61l243 7l51 -56l-2 -187l-628 -594l-3 -312h904l-8 323l-484 5l495 450l-3 397l-202 251l-468 -2l-244 -270v-229zM128 -544l34 4l21 522l635 12l-22 -525l34 1l24 570h-4l20 421h-4l21 422l-11 1l20 400l-681 -11 l-19 -396h-1l-20 -429h-2l-20 -430h-2zM186 27l19 377l629 11l-18 -376zM208 449l18 376l625 12l-18 -376zM229 870l17 355l615 12l-17 -355z" />
<glyph unicode="3" horiz-adv-x="865" d="M-561 -563q54 -72 104 -85q9 -3 50 -11h1755q6 14 6 25q-1 18 -22 21q-4 0 -46 18q-50 291 -99 305q-167 46 -377 20q-151 -19 -330 -24q-95 -3 -140 -29h-1q-1 0 -1 -1q-113 20 -377 20q-118 0 -254 12q-240 -250 -267 -248q1 -10 -1 -23zM15 -598l31 2l47 519l558 -28 l-48 -522l30 -2l53 568h-4l42 419l-4 1l42 419l-9 1l39 399l-598 32l-39 -394h-1l-42 -427h-1l-42 -427h-2zM34 -15l457 -12l303 248l-7 390l-87 68l94 49l20 430l-235 172l-511 12l-9 -327l365 -5l54 -62l-13 -50l-61 -56l-316 -6l-6 -312l314 -8l65 -67v-84l-86 -62 l-321 -6zM99 -32l37 375l554 -28l-37 -375zM141 388l38 374l549 -27l-37 -375zM183 807l35 353l541 -27l-35 -353z" />
<glyph unicode="4" horiz-adv-x="945" d="M-276 -593q15 -6 68 -66h1514q26 19 48 33q34 22 44 38q11 17 -12 19q-49 270 -113 304q-67 35 -100 75q-76 -96 -120 -81q-33 11 -75 5q-14 -2 -35 -7q-26 -6 -31 -7q-34 -6 -51 3q-18 9 -113 66q-57 3 -96 20q-44 20 -124 -36q-87 83 -121 37q-11 -14 -48 -7 q-26 6 -78 -55q-119 46 -137 41q-17 -5 -144 29q-126 -73 -204 -101q-107 -295 -72 -310zM48 645l494 -11l-20 -523l323 -12l45 1327l-319 5l-24 -468l-206 7l8 460l-287 6zM77 -504l33 -3l19 525l632 -60l-19 -522l34 -7l19 563h-1l11 430h-1l12 430h-1l11 396l-678 62 l-11 -400h-10l-12 -422h-4l-11 -422h-4zM134 63l10 377l627 -60l-10 -377zM149 484l10 377l622 -59l-10 -376zM170 906l9 355l612 -58l-9 -356z" />
<glyph unicode="5" horiz-adv-x="1107" d="M-149 -625q-9 -15 10 -17q1 -9 1 -17h1373q-1 1 -2 1q-21 10 -85 274q-115 12 -146 17q-99 -37 -102 -17q-9 75 -47 101q-30 21 -95 17q-19 -1 -64 -6q-47 -5 -73 -7q-95 -6 -173 10q-153 32 -252 -1q-17 -6 -74 -31q-43 -19 -77 -25q-84 -221 -156 -267q-29 -19 -38 -32 zM38 -33l550 -38l403 359l14 374l-301 295l-251 24l13 134l554 -36l29 302l-859 65l-98 -754l403 -44l144 -101l-7 -151l-130 -115l-438 15zM65 -527l34 3l56 518l634 -30l-56 -522l33 -2l62 568h-4l49 419l-4 1l48 419l-10 1l46 398l-680 35l-45 -394h-1l-49 -427h-2 l-49 -427h-1zM161 40l44 374l629 -30l-44 -375zM211 459l43 374l625 -30l-44 -374zM260 878l41 353l614 -29l-41 -353z" />
<glyph unicode="6" horiz-adv-x="1080" d="M-322 -624q1 -15 14 -35h1701q84 17 97 21q49 13 96 85q-3 13 -4 23q-26 -2 -291 248q-135 -12 -253 -12q-264 0 -375 -20l-1 1h-1q-48 26 -143 29q-180 5 -333 24q-212 26 -375 -20q-47 -14 -68 -305q-41 -18 -44 -18q-21 -3 -20 -21zM33 1157l18 -787l225 -285l544 -20 l217 270l-17 297l-222 234l-420 27l7 204l485 7l-7 288l-603 2zM128 1304l20 -396h-1l23 -429h-2l23 -430h-2l33 -562l34 4l-31 522l633 12l31 -525l34 1l-33 570h-4l-22 421h-4l-22 422l-10 1l-21 400zM164 1256l613 12l18 -355l-613 -12zM184 856l623 12l20 -376l-624 -12 zM204 435l629 11l19 -376l-628 -12zM360 538l60 70l199 -13l54 -65l11 -115l-61 -72l-191 18l-68 69z" />
<glyph unicode="7" horiz-adv-x="963" d="M-554 -659h1909q67 51 85 58q46 17 -49 47q-101 31 -319 242q-154 77 -176 82q-24 6 -177 -46q-67 69 -101 63q-48 -9 -61 7q-44 52 -126 10q-104 63 -161 41q-49 -19 -154 -75q-123 -64 -145 -74q-23 -11 -67 -3q-6 1 -40 8q-27 5 -45 8q-54 6 -97 -6q-56 -17 -104 -68 q-43 -236 -129 -276q-22 -10 -43 -18zM24 -579l34 4l21 522l635 12l-22 -525l34 1l24 570h-4l20 421h-4l21 422l-11 1l20 400l-681 -11l-19 -396h-1l-20 -429h-2l-20 -430h-2zM58 88l408 -7l443 1008l-7 322l-837 20v-342l435 -13zM82 -8l19 377l629 11l-18 -376zM104 414 l18 376l625 12l-18 -376zM125 835l17 355l615 12l-17 -355z" />
<glyph unicode="8" horiz-adv-x="1074" d="M-138 -501q11 -98 27 -158h1614q-29 157 -71 165q-7 8 -19 19q-14 12 -19 16q-4 5 -20 20t-25 25q-30 31 -32 50q-1 19 -38 38q-41 23 -43 25q3 8 1 18q-5 22 -16 28l-15 -14q-28 31 -31 68q-1 9 2 24q1 8 -6 20q-8 12 -21 20t-17 4q-6 -6 -32 -4q-27 2 -34 -3l-45 -56 q-30 -37 -34 -77q-1 -9 -17 -37q-22 18 -81 -2q-65 -22 -85 -15q-35 14 -58 48q-25 36 -19 78q5 39 -14 59q-5 5 -49 33q-18 12 -43 52q-21 32 -37 32q-37 0 -95 -50q-43 -38 -89 -50q-13 -4 -32 -47q-18 -41 -41 -46q-13 -2 -45 -31q-25 -24 -68 -19q-22 3 -38 14 q-18 12 -21 12q-18 5 -92 -68q-50 -48 -94 -126q-11 -21 -25 -29q-17 -10 -53 -13q-39 -3 -30 -23zM41 1304l20 -358l214 -150l-211 -187l1 -317l266 -228l498 -6l214 260l-23 291l-239 180l189 164l-33 338l-247 181l-443 -12zM170 1305l12 -412l14 -448h-2l14 -447h-2 l22 -587l34 5l-21 543l634 13l21 -547l34 1l-23 594h-4l-13 439h-4l-13 440h-10l-13 418zM205 1255l614 13l11 -370l-614 -13zM217 838l624 13l12 -393l-624 -12zM229 399l629 13l12 -393l-629 -12zM353 1191l257 7l25 -184l-120 -128l-147 121zM386 568l158 122l150 -130 l-12 -203h-280z" />
<glyph unicode="9" horiz-adv-x="1043" d="M-229 -659h1852q21 20 41 51q-3 13 -4 23q-26 -2 -291 248q-135 -12 -253 -12q-264 0 -375 -20l-1 1h-1q-48 26 -143 29q-180 5 -333 24q-212 26 -375 -20q-47 -14 -68 -305q-41 -18 -44 -18t-5 -1zM25 1165l24 -291l222 -225l370 -1l12 -200l-501 -7l27 -283l589 1 l218 225l-37 786l-227 274l-492 -8zM141 1107l17 -361h-1l19 -392h-2l19 -391h-2l28 -513l34 4l-26 475l633 11l27 -478h34l-29 520h-4l-18 385h-4l-18 385h-10l-17 365zM176 1073l614 11l15 -324l-614 -10zM193 708l624 11l16 -343l-624 -11zM210 314l628 11l17 -343 l-629 -11zM322 1096l58 71l186 2l68 -66l7 -105l-58 -71l-193 -7l-54 62z" />
<glyph unicode=":" horiz-adv-x="506" d="M108 771l270 15l-11 269l-259 -8v-276zM117 373l270 16l-11 268l-259 -7v-277z" />
<glyph unicode=";" horiz-adv-x="506" d="M98 451l4 -356l272 5v488h-146zM108 771l270 15l-11 269l-259 -8v-276z" />
<glyph unicode="&#x3c;" horiz-adv-x="738" d="M107 467l499 -271v355l-181 106l184 112v382l-502 -288v-396z" />
<glyph unicode="=" horiz-adv-x="811" d="M108 771l567 15l-23 269l-544 -8v-276zM127 373l567 16l-23 268l-544 -7v-277z" />
<glyph unicode="&#x3e;" horiz-adv-x="739" d="M138 1154l2 -387l179 -113l-175 -108l2 -359l480 277l-2 400z" />
<glyph unicode="?" horiz-adv-x="963" d="M-272 -576q10 -13 46 -32q29 -16 60 -51h1504q37 110 54 116q36 13 -33 125q-81 24 -213 88q-132 -30 -150 -26q-20 4 -144 -36q-54 53 -81 48q-39 -6 -50 6q-35 40 -102 8q-84 49 -130 31q-40 -15 -125 -57q-99 -49 -117 -57t-54 -2q-5 0 -33 6q-21 4 -36 5 q-44 6 -79 -4q-45 -13 -125 71q-35 -35 -104 -66q-67 -29 -76 -156q-23 -2 -12 -17zM67 1137l19 -254h280l-7 194l45 60h165l57 -60l6 -241l-253 -169l-13 -305h283l9 181l248 162l-4 467l-231 232h-375zM184 -485l29 -1l3 514l533 21l-3 -512l28 2l4 548h-1l-1 335h-1v336 h-1v330l-572 -21v-323l-8 1v-341l-3 4v-339h-3zM219 64v305l529 22v-305zM222 406v305l525 22v-305zM230 748v288l516 21v-288zM370 -15h299l-19 280h-280v-280z" />
<glyph unicode="@" horiz-adv-x="1170" d="M80 469l280 -270h672l5 285h-546l-108 116l5 435l108 109l251 12l91 -52v-108l-268 -5l-85 -114l6 -194l91 -68l248 11l236 194l11 393l-273 253l-396 -16l-317 -289zM639 776l3 70l133 3l-2 -77z" />
<glyph unicode="A" horiz-adv-x="1242" d="M-553 -434q2 -3 15 -23q5 -129 10 -202h1722q8 12 14 23q22 40 33 51q37 35 40 66v7q0 31 -24 87q-31 205 -49 221q-43 38 -83 38q-6 0 -11 -1q-21 -2 -51 -42q-30 -38 -44 -38t-53 10q-39 9 -58 9q-18 0 -45 30q-24 27 -37 22q-15 -6 -23 -20q-11 -18 -16 -23 q-15 -13 -51 -33q-40 -23 -54 -23q-2 0 -38 -14q-29 -2 -51 -2q-29 -54 -49 -54q-25 0 -38 79q-45 27 -64 35q-37 15 -54 3q-18 -13 -63 -26q-41 -12 -58 -12q-7 0 -26 14q-17 13 -36 10q-21 -3 -52 11q-25 11 -36 22l-11 13q-10 10 -18 17q-24 21 -43 12q-13 -6 -28 -23 q-15 -16 -34 -24q-21 -8 -37 -3q-25 8 -35 8q-21 0 -30 -8q-3 -2 -10 -10q-8 -9 -15 -15q-18 -16 -32 -17q-8 -1 -34 7q-1 1 -32 16q-13 7 -27 -1q-13 -8 -25 -8l-37 17q-9 9 -7 11q1 1 -12 8q-26 14 -39 23q-7 10 -27 -4q-2 -2 -13 -20q-5 -9 -32 -9q-26 0 -42 7 q-12 5 -17 3q-12 -4 -28 -42q-9 -101 -9 -146q0 -32 4 -37zM51 0l319 10l43 236l368 17l61 -230l349 20l-432 1258l-443 -39zM132 1111l24 -315l-12 -1l26 -333l-5 -1l26 -333h-5l35 -537l41 3l-33 501l752 65l33 -498l40 3l-35 535h-2l-26 333h-1l-26 332h-1l-24 316z M174 1080l728 62l22 -280l-729 -63zM187 763l740 63l23 -297l-740 -64zM208 429l746 65l23 -298l-746 -64zM474 577l62 395l69 11l88 -386z" />
<glyph unicode="B" horiz-adv-x="936" d="M-206 -359q25 -12 132 -292q40 -4 72 -8h1277q72 171 137 215q36 25 46 43q4 6 4 10q0 9 -16 11q-50 5 -117 43q-70 40 -104 86q-39 51 -84 68q-23 8 -51 8q-14 0 -28 -2q-15 -3 -36 -8q-28 -7 -33 -8q-36 -8 -54 3q-18 10 -117 74q-85 56 -126 75q-12 6 -26 6 q-41 0 -104 -47q-29 19 -53 19q-29 0 -48 -29q-11 -16 -50 -7h-5q-28 0 -77 -63q-111 47 -138 47q-3 0 -5 -1q-18 -5 -142 -82q-133 -83 -214 -114q-52 -20 -52 -35q0 -6 12 -12zM61 77h609l219 227l7 378l-117 81l110 63l6 334l-245 223l-563 5zM128 -372l31 -1l22 475 l582 -26l-22 -473l31 -1l23 507h-1l11 317h-1l12 316h-1l11 300l-623 28l-11 -300l-10 1l-11 -317h-4l-12 -316h-3zM186 136l11 283l576 -26l-10 -282zM201 453l11 282l572 -25l-10 -283zM222 769l10 266l563 -25l-10 -266zM328 337l11 283h164l76 -71l-5 -140l-82 -77z M356 1130h160l72 -75v-112l-73 -73l-156 -5z" />
<glyph unicode="C" horiz-adv-x="1126" d="M-417 -659h2259q14 84 27 200q26 11 26 24q0 10 -20 17q-21 7 -43 33q2 -2 -38 52q-25 34 -47 51q-30 23 -66 26q-70 7 -89 24q-10 9 -14 10q-10 4 -34 4q-38 0 -87 21q-57 23 -93 28q-27 4 -58 -8q-17 -7 -58 -29q-3 2 -53 20q-34 12 -39 24q-6 16 -30 28q-8 4 -24 11 q-19 8 -28 12q-11 5 -23 14t-16 11q-19 10 -58 1q-31 -8 -63 -21q-28 -12 -53 -16q-44 -6 -94 -47q-30 4 -75 21q-37 14 -54 11q-24 -2 -61 15q-39 18 -54 18q-20 0 -48 -38q-33 -44 -53 -54q-40 -20 -70 -45q-38 -31 -38 -52q0 -23 -50 -44q-39 -17 -62 -17q-6 0 -10 1 q-7 1 -32 9q-28 9 -45 13q-24 6 -42 6q-26 0 -40 -12q-18 -16 -100 -32q-83 -17 -101 -33q-11 -10 -53 -19q-14 -3 -39 -8q-34 -6 -42 -8q-49 -10 -71 -20q-30 -13 -25 -31q1 -5 1 -14q0 -38 -20 -157zM51 296l257 -271l459 -25l286 241v176l-318 27l-18 -72l-77 -70 l-159 -9l-92 97l27 494l87 117l143 2l55 -78v-102l372 -13l2 239l-212 241l-467 21l-302 -251zM139 -508h38l21 448l702 7l-21 -450h37l24 490l-4 -1l20 362h-4l21 362h-12l20 343l-753 -8l-20 -343h-1l-21 -362h-1l-21 -362h-2zM201 -21l19 323l697 7l-19 -323zM223 341 l19 323l691 7l-18 -323zM244 702l18 305l680 8l-17 -305z" />
<glyph unicode="D" horiz-adv-x="1054" d="M-203 -462q0 -7 5 -12q6 -5 69 -23q51 -105 82 -162h1418q44 59 44 171q0 65 -15 148q80 1 80 36q0 13 -11 30q-4 7 -20 25q-11 13 -18 31q-8 22 -18 28q-6 3 -29 6q-38 5 -74 54q-15 21 -26 23q-11 3 -35 -8q-21 -9 -50 17q-17 15 -42 47q-13 16 -38 -10q-3 -4 -35 -45 q-14 -19 -35 -29q-26 -13 -50 -7q-32 9 -65 29q-13 8 -64 20q-38 10 -54 10q-7 0 -9 -2q-10 -6 -46 -12q-35 -5 -56 -4q-19 0 -35 -16q-13 -14 -22 -37q-8 -20 -38 -30q-28 -10 -63 -8q-3 4 -5 5q-4 3 -15 6q-8 2 -13 9q-12 15 -13 16q-8 6 -15 -3q-3 -4 -6 -9q-1 -4 -3 -4 q-3 -1 -29 20q-27 21 -36 21q-3 0 -19 -13q-10 -8 -24 4q-4 3 -10 11q-6 7 -8 8q-1 2 -31 18q-25 15 -28 23q-3 10 -14 8q-6 -2 -19 -9q-35 -19 -49 -16t-19 -26q-2 -9 -14 -23q-14 -15 -18 -27q-3 -8 -8 -18q-4 -7 -5 -12q-51 12 -80 12q-20 0 -28 -6q-9 -7 -39 -7 q-29 0 -39 -9q-38 -33 -88 -100q-44 -57 -67 -120q-8 -23 -8 -29zM40 1226l65 -1281l617 21l284 235l-52 822l-326 252zM139 1159l8 -311h-1l8 -328l-1 -1l8 -328h-2l16 -441l37 3l-15 406l686 67l15 -408l37 4l-16 443h-4l-9 328h-4l-8 328l-12 -1l-7 311zM175 1128l665 65 l7 -277l-665 -65zM183 816l675 66l8 -293l-676 -66zM190 488l681 66l7 -293l-681 -66zM345 948l187 6l100 -56l31 -560l-84 -88l-185 -7z" />
<glyph unicode="E" horiz-adv-x="929" d="M-420 -423q26 -9 133 -224q84 -7 131 -12h1214q74 136 140 171q36 19 46 32q4 5 4 8q0 7 -16 9q-50 4 -117 33q-69 31 -104 66q-39 39 -84 52q-22 6 -47 6q-15 0 -32 -2q-15 -1 -36 -5q-28 -6 -33 -6q-36 -6 -54 2t-117 57q-85 42 -125 57q-12 5 -27 5q-41 0 -103 -36 q-30 14 -53 14q-29 0 -49 -22q-11 -12 -50 -6h-5q-27 0 -76 -48q-113 36 -140 36h-4q-18 -4 -141 -63q-133 -64 -214 -88q-52 -16 -52 -27q0 -5 11 -9zM49 -406h34l26 448l639 13l-27 -450l35 1l28 489h-4l25 361h-4l24 362h-10l23 342l-685 -14l-23 -343h-1l-24 -361h-2 l-24 -362h-2zM113 81l22 323l633 13l-22 -323zM138 442l22 323l629 14l-22 -323zM142 0l709 24v265l-395 -12l12 255l385 15l-5 266l-381 -17l-1 221l384 13l4 281l-689 -26zM163 804l21 304l618 14l-21 -305z" />
<glyph unicode="F" horiz-adv-x="935" d="M-868 -513q4 -25 48 -55q14 -9 41 -43q17 -21 44 -48h2060q8 62 16 198q15 17 18 20q5 4 5 29q0 38 -12 125q-19 32 -33 35q-6 2 -21 -2q-19 -6 -50 -6q-33 0 -40 8q-13 15 -16 16q-24 12 -32 4q-15 -8 -47 -20q-16 -6 -15 -6q3 -2 -9 -10q-22 -14 -45 -14q-15 0 -30 6 q-17 7 -33 2q-38 -13 -39 -14q-31 -7 -41 -6q-16 1 -38 14q-9 6 -19 13q-8 7 -12 9q-11 6 -37 6q-12 0 -42 -6q-20 -5 -45 2q-23 6 -41 20t-34 20q-23 7 -53 -11q-9 -5 -21 -14q-13 -11 -14 -11q-13 -9 -43 -18q-33 -10 -56 -10h-8q-22 3 -43 -8q-23 -12 -32 -12 q-21 0 -71 10q-54 11 -76 22q-10 5 -24 5q-17 0 -41 -7t-78 -30q-16 -67 -46 -67q-25 0 -60 46q-26 0 -61 2q-44 12 -47 12q-16 0 -65 19q-44 17 -62 28q-6 4 -19 19q-10 12 -29 17q-15 4 -45 -19q-32 -25 -54 -25q-23 0 -70 -8q-48 -8 -65 -8t-53 33q-37 33 -62 35h-11 q-49 0 -104 -32q-21 -13 -59 -185q-29 -48 -29 -74v-6zM24 -437h34l19 557l635 8l-19 -409h34l21 445h-4l18 328h-4l19 329h-10l17 312l-681 -8l-17 -312h-1l-18 -329h-2l-18 -329h-2zM41 20l318 6l8 484l412 2l12 250h-432v268l514 -3l27 285l-850 19zM80 156l17 294l630 7 l-17 -294zM100 485l17 293l624 8l-16 -294zM119 813l15 277l615 8l-15 -277z" />
<glyph unicode="G" horiz-adv-x="1077" d="M-288 -606v-9q0 -25 5 -44h1594q33 25 67 92q-1 13 -1 23q-23 -2 -242 300q-118 -12 -220 -12h-18l8 224l-1 1l8 320h-2l9 321h-1l8 303l-719 71l-8 -304l-11 1l-8 -320h-4l-8 -320h-5l-9 -260q-52 6 -102 6q-105 0 -196 -29q-43 -14 -86 -305q-36 -18 -40 -18 q-18 -3 -18 -41zM51 269l260 -256h355l80 65l-1 -72l271 -6l7 662l-492 6v-227l130 -10l2 -42l-50 -63l-164 2l-57 59l5 562l55 64l183 -1l55 -58l11 -102h323l2 202l-264 257l-433 -7l-274 -286zM190 -223l8 226l670 -66l-7 -193q-186 -2 -272 -20v1h-1q-39 26 -121 29 q-150 5 -277 23zM203 37l8 286l664 -65l-7 -286zM216 357l7 287l659 -65l-7 -286zM234 677l7 270l649 -64l-7 -270z" />
<glyph unicode="H" horiz-adv-x="1087" d="M-605 -304q30 -70 60 -307q20 -27 40 -48h2081q32 60 32 106q0 75 -163 135q-124 45 -288 66q-44 54 -68 102q-15 31 -44 28q-29 -2 -39 21q-24 53 -61 95q-26 30 -43 30q-13 0 -20 -17q-15 -35 -76 -76q-79 -54 -87 -62q-10 -9 -36 -41q-27 -34 -42 -51q-35 -36 -62 -36 q-15 0 -27 11q-24 21 -78 84q-44 52 -64 63q-18 10 -118 10q-107 0 -140 10q-18 5 -49 24q-38 23 -49 27q-15 7 -27 7q-30 0 -41 -44q-42 28 -93 28q-8 0 -16 -1q-49 -4 -82 -28q-90 -66 -400 -136zM63 116l329 -23l34 490l293 -14l-13 -502l322 -14l-5 1270l-300 11 l-4 -458l-293 8l7 483l-309 19zM98 -374l38 -1l27 516l706 -28l-27 -514l38 -1l28 550h-1l14 343h-2l14 344l13 325l-757 30l-14 -325h-11l-14 -343h-5l-14 -343h-4zM169 177l12 307l701 -28l-13 -306zM187 521l13 306l695 -28l-13 -306zM212 863l12 289l684 -27l-12 -289z " />
<glyph unicode="I" horiz-adv-x="522" d="M-512 -456q-1 -4 -1 -8q0 -8 4 -20q12 -35 75 -129q17 -25 34 -46h1508q0 216 43 230q72 23 72 38q0 12 -64 25q-181 36 -208 69q-20 25 -66 25q-44 0 -111 -23q-77 -50 -88 -50h-1q-9 3 -60 11q-55 10 -91 18q-123 29 -183 85q-33 26 -69 26q-19 0 -39 -7 q-69 -47 -154 -59q-19 -12 -43 -12q-40 0 -93 34q-84 54 -138 152q-22 14 -43 14q-34 0 -64 -38q-25 -59 -68 -104q-3 -7 -46 -85q-15 -46 -35 -51q-30 -75 -53 -82q-14 -3 -18 -13zM-100 1118l18 -316l-11 -1l19 -334l-4 -1l18 -334h-4l21 -453l34 2l-19 416l623 28 l19 -464l33 2l-20 500l-2 -1l-18 335h-1l-19 334h-1l-17 317zM-66 1085l604 26l16 -281l-604 -27zM-58 767l614 27l17 -299l-614 -27zM-43 432l619 28l16 -299l-618 -28zM81 1304l33 -1297l355 -7l-46 1311z" />
<glyph unicode="J" horiz-adv-x="1213" d="M-591 -630q-1 -3 -1 -5q0 -10 16 -20l6 -4h948q68 84 107 113q31 23 81 35q48 10 63 23l24 24q18 18 31 28q42 35 83 38q-75 -48 -87 -90q-10 -32 -50 -45q-55 -18 -73 -35q-56 -53 -91 -91h881q4 11 4 26q0 21 -19 42q-13 12 -44 31q-74 45 -90 72q-18 30 -55 111 q-33 73 -51 100q-50 75 -68 145q-11 42 -20 49t-18 -12q-7 -12 -19 -48q-14 -47 -19 -62q-18 -45 -43 -67t-30 -34q-9 -25 -21 -37q-8 -8 -30 -22q1 2 -17 -9q-13 -8 -24 -14q-92 32 -103 39q-11 6 -52 38q-38 30 -50 34q-35 11 -114 50q-7 3 -38 39q-21 23 -39 6 q-45 -45 -76 -45t-153 -87q-35 -25 -61 -26q-19 0 -49 12q-11 5 -42 31q-23 20 -48 20t-44 -29q-2 -3 -15 -26q-9 -16 -17 -25q-2 -3 -22 -27q-16 -18 -26 -29q-31 -33 -45 -23q-25 17 -67 20q-7 1 -14 1q-45 0 -72 -29q-16 -17 -26 -16q-9 4 -17 17q-14 28 -11 25 q-9 13 -18 10q-30 -7 -75 -59q-22 -25 -32 -47q-10 -25 1 -39q9 -15 -1 -29q-6 -8 -27 -25q-19 -14 -21 -23zM11 402l1 -328l268 -231h446l306 313l27 998h-366l-20 -939l-74 -93h-166l-94 100l-1 173zM232 1058l3 -314h-1l3 -331h-2l3 -331h-2l22 -549l13 513l637 8l5 -312 q5 8 10 17q5 10 19 43q2 5 4 9l-5 279h-4l-2 331h-4l-3 331h-10l-3 314zM265 1023l617 8l2 -279l-617 -8zM268 709l626 7l3 -295l-627 -8zM269 378l632 7l2 -296l-632 -7z" />
<glyph unicode="K" horiz-adv-x="1141" d="M-355 -659h1836l6 8q-1 13 -1 23q-27 -2 -266 248q-137 -12 -255 -12q-264 0 -377 -20q0 1 -1 1q-46 26 -140 29q-179 5 -331 24q-76 9 -146 9q-124 0 -231 -29q-47 -13 -94 -281zM51 48l322 -18l17 431l54 70l257 -524l336 -7l-367 777l420 485l-360 18l-324 -399 l12 411l-316 19zM119 -500l36 -1l27 451l664 -7l-28 -453l36 -1l30 493h-4l25 364h-4l26 364h-11l24 345l-711 8l-25 -345l-26 -364h-1l-26 -365h-1zM186 -11l23 325l658 -7l-22 -325zM213 353l23 325l653 -6l-23 -326zM239 717l21 307l643 -7l-22 -306z" />
<glyph unicode="L" horiz-adv-x="983" d="M-512 -425q7 -161 54 -180q84 -35 208 -54h1380q2 8 2 17q0 18 -9 39q-13 176 -65 184q-7 5 -18 13q-13 9 -17 13q-4 3 -19 14t-23 18q-28 23 -28 38q0 13 -35 28q-39 16 -41 18q3 5 2 13q-3 16 -14 20l-16 -10q-26 23 -26 50q0 7 4 18q2 5 -4 14q-7 9 -20 15 q-12 6 -16 3q-7 -4 -33 -3q-27 2 -34 -2l-50 -41q-32 -27 -40 -57q-1 -7 -19 -27q-10 6 -29 6q-21 0 -52 -7q-50 -13 -73 -13q-8 0 -13 2q-35 10 -55 34q-21 27 -13 58q8 29 -9 43q-4 4 -46 25q-17 9 -40 38q-18 24 -34 24q-37 0 -99 -37q-46 -28 -93 -37q-13 -3 -35 -34 q-21 -31 -45 -34q-13 -2 -47 -23q-22 -15 -55 -15q-7 0 -15 1q-22 2 -37 10q-17 9 -19 9h-2q-20 0 -96 -50q-53 -35 -103 -92q-14 -16 -28 -22q-17 -7 -54 -9q-32 -2 -32 -13q0 -2 1 -5zM48 1294l12 -1290l897 6l-20 282l-550 -15l-21 1017h-318zM118 -363l36 -1l7 436 l677 -15l-7 -439l36 -1l9 477h-5l10 352h-5l10 352h-11l9 334l-726 17l-9 -334h-1l-10 -352h-1l-9 -352h-2zM164 110l8 315l672 -16l-9 -314zM174 462l9 314l666 -15l-8 -314zM184 814l8 297l656 -15l-8 -297z" />
<glyph unicode="M" horiz-adv-x="1079" d="M-401 -392q30 -11 152 -267h1696q79 142 151 182q44 25 57 43q5 6 5 10q0 9 -20 11q-62 5 -145 43q-85 40 -128 86q-48 51 -104 68q-29 8 -63 8q-17 0 -35 -2q-18 -3 -44 -8q-34 -7 -41 -8q-19 -3 -33 -3q-20 0 -33 6q-23 10 -145 74q-105 56 -155 75q-15 6 -33 6 q-51 0 -127 -47q-37 19 -66 19q-36 0 -60 -29q-9 -10 -32 -10q-13 0 -30 3h-6q-34 0 -94 -63q-138 47 -172 47q-4 0 -6 -1q-22 -5 -175 -82q-164 -83 -264 -114q-64 -20 -64 -35q0 -7 14 -12zM61 77l265 -1l6 749l75 -749l231 -12l119 717l-50 -730l287 -31l44 1248l-368 19 l-119 -780l-81 799l-375 25zM125 -189l35 -2l20 374l662 -30l-20 -377l36 -1l22 409h-5l20 302h-5l20 303h-11l18 286l-710 33l-18 -287h-1l-19 -302h-2l-19 -302h-1zM183 215l18 270l656 -30l-17 -270zM204 518l17 269l652 -29l-18 -270zM223 820l17 254l641 -29l-16 -254z " />
<glyph unicode="N" horiz-adv-x="1046" d="M-171 -659h1706q1 9 1 19q1 3 1 5q0 14 -37 18q-42 2 -62 11q-16 7 -31 27q-57 70 -117 113q-86 62 -108 62h-3q-3 0 -22 -11q-18 -10 -42 -13q-9 -1 -17 -1q-38 0 -63 19q-38 26 -54 28q-26 4 -50 42q-25 38 -41 42q-52 11 -105 45q-70 46 -112 46q-19 0 -40 -30 q-25 -35 -44 -46q-48 -26 -53 -31q-20 -17 -10 -53q3 -11 3 -21q0 -26 -18 -51q-23 -29 -63 -42q-21 -7 -47 14q-29 17 -52 1q-20 25 -22 33q-9 37 -60 71l-56 50q-8 5 -19 3q-30 -2 -37 3q-5 4 -19 -3q-14 -8 -22 -19q-7 -11 -5 -17q4 -14 4 -22q0 -33 -29 -62l-18 13 q-12 -5 -16 -25q-1 -10 2 -16q-1 -3 -36 -22q-40 -19 -40 -35q0 -18 -32 -47q-9 -8 -26 -22q-17 -13 -22 -17q-4 -5 -19 -16q-13 -10 -20 -16q-20 -3 -28 -27zM51 1184l20 -1270h346l-20 625l306 -638l292 -7l-14 1311l-333 -14l7 -550l-278 550zM191 -422l32 -1l9 438 l582 -21l-9 -440l31 -2l10 479l-4 1l11 354h-4l10 354l-9 1l10 335l-625 22l-10 -335l-11 -354h-1l-10 -355h-2zM234 53l9 317l577 -21l-9 -316zM245 407l9 317l573 -21l-9 -316zM256 761l8 299l564 -20l-9 -298z" />
<glyph unicode="O" d="M-449 -367q31 -12 164 -292h1670q87 164 165 207q44 25 57 43q5 6 5 10q0 9 -20 11q-62 5 -145 43q-85 40 -128 86q-48 51 -104 68q-29 8 -63 8q-17 0 -35 -2q-18 -3 -44 -8q-34 -7 -41 -8q-19 -3 -33 -3q-20 0 -33 6q-23 10 -145 74q-105 56 -155 75q-15 6 -33 6 q-51 0 -127 -47q-37 19 -66 19q-36 0 -60 -29q-9 -10 -32 -10q-13 0 -30 3h-6q-34 0 -94 -63q-138 47 -172 47q-4 0 -6 -1q-22 -5 -175 -82q-164 -83 -264 -114q-64 -20 -64 -35q0 -7 14 -12zM51 205l285 -194l445 -11l284 194l23 866l-250 251l-468 -23l-273 -217z M210 -213l32 -1l22 393l592 -21l-22 -391l32 -1l23 419h-1l12 262h-1l11 262l11 248l-635 23l-11 -248h-10l-12 -262l-3 1l-12 -262h-4zM269 208l11 233l587 -21l-11 -234zM285 469l10 234l583 -21l-11 -234zM305 731l10 220l574 -21l-10 -220zM428 374l16 558l70 79l151 3 l66 -77l-5 -561l-95 -65l-113 -1z" />
<glyph unicode="P" horiz-adv-x="915" d="M-292 -642q5 -2 12 -17h1366q-3 1 -6 1q-7 127 -63 156q-57 31 -86 66q-57 -73 -93 -73q-6 0 -11 2q-18 6 -39 6q-13 0 -27 -2q-12 -1 -30 -5q-22 -6 -27 -6q-29 -6 -44 2q-16 8 -98 57q-50 2 -83 17q-10 5 -23 5q-34 0 -85 -36q-49 46 -78 46q-16 0 -27 -14 q-10 -12 -42 -6h-4q-23 0 -64 -48q-94 36 -115 36h-4h-5q-23 0 -119 26q-110 -64 -178 -88q-37 -73 -37 -104q0 -17 10 -21zM51 0l312 3l7 404h317l210 207l12 417l-222 261l-591 19zM80 -572h34l14 492l645 -13l-14 -490h34l15 525h-2l6 327h-1l5 328l5 310l-691 14 l-5 -310h-11l-6 -328h-4l-6 -327h-4zM133 -45l5 293l639 -13l-5 -293zM142 283l6 292l634 -13l-5 -292zM158 610l5 276l624 -13l-5 -276zM379 684l8 364l144 -5l74 -82v-223l-70 -64z" />
<glyph unicode="Q" horiz-adv-x="1176" d="M-222 -556q-1 -3 -1 -6q0 -4 2 -7q4 -5 55 -31q19 -10 42 -38q6 -7 16 -21h1308v3q2 46 2 69q0 15 -1 20q-3 20 -11 26q-4 4 -23 10q-32 11 -54 58q-9 20 -18 24t-31 -1q-18 -4 -39 22q-12 15 -27 47q-9 15 -34 -3q-4 -2 -37 -32q-15 -13 -35 -18q-24 -7 -43 2 q-25 13 -50 36q-9 8 -50 27q-44 21 -53 17t-41 -2q-30 1 -47 5q-4 1 -9 1q-26 0 -48 -36q-10 -16 -37 -19q-25 -4 -55 4q-1 4 -3 5q-3 3 -12 7q-6 3 -9 10q-7 15 -9 16q-5 6 -13 0q-3 -3 -6 -7q-2 -3 -3 -3q-3 0 -21 22q-19 22 -27 23q-3 1 -18 -7q-11 -5 -20 7q-3 4 -6 11 q-4 7 -6 8q0 2 -23 21q-19 16 -20 24t-11 8q-5 0 -17 -4q-33 -10 -44 -5q-11 4 -21 -19q-3 -8 -15 -17q-14 -11 -20 -20q-4 -7 -10 -14q-4 -5 -5 -9q-54 24 -78 24q-7 0 -12 -2q-9 -4 -35 1q-24 5 -34 -1q-38 -22 -91 -69q-9 -8 -38 -64q-37 -71 -43 -81q-10 -16 -11 -22z M56 1172l3 -852l261 -177l424 -8l105 77l88 -85l182 206l-103 101l-1 764l-241 233h-459zM140 1379l11 -402h-1l11 -424h-1l12 -424h-3l20 -570l39 1l-19 525l719 28l20 -528l38 1l-20 574h-5l-11 424h-4l-12 424h-12l-11 402zM178 1336l697 28l10 -357l-697 -29zM189 934 l708 27l11 -378l-709 -29zM199 510l714 27l10 -378l-713 -29zM402 1037l66 105l144 -4l64 -72l13 -330l-63 61l-170 -180l156 -163l-13 -11l-108 -5l-87 59z" />
<glyph unicode="R" horiz-adv-x="942" d="M-191 -432q8 -161 61 -180q80 -29 190 -47h1062q40 2 79 2.5t76 -2.5h215q3 2 6 5q14 15 14 35q0 18 -11 39q19 63 19 101q0 49 -33 53q-7 5 -20 13q-15 9 -19 13q-5 3 -22 14t-26 18q-31 23 -31 38q0 13 -40 28q-35 16 -37 18q4 5 2 13q-3 16 -15 20l-19 -10 q-29 23 -29 50q0 7 5 18q2 5 -6 14t-22 15t-18 3q-8 -4 -38 -3q-10 2 -19 -2l-56 -41q-51 -27 -59 -57q-2 -7 -22 -27h-1q-22 13 -52 -1q-25 -17 -47 -11q-39 10 -62 34q-25 27 -15 58q9 29 -11 43q-5 4 -52 25q-19 9 -45 38q-21 24 -39 24q-43 0 -113 -37q-52 -28 -105 -37 q-15 -3 -40 -34t-51 -34q-15 -2 -53 -23q-26 -15 -63 -15q-8 0 -17 1q-25 2 -42 10q-20 9 -22 9h-2q-23 0 -110 -50q-60 -35 -117 -92q-15 -16 -31 -22q-20 -7 -62 -9q-37 -2 -37 -13q0 -2 2 -5zM58 59l291 -18l31 394l78 -6l151 -411l310 -9l-200 480l194 131l27 469 l-262 238l-527 21zM73 -332h32l44 636l600 -23l-32 -546l32 -2l34 575h-1l12 265h-1l13 266h-1l12 250l-643 26l-12 -252h-10l-12 -264h-4l-13 -266l-4 1zM155 333l11 236l595 -23l-11 -237zM172 597l11 237l589 -23l-11 -236zM193 862l10 223l581 -22l-10 -224zM385 705 l18 380l164 -10l95 -83l-4 -217l-108 -72z" />
<glyph unicode="S" horiz-adv-x="986" d="M-379 -554q13 -10 37 -46q17 -25 46 -59h2033q8 6 16 11q14 9 30 24q16 16 19 18q9 6 9 67q0 35 -3 87q-16 33 -30 38q-6 2 -21 -1q-20 -4 -51 -1q-33 3 -39 11q-12 16 -14 17q-23 14 -32 7q-16 -7 -49 -16q-16 -5 -15 -5q3 -2 -10 -9q-20 -11 -40 -11q-18 0 -35 9 q-16 9 -33 4q-38 -10 -40 -10q-31 -4 -41 -3q-16 2 -37 18q-8 6 -17 14q-8 7 -12 10q-11 7 -36 9q-12 1 -43 -3q-20 -3 -44 6q-23 8 -39 23q-18 16 -33 23q-22 9 -53 -6q-10 -5 -23 -13q-14 -9 -14 -10q-14 -7 -45 -14q-24 -6 -44 -6q-11 0 -20 2q-22 4 -44 -5 q-24 -10 -33 -9q-21 2 -69 16q-54 15 -75 28q-11 7 -31 7q-15 0 -34 -4q-24 -5 -80 -23q-21 -63 -49 -63q-26 0 -58 50q-26 3 -61 7q-43 15 -46 15q-16 2 -63 25q-42 21 -59 33q-6 4 -18 21q-9 13 -27 19q-15 5 -46 -15q-34 -22 -56 -21q-8 1 -18 1q-21 0 -53 -3t-50 -3 q-9 0 -15 1q-17 1 -50 36q-35 36 -59 40q-12 2 -25 2q-44 0 -93 -24q-22 -11 -74 -180q-35 -47 -35 -73q0 -28 44 -63zM37 -511l40 -2l28 545l741 -30l-28 -542l40 -1l29 580l-1 1l14 362h-1l15 362h-1l14 343l-795 32l-14 -343h-12l-15 -362h-5l-15 -362h-4zM51 226 l257 -226h314l294 216l13 317l-238 270l-289 19l-56 50l-6 100l65 63l248 3v-110h282l-6 173l-201 203l-420 7l-230 -220l-15 -357l250 -182l218 -7l72 -56v-126l-85 -51l-197 8l-7 106h-257zM111 70l13 324l735 -29l-13 -324zM130 432l13 324l730 -29l-13 -324zM156 794 l13 305l718 -29l-13 -305z" />
<glyph unicode="T" horiz-adv-x="1011" d="M-427 -655v-4h1835q38 21 79 75q-1 13 -1 23q-27 -2 -266 248q-137 -12 -255 -12q-264 0 -377 -20q0 1 -1 1q-46 26 -140 29q-179 5 -331 24q-76 9 -146 9q-124 0 -231 -29q-49 -14 -98 -305q-43 -18 -47 -18q-21 -3 -21 -21zM51 1033l292 -10l-40 -1003l305 -20l47 1019 l291 -13l13 272l-900 33zM82 832l8 -340l-5 -1l9 -340h-5l7 -550l39 2l-6 512l721 27l6 -510l39 2l-8 546h-1l-8 341h-2l-8 340h-1l-8 323l-773 -28l8 -323zM121 797l710 27l7 -305l-710 -26zM124 1121l699 26l7 -287l-699 -26zM125 456l715 27l7 -304l-715 -27z" />
<glyph unicode="U" horiz-adv-x="1015" d="M-308 -321q-3 -11 -3 -19q0 -20 14 -32q6 -5 49 -30q16 -95 23 -123q6 -27 52 -46q62 -27 64 -29q13 -9 39 -59h1513l74 118q5 14 5 25q0 9 -3 17q-6 103 -26 120q-82 73 -90 82q-14 18 -39 17q-8 0 -50 -9q-16 -3 -30 -3q-53 0 -87 38q-40 44 -175 44q-33 0 -71 -3 q-59 -4 -134 -15q-67 -10 -68 -10q-6 0 -28 4q-31 7 -45 10q-32 4 -57 4t-42 -4q-9 -3 -43 -24q-31 -19 -66 -25q-33 -8 -78 -8q-107 0 -280 44q-112 29 -197 29q-106 0 -170 -45q-41 -29 -51 -68zM51 1273l20 -994l278 -279h337l279 279l-19 1032l-286 -13l-13 -954 l-65 -52l-149 -6l-58 64l-20 935zM123 1054l7 -307l8 -324h-2l9 -324h-2l16 -435l36 3l-15 401l677 66l15 -403l36 4l-16 437h-4l-8 324l-5 -1l-8 324l-11 -1l-8 307zM159 1023l655 64l7 -272l-655 -65zM166 716l666 65l8 -289l-666 -65zM173 392l672 65l7 -289l-671 -65z " />
<glyph unicode="V" horiz-adv-x="1097" d="M-318 -476q2 -13 1 -23h1q23 0 181 -160h1616q24 76 48 215q42 18 46 19q21 2 22 21q0 16 -14 41q2 -3 -103 84q-47 39 -133 70q-27 10 -39 11q-9 2 -15 -3q0 -1 -5 -5l-7 -7q-12 -8 -33 -14q-16 -4 -30 -4q-23 0 -41 11q-10 6 -24 19q-16 15 -23 20q-21 16 -114 56 q-111 48 -125 52t-28 -1q-3 -2 -34 -20q-17 -10 -27 -24q-17 -24 -21 -28q-19 -22 -50 -44q-34 -26 -49 -26q-8 0 -19 -7q-25 21 -33 -1q-6 -18 -16 -1q-2 4 -7 16q-5 10 -7 13q-21 26 -33 21q-10 -4 -26 -2q-21 2 -23 14q-7 30 -22 54q-5 8 -27 13q-22 4 -25 8 q-26 35 -32 40q2 -2 -41 40q-8 7 -30 -12q-21 -17 -29 -31q-9 -17 -24 -28q-21 -15 -36 -4q-18 13 -30 12q-13 0 -16 -13l-2 -12q-1 -10 -1 -11q-2 -11 -10 -21l-32 -52q-6 -10 -28 -19q-18 -8 -18 -19q0 -4 7 -35q1 -6 -9 -11q-14 -8 -17 -12q-10 -12 -19 -16q-17 -7 -38 3 q-4 2 -8 5q-3 -12 -6 -21q-16 -49 -96 -64q-16 -3 -72 -9q-46 -6 -71 -12q-50 -14 -104 -86zM-41 1173l554 -1210l363 72l63 1313l-339 -55l30 -967l-381 909zM134 1124l33 -348h-1l36 -367h-2l36 -367h-2l52 -493l41 7l-49 453l764 130l49 -456l41 7l-53 495l-5 -1l-36 367 h-5l-35 367l-12 -3l-34 348zM177 1092l739 126l30 -309l-739 -126zM211 744l751 127l31 -327l-751 -128zM245 377l757 128l31 -327l-757 -129z" />
<glyph unicode="W" horiz-adv-x="1365" d="M-651 -552q10 -17 75 -39q34 -36 68 -68h2102q7 12 7 27q0 20 -13 44q-19 34 -90 42q-8 7 -24 16q-18 11 -23 14q-6 4 -26 17q-21 13 -32 20q-37 27 -37 43t-48 32q-55 19 -57 21q4 7 3 15q-4 19 -19 24l-22 -12q-35 27 -35 58q0 7 5 20q3 6 -6 16q-10 11 -27 17 q-16 7 -22 4q-9 -5 -45 -4q-37 2 -47 -2l-68 -48q-44 -31 -54 -64q-3 -8 -27 -32v1q-13 7 -38 7q-29 0 -73 -9q-66 -14 -98 -14q-12 0 -19 2q-48 11 -75 39q-21 22 -21 47q0 10 3 20q11 32 -13 49q-6 4 -63 28q-23 10 -54 44q-25 27 -48 27q-50 0 -135 -42q-63 -32 -126 -43 q-19 -3 -49 -39q-29 -35 -61 -39q-18 -2 -64 -26q-32 -17 -78 -17q-9 0 -19 1q-29 2 -50 11q-23 11 -27 11h-3q-27 0 -131 -57q-72 -41 -140 -106q-19 -18 -38 -25q-24 -8 -75 -11q-45 -2 -45 -15q0 -2 2 -5zM61 1267l309 -1304h244l109 464l139 -469l213 -2l250 1270 l-313 19l-111 -473l-109 473l-219 10l-52 -472l-138 473zM319 -350l36 -2l13 430l668 -25l-13 -432l35 -2l15 470h-4l14 347h-4l14 347l-10 1l13 329l-716 26l-13 -329h-1l-14 -347l-2 1l-14 -348h-2zM371 115l13 310l662 -25l-12 -310zM387 462l13 310l657 -24l-13 -310z M401 809l12 292l647 -24l-12 -292z" />
<glyph unicode="X" horiz-adv-x="1167" d="M-220 -418q25 -8 132 -217q139 -11 177 -16q27 -4 46 -8h1116q78 143 147 179q36 18 46 31q4 5 4 8q0 7 -16 8q-50 4 -117 32q-70 30 -104 64q-39 38 -84 50q-23 7 -51 7q-14 0 -28 -2q-15 -2 -36 -6q-28 -5 -33 -6q-36 -5 -54 2q-18 8 -117 56q-85 41 -126 56 q-12 4 -26 4q-42 0 -104 -35q-30 14 -53 14q-29 0 -48 -21q-11 -12 -50 -6h-5q-28 0 -77 -47q-112 35 -139 35h-4q-18 -4 -142 -61q-133 -62 -214 -86q-52 -15 -52 -26q0 -5 12 -9zM51 1311l372 -679l-354 -611l339 -14l184 316l177 -323h347l-351 619l351 602l-340 20 l-184 -316l-206 365zM202 1134l16 -329h-1l17 -347h-2l17 -347h-2l27 -466l36 1l-25 429l667 35l25 -431l36 2l-27 469l-4 -1l-17 348l-4 -1l-17 347h-11l-16 328zM238 1099l646 34l14 -292l-646 -34zM254 770l656 34l15 -310l-656 -34zM269 423l662 35l15 -310l-662 -35z " />
<glyph unicode="Y" horiz-adv-x="1121" d="M-317 -604q-1 -17 14 -42q-1 1 17 -13h1580q179 35 199 41q50 13 104 85q-1 13 -1 23q-27 -2 -266 248q-137 -12 -255 -12q-264 0 -377 -20q0 1 -1 1q-46 26 -140 29q-179 5 -331 24q-76 9 -146 9q-124 0 -231 -29q-49 -14 -98 -305q-43 -18 -47 -18q-21 -3 -21 -21z M38 1253l368 -877v-409h390l-12 434l272 863l-317 -10l-156 -544l-188 544zM187 -366h39l1 435l735 -1v-437h39l1 474h-4l4 351h-5l5 352h-12l4 332l-788 1l-5 -333h-1l-4 -350h-2l-4 -352h-2zM229 106l4 314l729 -1l-3 -314zM235 457l4 314l724 -1l-4 -314zM239 808l4 296 l713 -1l-4 -295h-713z" />
<glyph unicode="Z" horiz-adv-x="896" d="M-873 -337q-14 -17 -14 -30q0 -35 101 -36q65 -205 313 -242q50 -7 92 -14h1453q27 43 62 99q79 18 86 23q8 5 7 14q-2 7 -11 27q-28 63 -83 120q-63 67 -111 100q-12 9 -49 9t-49 7q-10 6 -36 6q-35 0 -100 -12q-1 5 -5 12q-7 10 -11 18q-5 12 -22 27q-15 14 -17 23 q-7 29 -25 26q-17 -3 -61 16q-17 7 -24 9q-14 2 -18 -8q-4 -8 -35 -23q-38 -16 -39 -18q-3 -1 -10 -8q-8 -8 -13 -11q-16 -12 -30 -4q-20 13 -23 13q-12 0 -45 -21t-37 -20q-2 0 -4 4q-3 5 -7 9q-10 9 -19 3q-2 -1 -16 -16q-7 -7 -16 -9q-14 -3 -19 -6q-3 -1 -6 -5h-15 q-36 0 -66 8q-37 10 -47 30q-11 23 -28 37q-20 16 -43 16h-9q-24 0 -61 4q-46 6 -58 12q-3 2 -12 2q-20 0 -68 -10q-64 -12 -79 -20q-43 -20 -82 -29q-9 -2 -19 -2q-21 0 -44 9q-27 10 -44 29q-40 41 -44 45q-32 26 -48 10q-32 -32 -52 -47q-27 -19 -49 -19q-7 0 -14 2 q-30 11 -44 8q-14 -2 -33 -23q-45 -49 -92 -54q-30 -3 -37 -6q-13 -6 -23 -28q-8 -18 -22 -31q-21 -18 -26 -25zM58 -38l752 -16l-15 323l-360 7l390 648l-3 309l-736 2l-13 -283l425 -10l-430 -665zM82 -242l32 -2l9 432l587 -6l-9 -430h32l9 461h-2l3 282h-1l3 282h-1 l2 278l-630 8l-2 -271l-10 1l-2 -288l-4 4l-3 -285h-4zM126 218l3 257l583 -5l-3 -257zM133 506l2 256l578 -5l-2 -256zM144 793l3 242l569 -5l-3 -242z" />
<glyph unicode="[" horiz-adv-x="666" d="M87 -102l482 -5l-15 300h-185l3 1115l202 8l1 299l-473 8z" />
<glyph unicode="\" horiz-adv-x="654" d="M-39 1511l394 -1587l293 86l-409 1600z" />
<glyph unicode="]" horiz-adv-x="666" d="M67 -127l482 15l-15 1715l-463 -8l2 -299l202 -8l-7 -1115h-186z" />
<glyph unicode="^" horiz-adv-x="738" d="M74 1087l216 -10l69 130l64 -138l233 -9l-165 374l-241 10z" />
<glyph unicode="_" horiz-adv-x="1016" d="M-338 -620q3 -3 16 -23q4 -8 9 -16h2007l3 3q40 35 44 66q3 31 -26 94q-54 205 -73 221q-53 43 -102 37q-22 -2 -55 -42q-32 -38 -47 -38t-57 10q-43 9 -63 9q-19 0 -48 30q-26 27 -40 22q-16 -6 -25 -20q-12 -18 -17 -23q-16 -13 -55 -33q-43 -23 -58 -23q-3 0 -41 -14 q-32 -2 -55 -2q-68 -120 -94 25q-48 27 -69 35q-39 15 -58 3q-19 -13 -68 -26q-44 -12 -62 -12q-8 0 -28 14q-19 13 -39 10q-23 -3 -57 11q-26 11 -38 22l-12 13q-10 10 -19 17q-27 21 -47 12q-14 -6 -30 -23q-16 -16 -36 -24q-23 -8 -40 -3q-27 8 -38 8q-22 0 -32 -8 q-4 -2 -11 -10q-9 -9 -17 -15q-19 -16 -34 -17q-9 -1 -36 7q-1 1 -35 16q-14 7 -29 -1q-34 -20 -67 9q-10 9 -7 11q0 1 -14 8q-28 14 -42 23q-7 10 -28 -4q-2 -2 -14 -20q-6 -9 -35 -9q-28 0 -45 7q-13 5 -19 3q-12 -4 -29 -42q-100 -285 -88 -298z" />
<glyph unicode="`" horiz-adv-x="658" d="M108 1274l304 -184l125 170l-310 184z" />
<glyph unicode="a" horiz-adv-x="1243" d="M-212 -628q-3 -4 -3 -8q0 -7 17 -7l2 -16h1632q55 73 55 101q0 12 -11 15q-26 7 -151 264q-139 2 -178 5q-81 -32 -107 -32q-11 0 -13 6q-17 74 -63 97q-25 12 -68 12q-22 0 -48 -3q-23 -3 -76 -11q-56 -9 -88 -13q-69 -9 -131 -9q-40 0 -77 4q-59 6 -110 6 q-112 0 -192 -28q-20 -7 -87 -37q-51 -23 -91 -31q-85 -227 -168 -279q-35 -21 -44 -36zM56 -23l318 11l44 236l368 16l61 -229l349 20l-433 1257l-437 -32zM202 1178l9 -344h-1l10 -362h-2l10 -363h-1l17 -488l36 1l-17 449l663 17l17 -451l35 1l-17 490h-5l-9 363h-5 l-9 363h-11l-9 343zM237 1141l642 17l8 -305l-642 -18zM246 797l653 17l8 -324l-652 -17zM255 434l657 17l9 -324l-657 -17zM479 555l60 401l70 5l88 -387z" />
<glyph unicode="b" horiz-adv-x="937" d="M-661 -487q5 -115 27 -172h1992q-20 171 -77 179q-7 7 -21 17q-16 11 -21 15q-6 4 -24 18q-19 14 -29 22q-34 28 -34 46q0 17 -43 35q-49 20 -51 23q4 6 2 15q-3 21 -16 26l-21 -12q-31 28 -31 62q0 8 5 22q2 6 -6 17q-9 11 -24 19q-15 7 -20 3q-9 -5 -41 -3 q-33 1 -43 -3l-61 -51q-40 -34 -49 -70q-2 -9 -24 -34q-12 8 -35 8q-26 0 -65 -10q-61 -15 -90 -15q-10 0 -16 2q-43 12 -68 43q-19 23 -19 50q0 11 3 22q10 35 -12 53q-5 5 -57 31q-21 10 -49 46q-22 30 -43 30q-45 0 -122 -46q-57 -34 -114 -46q-17 -3 -44 -42 q-27 -38 -55 -42q-17 -2 -59 -28q-28 -18 -67 -18q-9 0 -19 1q-27 2 -46 12q-21 11 -24 11h-3q-25 0 -118 -62q-66 -43 -127 -114q-17 -19 -35 -27q-21 -9 -67 -11q-40 -3 -40 -16q0 -3 1 -6zM29 1308l72 -1309l608 21l203 234l-22 377l-123 77l106 67l-19 334l-262 213z M166 1002l15 -280l-10 1l16 -297l-4 3l15 -293h-4l21 -481h33l-19 445l606 33l19 -444l32 1l-20 476h-2l-15 291h-1l-16 291h-1l-15 286zM199 975l587 32l13 -250l-587 -31zM205 693l596 32l14 -264l-596 -33zM217 396l601 33l14 -265l-601 -32zM317 1059l159 6l78 -72 l8 -112l-67 -75l-155 -10zM347 560l164 6l82 -68l5 -140l-77 -79l-164 -1z" />
<glyph unicode="c" horiz-adv-x="1121" d="M-543 -620q3 -3 16 -23q4 -8 9 -16h2007l3 3q40 35 44 66v6q0 31 -26 88q-54 205 -73 221q-47 38 -90 38q-6 0 -12 -1q-22 -2 -55 -42q-32 -38 -47 -38t-57 10q-43 9 -63 9q-19 0 -48 30q-26 27 -40 22q-16 -6 -25 -20q-12 -18 -17 -23q-16 -13 -55 -33q-43 -23 -58 -23 q-3 0 -41 -14q-32 -2 -55 -2q-31 -54 -53 -54q-27 0 -41 79q-48 27 -69 35q-39 15 -58 3q-19 -13 -68 -26q-44 -12 -62 -12q-8 0 -28 14q-19 13 -39 10q-23 -3 -57 11q-26 11 -38 22l-12 13q-10 10 -19 17q-27 21 -47 12q-14 -6 -30 -23q-16 -16 -36 -24q-23 -8 -40 -3 q-27 8 -38 8q-22 0 -32 -8q-4 -2 -11 -10q-9 -9 -17 -15q-19 -16 -34 -17q-9 -1 -36 7q-1 1 -35 16q-14 7 -29 -1q-14 -8 -28 -8q-20 0 -39 17q-10 9 -7 11q0 1 -14 8q-28 14 -42 23q-7 10 -28 -4q-2 -2 -14 -20q-6 -9 -35 -9q-28 0 -45 7q-13 5 -19 3q-12 -4 -29 -42 q-89 -254 -89 -292q0 -5 1 -6zM74 1108l26 -766l281 -254l460 2l262 258l-15 176l-320 8l-11 -73l-71 -75l-158 -19l-99 92l-18 495l76 121l143 11l61 -75l9 -101l372 9l-19 238l-233 229l-467 -8zM209 1130l2 -347l2 -365h-1l2 -366h-1l8 -492h37l-7 453l703 7l8 -455l38 1 l-9 494h-4l-3 366h-4l-3 366h-11l-3 346zM246 1082l681 7l2 -308l-681 -7zM248 734l692 8l3 -326l-693 -8zM249 369l698 7l3 -326l-698 -8z" />
<glyph unicode="d" horiz-adv-x="1087" d="M-309 -659h1469l12 8q30 19 39 32q3 5 3 8q0 8 -14 9q-67 127 -123 156q-57 31 -86 66q-57 -73 -93 -73q-6 0 -11 2q-18 6 -39 6q-13 0 -27 -2q-12 -1 -30 -5q-22 -6 -27 -6q-29 -6 -44 2q-16 8 -98 57q-50 2 -83 17q-10 5 -23 5q-34 0 -85 -36q-49 46 -78 46 q-16 0 -27 -14q-10 -12 -42 -6h-4q-23 0 -64 -48q-94 36 -115 36h-4h-5q-23 0 -119 26q-110 -64 -178 -88q-81 -137 -104 -198zM66 -22l616 -23l309 213l42 821l-297 275l-601 15zM121 -596l34 -2l14 473l647 -30l-15 -475l35 -2l16 517h-4l14 382h-4l15 382l-10 1l14 362 l-693 31l-14 -362h-1l-15 -382h-1l-15 -382h-2zM172 -84l13 341l642 -29l-14 -342zM188 298l13 341l636 -29l-13 -341zM203 680l13 321l626 -28l-13 -322zM387 253l31 706l186 -7l94 -63l-33 -560l-93 -83z" />
<glyph unicode="e" horiz-adv-x="909" d="M-416 -659h1628q7 2 14 5q53 19 62 180q1 2 1 4q0 11 -37 14q-42 2 -62 9q-16 6 -31 22q-57 57 -117 92q-86 50 -109 50h-2q-3 0 -22 -9q-18 -8 -42 -10q-9 -1 -17 -1q-37 0 -63 15q-38 21 -54 23q-26 3 -50 34q-25 31 -41 34q-52 9 -105 37q-70 37 -112 37 q-19 0 -40 -24q-25 -29 -44 -38q-48 -21 -53 -25q-20 -14 -10 -43q10 -31 -15 -58q-23 -24 -63 -34q-21 -6 -47 11q-29 14 -52 1q-20 20 -22 27q-9 30 -60 57l-56 41q-8 4 -19 2q-30 -1 -37 3q-5 3 -19 -3t-22 -15q-7 -9 -5 -14q4 -11 4 -18q0 -27 -29 -50l-18 10 q-12 -4 -16 -20q-1 -8 2 -13q-1 -2 -36 -18q-40 -15 -40 -28q0 -15 -32 -38q-9 -7 -26 -18t-22 -14q-4 -4 -19 -13q-13 -8 -20 -13q-33 -5 -33 -53q0 -37 19 -101q-10 -20 -11 -37zM90 1204l55 -1286l707 25l-16 265l-393 -13l-4 255l384 15l-21 266l-380 -17l-14 221 l383 13l-12 281zM170 992l11 -357h-8l12 -377h-4l13 -377h-4l13 -509l29 2l-12 468l536 29l12 -466l29 2l-13 507l-2 -1l-12 377h-1l-12 376h-1l-12 357zM199 954l519 28l10 -317l-519 -28zM202 596l528 29l11 -337l-528 -28zM211 219l532 29l11 -336l-532 -29z" />
<glyph unicode="f" horiz-adv-x="990" d="M-183 -564q-1 -3 -1 -6q0 -4 2 -7q4 -5 55 -31q19 -10 42 -38q4 -5 10 -13h1314q2 43 2 65q0 14 -1 19q-3 20 -11 26q-4 4 -23 10q-32 11 -54 58q-9 20 -18 24t-31 -1q-18 -4 -39 22q-12 15 -27 47q-9 15 -34 -3q-4 -2 -37 -32q-15 -13 -35 -18q-24 -7 -43 2 q-25 13 -50 36q-9 8 -50 27q-44 21 -53 17t-41 -2q-30 1 -47 5q-4 1 -9 1q-26 0 -48 -36q-10 -16 -37 -19q-25 -4 -55 4q-1 4 -3 5q-3 3 -12 7q-6 3 -9 10q-7 15 -9 16q-5 6 -13 0q-3 -3 -6 -7q-2 -3 -3 -3q-3 0 -21 22q-19 22 -27 23q-3 1 -18 -7q-11 -5 -20 7q-3 4 -6 11 q-4 7 -6 8q0 2 -23 21q-19 16 -20 24t-11 8q-5 0 -17 -4q-33 -10 -44 -5q-11 4 -21 -19q-3 -8 -15 -17q-14 -11 -20 -20q-4 -7 -10 -14q-4 -5 -5 -9q-54 24 -78 24q-7 0 -12 -2q-9 -4 -35 1q-24 5 -34 -1q-38 -22 -91 -69q-9 -8 -38 -64q-37 -71 -43 -81q-10 -16 -11 -22z M81 -80l309 6l7 484l399 2l12 250h-418l-1 268l498 -3l26 285l-823 19zM102 -382l33 -2l14 450l632 -28l-14 -452l34 -2l15 492h-4l15 363h-4l14 364h-10l14 345l-678 29l-13 -344h-1l-15 -363h-1l-15 -363h-1zM152 105l13 325l627 -28l-13 -325zM168 469l13 324l621 -28 l-13 -324zM182 832l13 306l611 -27l-12 -306z" />
<glyph unicode="g" horiz-adv-x="1110" d="M-121 -417q-8 -14 -8 -31q0 -22 14 -49q-7 -50 -7 -84q0 -65 25 -78h1305q36 37 69 87q11 19 25 27q17 9 53 15q31 6 31 18q0 2 -1 5q-26 173 -74 189q-119 40 -307 40h-9q-383 -1 -562 -37q-204 -77 -380 -77q-41 0 -80 4q-12 1 -22 1q-53 0 -72 -30zM2 1201l53 -777 l296 -247l395 28l64 56l3 -58l289 14l-44 687l-523 -30l17 -236h139l5 -36l-48 -69l-174 -19l-66 75l-38 574l54 71l194 13l63 -65l21 -112l335 23l-14 218l-292 247l-459 -39zM32 1512l14 -443h-1l15 -467h-2l15 -467h-2l25 -628l49 1l-25 578l899 32l24 -581l48 1l-26 632 h-5l-15 467h-6l-15 467h-14l-14 443zM80 1464l870 32l13 -394l-870 -31zM94 1021l884 32l14 -418l-885 -31zM107 554l892 32l13 -418l-892 -32z" />
<glyph unicode="h" horiz-adv-x="1063" d="M-290 -483q10 -16 42 -38q46 -32 98 -138h1260q46 242 65 252q11 6 11 24q0 38 -43 128q-72 27 -191 101q-104 -34 -127 -34h-4h-3q-23 0 -123 -47q-45 58 -69 58q-2 0 -4 -1q-34 -9 -44 6q-11 17 -28 17q-31 0 -83 -58q-54 40 -90 40q-14 0 -25 -6q-35 -19 -87 -23 q-86 -62 -103 -72q-15 -10 -46 -4q-6 1 -30 6q-19 5 -31 7q-13 2 -24 2q-25 0 -46 -9q-6 -2 -12 -2q-38 0 -101 85q-29 -44 -89 -82q-58 -38 -62 -192q-14 -1 -14 -10q0 -4 3 -10zM42 161l330 -23l22 498l293 -6l-1 -503l323 11l-45 1253l-301 4l16 -458l-293 -7l12 483 l-310 11zM57 -310l41 4l11 447l759 26l-12 -449l41 1l13 489l-5 -1l14 362l-5 -1l13 362h-12l13 343l-814 -27l-12 -338h-1l-14 -368h-2l-12 -369h-2zM112 180l12 323l753 25l-12 -322zM127 541l13 322l746 26l-12 -322zM141 902l12 304l734 26l-11 -304z" />
<glyph unicode="i" horiz-adv-x="686" d="M-626 -575q-1 -4 -1 -8q0 -8 4 -20q7 -19 28 -56h1564q34 100 68 111q72 23 72 38q0 12 -64 25q-181 36 -208 69q-20 25 -66 25q-44 0 -111 -23q-77 -50 -88 -50h-1q-9 3 -60 11q-55 10 -91 18q-123 29 -183 85q-33 26 -69 26q-19 0 -39 -7q-69 -47 -154 -59 q-19 -12 -43 -12q-40 0 -93 34q-84 54 -138 152q-22 14 -43 14q-34 0 -64 -38q-25 -59 -68 -104q-3 -7 -46 -85q-15 -46 -35 -51q-30 -75 -53 -82q-14 -3 -18 -13zM-114 -588l38 4l22 509l704 8l-21 -512l37 1l24 556h-4l21 412h-5l21 412h-11l20 391l-756 -7l-20 -386h-1 l-21 -419h-1l-21 -420h-2zM-51 -30l19 367l699 8l-19 -367zM-29 381l19 368l694 8l-19 -368zM-7 793l17 346l683 8l-18 -346zM94 -89l373 -47l99 1442l-361 32z" />
<glyph unicode="j" horiz-adv-x="1151" d="M-232 -659h1591q-27 68 -69 213q-138 11 -177 17q-77 -24 -105 -24q-16 0 -17 7q-11 75 -56 100q-31 18 -96 18h-19q-23 -2 -77 -7q-56 -5 -88 -7q-31 -2 -61 -2q-79 0 -147 12q-90 16 -165 16q-77 0 -138 -17q-20 -6 -89 -31q-52 -19 -93 -25q-100 -221 -187 -266 q-3 -2 -7 -4zM-73 546l32 -327l290 -239l447 -12l278 304l-66 997l-367 10l67 -937l-65 -92l-175 5l-95 102l-17 174zM28 1108l19 -339l21 -369h-2l22 -369h-2l33 -483l40 4l-31 447l761 7l31 -450h40l-33 490h-4l-21 362h-5l-21 362h-12l-20 344zM70 1067l737 7l17 -305 l-736 -7zM90 723l748 7l19 -323l-749 -7zM109 362l755 7l18 -324l-754 -7z" />
<glyph unicode="k" horiz-adv-x="1142" d="M-359 -460q8 -161 61 -180q28 -10 59 -19h1582q1 6 1 11q0 18 -11 40q19 63 19 101q0 49 -33 53q-7 5 -20 13q-15 9 -19 13q-5 3 -22 14t-26 18q-31 23 -31 38q0 13 -40 28q-35 16 -37 18q4 5 2 13q-3 16 -15 20l-19 -10q-29 23 -29 50q0 7 5 18q2 5 -6 14t-22 15t-18 3 q-8 -4 -38 -3q-10 2 -19 -2l-56 -41q-51 -27 -59 -57q-2 -7 -22 -27h-1q-22 13 -52 -1q-25 -17 -47 -11q-39 10 -62 34q-25 27 -15 58q9 29 -11 43q-5 4 -52 25q-19 9 -45 38q-21 24 -39 24q-43 0 -113 -37q-52 -28 -105 -37q-15 -3 -40 -34t-51 -34q-15 -2 -53 -23 q-26 -15 -63 -15q-8 0 -17 1q-25 2 -42 10q-20 9 -22 9h-2q-23 0 -110 -50q-60 -35 -117 -92q-15 -16 -31 -22q-20 -7 -62 -9q-37 -2 -37 -13q0 -2 2 -5zM64 1298l49 -1264l323 1l-17 432l48 72l298 -507l336 13l-428 754l380 508l-360 -3l-292 -417l-20 411h-317zM165 1181 l22 -335h-11l23 -353l-5 3l23 -350l-5 -1l32 -575l36 1l-29 533l660 51l29 -531l36 3l-32 569h-1l-22 348l-2 -1l-22 348h-1l-22 343zM201 1151l640 50l20 -299l-640 -50zM213 813l650 51l21 -317l-651 -51zM232 458l655 52l21 -317l-656 -52z" />
<glyph unicode="l" horiz-adv-x="983" d="M-370 -561q10 -16 46 -37q30 -19 61 -61h1480q60 128 78 136q11 5 11 11q0 13 -52 31q-81 28 -214 102q-124 69 -142 74h-5q-26 0 -138 -42q-49 57 -77 57q-3 0 -5 -1q-39 -7 -50 7q-19 26 -48 26q-23 0 -53 -17q-62 42 -104 42q-15 0 -26 -5q-41 -18 -126 -67 q-99 -57 -117 -67q-18 -9 -54 -2q-5 1 -32 7q-22 5 -36 7q-15 2 -29 2q-28 0 -50 -8q-46 -15 -85 -60q-34 -41 -104 -77q-67 -34 -117 -39q-16 -1 -16 -10q0 -3 4 -9zM68 -51l881 -36l-6 283l-534 23l13 953l-326 27zM171 -430l30 -3l15 534l569 -18l-15 -532l31 -1l15 570 h-1l7 349h-1l6 349l6 344l-610 21l-7 -336l-9 1l-7 -355l-3 5l-7 -352h-4zM220 138l6 318l565 -17l-6 -318zM231 494l6 317l560 -17l-6 -317zM246 849l6 299l551 -16l-6 -300z" />
<glyph unicode="m" horiz-adv-x="1079" d="M-286 -659h1598q-27 68 -70 216q-138 11 -177 17q-77 -24 -105 -24q-16 0 -17 7q-11 75 -56 100q-32 18 -96 18h-19q-23 -2 -77 -7q-56 -5 -88 -7q-31 -2 -61 -2q-79 0 -147 12q-90 16 -165 16q-77 0 -138 -17q-20 -6 -89 -31q-52 -19 -93 -25q-100 -221 -187 -266 q-7 -4 -13 -7zM1 -93l265 -1l6 749l75 -749l231 -12l119 717l-50 -730l287 -31l44 1248l-369 19l-118 -780l-81 799l-375 25zM97 -523l33 -4l26 516l617 -32l-26 -515l33 -1l27 551h-1l14 337h-2l14 338h-1l14 332l-662 37l-13 -325l-10 2l-14 -343l-4 4l-14 -340h-4z M161 25l12 307l612 -31l-12 -308zM179 369l12 307l607 -31l-12 -307zM202 712l12 290l597 -31l-11 -290z" />
<glyph unicode="n" horiz-adv-x="1046" d="M-237 -441q21 -8 80 -218h1303q63 120 121 153q33 19 43 32q3 5 3 8q0 8 -15 9q-8 127 -70 156q-65 31 -97 66q-64 -73 -104 -73q-6 0 -12 2q-21 6 -44 6q-14 0 -30 -2q-13 -1 -33 -5q-26 -6 -31 -6q-33 -6 -50 2t-109 57q-56 2 -93 17q-12 5 -26 5q-38 0 -95 -36 q-55 46 -88 46q-18 0 -30 -14q-10 -12 -46 -6q-16 3 -50 3q-20 0 -46 -1q-95 -10 -113 -14h-5q-26 0 -134 26q-123 -64 -199 -88q-42 -73 -42 -104q0 -16 12 -21zM71 1370l20 -1270h346l-20 625l306 -638l292 -7l-14 1311l-333 -14l7 -550l-278 550zM153 -343l37 -2l10 503 l685 -7l-11 -501h37l11 537h-2l3 328h-1l3 329h-1l3 323l-734 10l-3 -316l-11 1l-3 -334l-4 3l-4 -331h-4zM205 193l3 299l679 -6l-3 -299zM212 528l3 299l673 -6l-2 -299zM226 863l2 282l663 -6l-2 -282z" />
<glyph unicode="o" horiz-adv-x="1181" d="M-372 -624q10 -4 32 -35h2031q3 12 -20 14q-63 5 -148 43q-87 40 -133 86q-51 51 -108 68q-29 8 -63 8q-17 0 -35 -2q-18 -3 -44 -8q-34 -7 -41 -8q-18 -3 -33 -3q-20 0 -33 6q-23 10 -149 74q-109 56 -160 75q-15 6 -33 6q-51 0 -124 -47q-38 19 -67 19q-36 0 -59 -29 q-13 -16 -61 -7h-6q-34 0 -90 -63q-142 47 -175 47q-4 0 -6 -1q-22 -5 -170 -82q-159 -83 -257 -114q-63 -20 -63 -34q0 -7 15 -13zM85 296l293 -197l445 -11l277 197l-11 881l-261 255l-467 -23l-265 -221zM167 -504h38l9 509l694 23l-8 -508l37 2l9 544h-2l3 333h-2l3 333 l-1 -1l2 328l-744 -22l-3 -320h-11l-3 -338l-4 3l-3 -335l-4 -1zM219 41l1 303l690 24l-3 -304zM225 381l2 303l684 23l-2 -303zM239 720l2 286l672 23l-3 -286zM450 1036l66 80l151 3l70 -78l17 -571l-93 -66l-113 -2l-93 66z" />
<glyph unicode="p" horiz-adv-x="917" d="M-787 -361q-3 -52 -3 -87q0 -61 9 -67q3 -2 19 -18q16 -15 30 -24q44 -27 129 -102h1909q36 117 58 150q24 36 37 46q44 36 44 61.5t-36 74.5q-52 169 -74 180q-49 24 -92 24q-13 0 -25 -2q-25 -4 -59 -40q-34 -35 -51 -36q-5 -1 -14 -1q-18 0 -50 3q-33 3 -53 3 q-11 0 -18 -1q-22 -1 -56 21q-31 20 -47 15q-18 -6 -27 -19q-11 -17 -17 -21q-17 -12 -60 -33q-47 -23 -63 -25q-3 0 -46 -15q-35 -4 -61 -7q-32 -50 -57 -50q-29 0 -50 63q-56 18 -80 23q-19 4 -34 4q-20 0 -31 -7q-21 -13 -74 -28q-49 -14 -70 -16q-9 -1 -32 9 q-22 9 -44 5q-9 -2 -20 -2q-20 0 -45 6q-30 7 -45 14q0 1 -14 10q-12 8 -22 13q-32 15 -53 6q-16 -7 -33 -23q-17 -15 -39 -23q-25 -9 -45 -6q-30 4 -43 3q-25 -2 -36 -9q-3 -3 -11 -10q-10 -8 -18 -14q-20 -16 -36 -18q-11 -1 -42 3q-1 0 -40 10q-16 5 -32 -4 q-18 -9 -36 -9q-20 0 -40 11q-12 7 -10 9q1 0 -15 5q-33 9 -49 16q-9 7 -31 -7q-3 -1 -15 -17q-6 -8 -39 -11q-31 -3 -51 1q-15 3 -21 1q-14 -5 -30 -38zM50 -118l311 3l7 404h317l210 207l13 417l-223 261l-591 19zM112 -499l33 -1l7 436l612 -15l-7 -439l33 -1l7 477h-4 l9 352h-4l9 352h-10l8 334l-657 17l-8 -334l-9 -352h-1l-9 -352h-1zM154 -26l7 315l607 -16l-7 -314zM163 326l8 314l602 -15l-7 -314zM172 678l7 297l593 -15l-7 -297zM377 566l8 364l144 -5l74 -82v-223l-70 -64z" />
<glyph unicode="q" horiz-adv-x="1163" d="M-658 -620q3 -10 0 -39h2259q4 33 8 68q26 11 26 24q0 10 -20 17q-21 7 -43 33q2 -2 -38 52q-25 34 -47 51q-30 23 -66 26q-70 7 -89 24q-10 9 -14 10q-10 4 -34 4q-38 0 -87 21q-57 23 -93 28q-27 4 -58 -8q-17 -7 -58 -29q-3 2 -53 20q-34 12 -39 24q-6 16 -30 28 q-8 4 -24 11q-19 8 -28 12q-11 5 -23 14t-16 11q-19 10 -58 1q-31 -8 -63 -21q-28 -12 -53 -16q-44 -6 -94 -47q-30 4 -75 21q-37 14 -54 11q-24 -2 -61 15q-39 18 -54 18q-20 0 -48 -38q-33 -44 -53 -54q-40 -20 -70 -45q-38 -31 -38 -52q0 -23 -50 -44q-39 -17 -62 -17 q-5 0 -10 1q-7 1 -32 9q-28 9 -45 13q-24 6 -42 6q-26 0 -40 -12q-18 -16 -100 -32q-83 -17 -101 -33q-11 -10 -53 -19q-14 -3 -39 -8q-34 -6 -42 -8q-49 -10 -71 -20q-26 -11 -26 -26q0 -2 1 -5zM51 125l259 -185l424 -24l106 72l87 -88l184 197l-102 103l6 754l-239 239 l-460 18l-261 -246zM118 -524l36 -1l7 400l677 -14l-7 -403l36 -1l9 438h-5l10 324h-5l10 324h-11l9 306l-726 16l-9 -307h-1l-10 -323h-1l-10 -324h-1zM163 -90l9 289l672 -14l-9 -289zM174 234l9 289l666 -14l-8 -289zM184 557l8 273l656 -14l-8 -272zM398 286l2 533 l67 101l144 -10l63 -74l11 -325l-63 63l-171 -171l154 -168l-13 -10l-108 -1z" />
<glyph unicode="r" horiz-adv-x="966" d="M-270 -659h1466q-60 77 -128 235q-41 6 -93 26q-70 28 -90 33q-58 17 -130 17q-78 0 -173 -20q-74 -15 -160 -15q-23 0 -47 1q-32 2 -89 7q-54 5 -77 6h-17q-65 0 -97 -21q-45 -30 -55 -113q-3 -23 -92 -38q-38 -7 -176 -22q-23 -54 -42 -96zM43 1238l73 -1307l292 2 l-13 411l78 -1l196 -399l310 12l-252 465l178 144l-25 469l-285 220zM98 1071l14 -334h-11l15 -352h-5l15 -352h-5l16 -476l36 1l-14 438l677 26l14 -436l36 2l-15 473h-2l-14 352h-2l-14 352h-1l-14 333zM134 1035l656 25l13 -297l-656 -24zM138 701l666 25l14 -314 l-667 -26zM149 349l671 25l13 -314l-671 -26zM346 993l166 2l103 -77l19 -217l-100 -78l-164 -10z" />
<glyph unicode="s" horiz-adv-x="986" d="M-193 -487q16 -8 74 -172h1137q35 71 67 97q28 22 37 37q2 5 2 9q0 9 -12 11q-40 4 -93 39q-54 35 -82 76q-30 46 -66 61q-18 7 -39 7q-11 0 -24 -2q-11 -2 -28 -7q-22 -6 -26 -7q-28 -6 -42 3q-15 9 -93 67q-67 49 -99 67q-9 5 -21 5q-33 0 -82 -42q-23 17 -42 17 q-23 0 -38 -26q-9 -14 -39 -7q-2 1 -4 1q-22 0 -61 -57q-89 42 -109 42h-4q-15 -5 -112 -74q-105 -74 -169 -103q-41 -18 -41 -31q0 -6 9 -11zM51 226l257 -226h314l295 216l12 317l-238 270l-289 19l-56 50l-6 100l65 63l248 3v-110h282l-6 173l-201 203l-420 7l-230 -220 l-15 -357l250 -182l218 -7l72 -56v-126l-85 -51l-197 8l-7 106h-257zM128 -384l34 -1l7 430l648 -15l-7 -433l35 -1l8 471h-4l9 348h-4l9 348h-10l8 329l-695 17l-9 -330l-9 -347h-2l-9 -348h-1zM172 83l8 311l643 -16l-8 -310zM182 431l8 310l638 -15l-8 -310zM191 778 l8 293l628 -15l-8 -292z" />
<glyph unicode="t" horiz-adv-x="1026" d="M-295 -659h1504q2 3 4 5q-113 137 -133 139q-7 127 -63 156q-57 31 -86 66q-57 -73 -93 -73q-6 0 -11 2q-18 6 -39 6q-13 0 -27 -2q-12 -1 -30 -5q-22 -6 -27 -6q-29 -6 -44 2q-16 8 -98 57q-50 2 -83 17q-10 5 -23 5q-34 0 -85 -36q-49 46 -78 46q-16 0 -27 -14 q-10 -12 -42 -6h-4q-23 0 -64 -48q-94 36 -115 36h-4h-5q-23 0 -119 26q-110 -64 -178 -88q-37 -73 -37 -104q0 -16 10 -21q6 -3 6 -36q0 -40 -9 -124zM51 1033l292 -10l-39 -1003l305 -20l46 1019l292 -13l13 272l-900 33zM68 -412l36 -1l8 436l677 -15l-8 -439l37 -1 l8 477h-4l9 352h-4l9 352h-11l9 334l-726 17l-9 -334h-1l-9 -352h-2l-9 -352h-2zM114 61l8 315l672 -16l-8 -314zM124 413l9 314l667 -15l-9 -314zM134 765l8 297l656 -15l-8 -297z" />
<glyph unicode="u" horiz-adv-x="1015" d="M-210 -573q2 -50 9 -86h1699q4 22 4 38q0 50 -34 54q-7 5 -20 13q-15 9 -19 13q-5 3 -22 14t-26 18q-31 23 -31 38q0 13 -40 28q-35 16 -37 18q4 5 2 13q-3 16 -15 20l-19 -10q-29 23 -29 50q0 7 5 18q2 5 -6 14t-22 15t-18 3q-8 -4 -38 -3q-10 2 -19 -2l-56 -41 q-51 -27 -59 -57q-2 -7 -22 -27h-1q-22 13 -52 -1q-25 -17 -47 -11q-39 10 -62 34q-25 27 -15 58q9 29 -11 43q-5 4 -52 25q-19 9 -45 38q-21 24 -39 24q-43 0 -113 -37q-52 -28 -105 -37q-15 -3 -40 -34t-51 -34q-15 -2 -53 -23q-26 -15 -63 -15q-8 0 -17 1q-25 2 -42 10 q-20 9 -22 9h-2q-23 0 -110 -50q-60 -35 -117 -92q-15 -16 -31 -22q-20 -7 -62 -9q-37 -2 -37 -13q0 -2 2 -5zM51 1273l19 -994l278 -279h338l279 279l-20 1032l-285 -13l-13 -954l-65 -52l-149 -6l-59 64l-19 935zM138 1005l4 -345h-1l5 -365h-1l4 -365h-1l11 -490l36 2 l-10 451l676 40l11 -454l36 2l-11 493h-4l-5 365h-4l-5 365l-11 -1l-5 346zM173 969l656 39l4 -307l-656 -39zM178 623l666 40l4 -326l-666 -40zM181 258l671 40l5 -326l-672 -40z" />
<glyph unicode="v" horiz-adv-x="1149" d="M-705 -575q0 -54 46 -70q18 -7 41 -7q25 0 55 8q5 -8 10 -15h1073q-5 11 -11 23q-52 55 -154 138q-24 21 -97 42q-54 15 -67 53q-16 51 -116 108q55 -5 111 -45q17 -13 41 -34q25 -23 32 -29q20 -14 84 -28q66 -13 109 -40q66 -44 189 -188h1151l2 2q19 27 76 56 q21 12 21 24q0 3 -1 6q-3 11 -28 27q-29 21 -36 30q-15 18 -2 34q14 18 0 48q-11 25 -41 55q-61 61 -100 70q-13 3 -24 -12q3 4 -16 -30q-10 -16 -21 -19q-15 -3 -36 18q-35 33 -95 33q-9 0 -20 -1q-56 -4 -89 -24q-4 -2 -9 -2q-18 0 -51 29q-14 14 -35 36q-27 28 -30 31 q-10 11 -22 30q-18 27 -20 31q-26 35 -60 35q-33 0 -64 -24q-41 -32 -55 -37q-38 -14 -62 -14h-3q-36 2 -82 31q-164 103 -205 103q-42 0 -102 52q-23 21 -51 -6q-43 -41 -51 -46q-106 -45 -153 -59q-16 -5 -66 -41q-56 -38 -70 -46q-15 -7 -137 -44q-15 7 -33 16 q-24 12 -23 10q-30 17 -40 26q-16 15 -28 44q-6 15 -40 41t-56 80q-8 16 -27 73q-15 42 -24 56q-13 23 -24 15q-13 -9 -27 -58q-24 -85 -91 -172q-24 -33 -69 -120q-49 -95 -73 -131q-22 -32 -121 -86q-41 -21 -58 -37q-25 -22 -25 -49zM93 1267l376 -1277l370 20l248 1291 l-342 -7l-108 -961l-249 954zM234 1084l14 -305h-1l15 -321l-1 -1l15 -321l-1 -1l24 -432l33 2l-22 397l618 32l23 -400l34 1l-25 435h-4l-15 322h-4l-15 322l-10 -1l-15 305zM268 1052l599 31l13 -271l-600 -31zM282 746l609 32l13 -288l-609 -31zM296 425l614 31l13 -287 l-614 -32z" />
<glyph unicode="w" horiz-adv-x="1364" d="M-552 -659h2256q-78 202 -78 238q0 22 -30 28q-24 6 -74 7h-42q-26 0 -40 1q-42 1 -56 9q-21 12 -105 13t-105 13q-10 6 -25 6q-23 0 -56 -15q-16 -7 -42 -21q-23 -12 -29 -14q-11 -5 -27 -5q-20 0 -47 7q-54 11 -58 34q-4 20 -47 44q-34 19 -77 31q-20 7 -62 44 q-34 32 -53 28q-16 -3 -51 -28q-33 -23 -56 -25q-18 -1 -52 -21q-41 -25 -70 -35q-54 29 -96 29h-5q-24 0 -54 6q-35 7 -67 9q-40 2 -56 -12q-4 -2 -14 -13q-11 -12 -20 -18t-25 -17q-15 -10 -22 -16q-22 -16 -25 -33q-2 -12 -33 -30q-46 -27 -49 -30q-43 14 -62 18 q-33 6 -59 -3q-34 -12 -85 -44q-44 -30 -83 -37q-22 -5 -32 -11q-3 -1 -11 -12q-17 -20 -83 -40q-36 -10 -61 -38q-17 -17 -32 -47zM51 1295l257 -1304h244l128 464l120 -469l213 -2l301 1270l-313 19l-130 -473l-90 473l-218 10l-71 -472l-119 473zM215 -625l42 -1l8 501 l779 -17l-8 -504l41 -1l10 547h-5l11 405l-5 1l11 405h-13l11 384l-836 19l-10 -384h-1l-11 -405h-2l-11 -405h-1zM268 -81l10 362l772 -18l-9 -362zM280 324l10 362l767 -18l-10 -361zM291 729l9 341l755 -17l-9 -341z" />
<glyph unicode="x" horiz-adv-x="1168" d="M-274 -505q-1 -4 -1 -8q0 -8 4 -20q12 -34 73 -126h1511q104 100 143 113q7 62 7 89q0 14 -2 19q-4 11 -64 23q-181 36 -208 69q-20 25 -66 25q-44 0 -111 -23q-77 -50 -88 -50h-1q-9 3 -60 11q-55 10 -91 18q-123 29 -183 85q-33 26 -69 26q-19 0 -39 -7 q-69 -47 -154 -59q-19 -12 -43 -12q-40 0 -93 34q-84 54 -138 152q-22 14 -43 14q-34 0 -64 -38q-25 -59 -68 -104q-3 -7 -46 -85q-15 -46 -35 -51q-30 -75 -53 -82q-14 -3 -18 -13zM51 1311l371 -679l-354 -611l340 -14l184 316l176 -323h347l-350 619l350 602l-340 20 l-183 -316l-207 365zM185 -532l37 -1l7 459l677 -17l-7 -461l36 -1l8 502h-4l10 370h-5l10 371h-11l9 351l-727 18l-9 -351l-10 -371h-1l-10 -370h-1zM231 -34l9 331l672 -17l-9 -330zM242 336l8 331l667 -16l-9 -331zM252 707l8 312l656 -16l-8 -312z" />
<glyph unicode="y" horiz-adv-x="1121" d="M-457 -659h1694q-5 2 -10 3q-37 10 -53 23q-13 10 -24 33q-80 84 -127 141q-70 84 -89 84q-2 -1 -21 -9q-16 -8 -38 -6q-44 3 -68 31q-30 35 -43 40q-23 8 -39 52q-16 45 -29 51q-45 21 -86 66q-56 60 -93 67q-16 4 -39 -24q-27 -34 -46 -42q-46 -20 -51 -24 q-20 -16 -16 -55v-8q0 -36 -24 -65q-24 -28 -61 -35q-20 -3 -40 22q-23 25 -45 11h-1q-14 30 -14 39q-2 40 -42 84l-42 63q-7 6 -17 6q-26 4 -32 10q-4 5 -17 0q-13 -6 -22 -16q-8 -11 -7 -18q2 -15 0 -24q-4 -35 -34 -61l-15 17q-11 -4 -17 -25q-2 -9 0 -17q-2 -2 -36 -18 q-38 -12 -40 -30q-3 -19 -34 -44q-10 -7 -27 -18q-16 -12 -21 -16q-5 -3 -19 -13q-13 -8 -21 -15h-1q-53 0 -175 -198q-18 -34 -18 -62zM51 1417l339 -905l-14 -385l390 -21l2 418l301 870h-317l-174 -539l-170 550zM160 -396l36 -1l7 436l677 -15l-7 -439l36 -1l9 477h-5 l10 352h-4l9 352h-11l9 334l-726 17l-9 -334h-1l-10 -352h-1l-9 -352h-2zM206 77l8 315l672 -16l-9 -314zM216 429l9 314l666 -15l-8 -314zM226 781l8 297l656 -15l-8 -297z" />
<glyph unicode="z" horiz-adv-x="895" d="M-400 -629q-1 -13 7 -30h1729q62 13 74 16q50 13 104 85q-1 13 -1 23q-27 -2 -266 248q-137 -12 -255 -12q-264 0 -377 -20q0 1 -1 1q-46 26 -140 29q-179 5 -331 24q-76 9 -146 9q-124 0 -231 -29q-49 -14 -98 -305q-43 -18 -47 -18q-21 -3 -21 -21zM51 1115l3 -283 l424 13l-392 -687l6 -315l752 26l-32 321l-360 -13l354 668l-20 309zM150 627l8 -336h-4l8 -337h-3l6 -455l30 1l-6 419l545 15l6 -416h30l-7 453h-1l-8 336h-1l-8 336h-1l-7 319l-585 -16l7 -319h-9zM180 592l537 14l7 -300l-537 -15zM181 911l529 14l6 -283l-529 -14z M184 255l542 15l7 -300l-542 -15z" />
<glyph unicode="{" horiz-adv-x="3745" d="M96 -350q-6 -167 39 -168l27 -60l32 -81h3822v80q2 6 0 11l-47 163l-289 119q-35 15 -64 16q-6 40 -56 63q-56 24 -68 58q-16 41 -64 75q-59 41 -72 58q-19 26 -103 20q-87 -5 -107 13q-83 73 -73 67q-51 32 -106 -7q-24 -17 -105 -80q-90 -70 -135 -103q-38 108 -68 259 q-39 197 -31 606q5 30 10 50q-7 -170 39 -246q-32 152 21 342q-7 -93 14 -255q-2 79 17 233q19 152 22 123q4 -31 -21 -284q25 49 50 225q-1 -2 0 4q1 1 5 3q-1 3 -2 8q-2 -3 -2 -2t1 10q-4 23 -12 45q13 -6 24 -9q-13 11 -21 25q-15 28 14 45q53 30 61 33q19 8 24 -7 q12 -39 51 -56q-27 28 -26 74q7 23 18 -7q14 -39 52 -52q-32 13 -30 81q46 -28 53 -108q6 -80 37 -135q-8 42 -1 89q17 -136 98 -227q-52 111 -41 185q43 -137 171 -174q-85 53 -120 141q22 -5 96 -77t156 -42q-73 -12 -132 76q84 -21 152 34q-44 -11 -87 -4q0 17 -14 41 q18 8 28 19q-18 -6 -36 -7q-7 10 -16 20q32 13 52 32q-36 -12 -72 -12q-31 29 -78 59q16 8 28 18q-71 2 -114 50q-13 16 -23 37q41 -38 60 -24q-22 15 -45 38q-22 23 -33 29q-24 71 -44 92q-37 40 -125 46q-44 3 -82 -19q-11 31 -29 43q51 9 105 -5q-68 39 -115 37 q17 29 126 -23q110 -52 215 -17q-60 -1 -128 21q99 -20 281 38l-205 12q122 41 342 -14q-50 25 -125 53q57 4 94 16q-52 0 -118 13q-9 7 -24 15q160 -6 383 66l-322 18q192 65 537 -23q-158 81 -403 151q6 -1 10 -1q84 -14 166 -25q-54 49 -208 90t-253 -18l99 59 q-111 10 -299 -114q-92 -60 -134 -95q98 198 94 286q-52 -109 -106 -184q11 71 81 208q65 125 67 123q-209 -142 -210 -142q3 4 4 5q27 44 49 92q-54 -2 -114 -70q-51 -57 -40 -171q-7 50 -22 100q-5 -19 -12 -226q-79 158 -140 196l43 -80q-43 80 -133 112q-91 33 -129 20 q46 -24 94 -48q1 -1 3 -1q2 -1 3 -2q-145 49 -245 55q202 -76 295 -197l-178 115q138 -176 228 -216q-64 18 -114 56q18 -24 50 -50q6 -9 19 -16q8 -5 16 -11q-69 0 -121 65q2 -41 16 -61q-6 1 -15 3q-78 43 -108 119q-1 -38 21 -79q-34 26 -49 61q-4 -41 34 -79 q-74 39 -108 110q3 -70 61 -121q-87 8 -119 63q26 -69 111 -94q85 -24 100 -37q-75 -10 -154 30q93 -76 202 -53q-41 -37 -138 -43q7 -2 17 -3q-150 4 -211 -32l103 -5q-103 5 -198 -78t-111 -136q55 37 111 76q-1 -1 7 5q-149 -136 -227 -249q214 184 390 207l-232 -127 q259 38 360 116q-63 -62 -134 -95q149 20 238 138q89 119 132 96q-58 -25 -108 -105q110 94 211 70q16 -4 31 -9q-6 -23 -47 -7q32 -28 53 -22q-5 -35 -20 -73q-67 -14 -144 -77q-80 -66 -92 -117l40 35q-40 -35 -44 -111q-5 -75 8 -106q7 38 13 78q1 3 1 5q-5 -121 7 -204 q12 168 68 245l-39 -148q81 115 90 190q-1 -53 -15 -95q48 65 37 155q-10 90 14 95q-5 -14 -6 -38q-11 -21 2 -35q1 -9 2 -17q1 5 2 13q3 -2 6 -3q-5 -11 -7 -22q-15 -62 -18 -107l21 59l-15 -97v-97q12 18 18 96q4 52 12 15q3 -11 3 -10q13 -72 -8 -177q35 52 46 101 q21 -107 -7 -228q11 16 21 39q-9 -376 22 -652q-13 -25 -30 -48q-19 -24 -22 -73q-7 8 -3 16q-9 -13 -5 -26q2 -4 2 -10q-7 0 -11 4q0 -8 3 -13q-13 -13 -38 -54q-2 -1 -5 -1q-6 32 9 58q31 54 26 91q-5 -39 -36 -79q-6 -7 -9 -16q-10 67 15 132q36 88 27 149 q-11 -86 -41 -149q-11 -24 -22 -90q-12 -82 -16 -96l-22 2q-5 43 13 89q26 65 20 110q-8 -64 -31 -110q-9 -19 -19 -87q-3 1 -8 2q0 14 8 52q32 52 26 82q-5 -7 -13 -17q1 5 1 3q15 93 -23 143q25 -79 1 -173q-8 -9 -14 -16q17 85 -5 121q-6 -23 -16 -51q-1 1 -1 2 q0 -1 1 -4q-6 -16 -11 -30q-2 5 -5 10q-2 40 -2 75q0 32 10 61q6 1 11 7q4 6 9 13q6 8 6 9q5 7 11 1q-9 19 -22 6v2q8 7 17 17q-10 -2 -18 -7q4 9 8 23q-11 -12 -14 -21q1 13 2 28q-7 -15 -10 -28q-26 5 -26 23q-3 -24 13 -40q5 -4 10 -12q-10 -5 -19 -4q6 -11 14 -15 q-8 -25 -13 -117q-2 3 -13 15q1 1 2 1h-2q-4 4 -7 8q1 2 1 4q-1 -1 -2 -3q-18 26 -16 70q3 98 -31 147q23 -58 8 -139q-6 -35 18 -89q-12 5 -12 16q-2 -19 9 -30q4 -4 8 -10q-8 -3 -14 -2q4 -8 10 -11q-6 -18 -8 -50q-13 7 -29 14q-1 9 0 19q3 73 -23 109q17 -43 6 -103 q-1 -7 -1 -17q-6 3 -4 2q-43 60 -51 140q-12 111 -55 169q36 -95 39 -177q2 -33 31 -116q-31 17 -34 50q-11 148 -97 309q-15 27 -91 95q-68 60 -71 86q-3 28 -32 62q-42 49 -60 82q-43 77 -114 60q27 44 -38 110q-7 8 -60 24q-47 15 -69 53q-24 42 -100 30q-23 -4 -56 -13 q-34 -10 -39 -11q-19 -3 -74 -58q-66 -66 -77 -74q-15 -11 -21 -61q-7 -53 -50 -93q-47 -45 -42 -91q3 -22 15 -36q-86 49 -102 44q-44 -15 -81 -110q-27 -68 -119 -110q-38 -18 -71 -90q-1 12 -4 20q-18 64 -10 150q-24 -59 -6 -149q6 -29 5 -55q-7 -19 -23 -63l-2 4 q-25 43 -21 82q-14 -37 7 -92q5 -12 6 -22q-6 -16 -20 -24q-13 33 -24 46q5 5 7 13q-6 -3 -14 -3q2 6 4 10q8 12 2 26q2 -8 -8 -16q9 49 -7 75q-34 57 -28 110q-19 -49 10 -124q13 -34 3 -59q-2 1 -3 1l2 -2q-1 -4 -4 -9q-1 0 -1 -1h1q-6 -13 -8 -16q-28 70 -42 87q6 6 9 16 q-8 -4 -19 -3q3 7 6 13q11 17 2 35q4 -15 -18 -27q-6 10 -16 19q4 -11 9 -21q-6 6 -19 12q8 -10 14 -15q-9 0 -19 -1q11 -5 20 -8v-1q-15 6 -18 -12q4 6 10 3q1 0 8 -5q6 -5 12 -8q7 -3 12 -1q16 -19 25 -45t17 -58q-1 -5 -2 -9q-8 9 -17 19v4q-1 -1 -1 -3l-28 35 q-9 -29 18 -79h-14q-40 62 -38 126q-22 -51 16 -118q-3 6 1 -2q-10 5 -16 9q1 -9 10 -21l-4 -2q-26 28 -44 63q5 -31 37 -69q-4 -4 -7 -10q-2 -3 -5 -8q-29 51 -46 66q-44 39 -76 102q7 -50 63 -107q36 -37 46 -79q-4 -5 -8 -9q-3 1 -2 1q-39 21 -54 49q6 -29 46 -60 q-9 -8 -21 -18q-4 2 -8 3q2 5 0 11q-3 -4 -10 -7q-1 5 -1 9q1 11 -10 19q5 -5 1 -14q-16 37 -40 50q-53 28 -73 67q8 -41 65 -83q25 -19 29 -41h-2q1 -1 2 -1q1 -4 1 -8h-1h1q1 -12 2 -14q-55 39 -74 45q3 7 0 15q-5 -5 -13 -9q-2 6 -1 11q0 16 -15 26q10 -9 -2 -25 q-9 4 -22 7q9 -7 17 -12q-7 3 -20 2q11 -4 18 -6q-8 -2 -14 -7q10 1 19 2q0 -1 1 -1q-15 -1 -10 -15q1 6 7 6q1 0 9 -1q7 -1 13 -1t10 3q21 -8 40 -22q19 -16 40 -35q1 -2 2 -5q0 -1 -1 -1v-1q-32 11 -60 22q5 -19 38 -41q-8 -9 -14 -17q-13 0 -21 1q4 -5 15 -10 q-3 -5 -2 -2q-7 -14 -46 -64q-29 -36 -138 -143zM346 -66q5 0 8 2l6 -2q-5 -4 -11 -9q-2 5 -3 9zM541 19q-1 19 6 52q5 -3 9 -1q12 -15 18 -33q2 -6 5 -14q-9 -3 -21 -4q-4 5 -6 8q-1 -3 -1 -9q-5 0 -10 1zM2208 1448q68 1 123 25q-23 -21 -52 -32q-25 3 -58 6q-4 0 -13 1z M2230 -120q0 24 7 45q4 1 8 5v1q19 -39 24 -63q-4 -10 -6 -20q-2 21 -8 30q-2 -7 -6 -19q-9 7 -19 14v7zM2288 1440q49 4 91 25q54 26 96 4q-41 -28 -66 -10q28 -21 60 -16q24 4 15 -10q-29 -19 -61 -11q31 -20 63 -14q14 3 22 -31q-92 48 -220 63zM2443 -198q6 11 10 19 q10 18 24 32q3 -2 8 0q-1 -29 -5 -47q-4 -1 -9 -1q1 3 1 5q-3 -2 -6 -6q-12 -1 -23 -2zM2488 1535q9 -2 16 -3q47 -4 76 -18q0 -4 -2 -15q-32 11 -68 12q31 -12 65 -38q-7 -51 -17 -102q-8 33 -21 65q-28 67 -49 99zM2507 -116q-3 27 16 59q11 19 19 38q3 -33 8 -65 q-8 -10 -37 -60q-1 3 -4 17h2q-1 0 -2 1q-1 5 -1 9l2 2q-1 0 -3 -1zM2514 -174q1 5 1 9q13 31 27 57q4 8 9 15q3 -21 7 -40q-23 -23 -44 -41zM2528 1143q13 23 22 50q5 -42 5 -56q0 -6 2 -12q-5 3 -9 6q-9 8 -20 12zM2543 -187q12 18 18 35q3 -18 6 -34q-9 0 -24 -1z M2565 1229q-1 33 8 71q17 -9 32 -20q-9 -26 -15 -56q-12 4 -25 5zM2583 1336q6 18 14 38q8 19 31 43q8 -12 13 -24q-18 -39 -25 -79q-15 12 -33 22zM2612 1216q1 4 2 9q0 -6 1 -11q1 0 -3 2zM2654 1501q23 10 58 14q-9 -13 -20 -32l-30 -8zM2656 1225q4 -6 7 -13l-2 -8 q-3 11 -5 21zM2665 1269l4 10q1 -8 1 -16q-2 3 -5 6zM2669 1452q4 3 9 6q-7 -12 -8 -12q0 2 -1 6zM2675 1166q1 2 2 5q2 -7 3 -15q-2 5 -5 10zM2692 1231q5 37 0 80q10 12 24 25q13 12 32 19q30 -9 44 -44q-49 -35 -84 -114q-6 17 -16 34zM2727 1145q29 93 78 132 q17 -39 56 -59q24 -12 44 -26q-18 -5 -36 -11q-72 -22 -131 -67q1 20 -11 31zM2817 1286q33 21 73 19q101 -5 135 -94q-36 4 -110 -16q-19 14 -44 29q-37 21 -54 62zM2829 1543q15 25 91 6l-30 -15q-38 10 -61 9zM2959 1536h1h-1zM3144 1037q9 0 22 6q42 -24 73 -48 q-43 5 -84 28q-7 8 -11 14zM3237 930q31 -5 61 7q16 -21 20 -37q-42 7 -81 30zM3245 962q12 2 25 6q8 -7 15 -14q-20 1 -40 8z" />
<glyph unicode="|" horiz-adv-x="491" d="M100 -204l261 9l25 1771l-252 9z" />
<glyph unicode="}" horiz-adv-x="3075" d="M-169 -516l23 -143h3193v129l-24 128q-2 9 -3 14q-3 13 -8 27t-6 20q-4 19 14 60q17 42 -9 70q-9 10 -33 27q-30 22 -42 33q-34 29 -134 -5q-40 -13 -85 -53q-34 -31 -36 -26q-5 17 -107 42q-16 4 -35 76q-21 77 -11 128q8 43 -26 48q-50 8 -58 17q-35 42 -50 85 q-11 6 -19 13q-22 18 -32 105q-29 25 -33 29q-16 16 -14 63q3 62 0 76q-6 28 -25 39q-41 22 -40 22q-19 15 -42 -2q-16 -11 -46 -50q-33 -41 -32 -69q-89 13 -149 -14q-22 -10 -96 27q-78 40 -99 38q-42 -4 -103 -40q10 70 13 138q7 -22 15 -37q-11 102 3 209q9 -44 37 -93 q-15 102 -8 164q1 5 1 9q0 12 6 18q4 -17 8 -60q3 -39 11 -60q0 45 -2 90q-6 44 -15 89l24 -54q-6 43 -22 99q0 2 -2 6q2 16 -27 41q-24 20 -36 47q27 7 62 12q40 5 85 -12q0 -5 0 -4q-1 -59 20 -104q-3 32 6 66q3 -103 62 -180q-34 88 -19 142q24 -106 125 -150 q-65 49 -86 119q17 -6 71 -69q54 -62 123 -50q-60 0 -101 72q42 -16 90 -6q6 -1 10 -2q-1 0 -6 3q19 5 31 11q-30 -2 -58 5q-21 14 -41 31l12 2q95 -50 257 -83l-185 110q150 -29 312 -179q-53 88 -163 198q1 -1 5 -4q43 -32 87 -63q-7 40 -78 108q-71 67 -162 70l91 -3 q-62 40 -241 39q-38 0 -65 -1q-33 37 -49 42q-35 12 -134 0q-26 -3 -50 -10q24 33 72 66q63 44 152 20q-47 32 -90 31q25 25 105 -19q80 -45 183 -14q-53 -1 -106 18q81 -17 260 35l-177 9q121 37 296 -10q-72 44 -195 81q3 0 5 -1q44 -7 88 -13q-20 27 -98 49t-146 -11 l68 33q-61 5 -191 -64q-124 -66 -217 -166q-17 -18 -30 -37q6 30 19 67q29 84 125 124q-64 -3 -102 -34q6 41 108 55q101 13 174 113q-47 -37 -107 -56q84 40 213 211l-166 -113q86 117 275 194q-94 -9 -230 -58l6 3q44 23 88 48q-36 11 -121 -22t-125 -111l40 78 q-58 -38 -131 -191q-24 -50 -37 -81l-8 -7q42 122 17 171q-16 -61 -41 -107q-6 37 19 115q23 71 24 70q-124 -103 -125 -103q1 2 2 3q11 26 18 53q-39 -10 -70 -53q-26 -36 4 -89q-15 23 -35 45q0 -22 11 -51q-30 35 -100 102q-126 121 -197 135l67 -60q-67 60 -162 60 q-96 0 -128 -24q52 -7 104 -13q3 -1 7 -1q-152 -3 -248 -30q214 -3 340 -84l-204 47q188 -118 285 -124q-66 -5 -126 14q13 -9 34 -19q-127 -2 -188 -46h85q-85 0 -185 -97t-127 -157q56 44 112 90q4 3 7 6q-158 -158 -251 -287q217 207 370 247q1 0 3 -1l-221 -150 q203 50 313 132q6 1 4 1q-66 -65 -121 -98q64 14 138 70q78 1 132 50q-15 -44 -83 -90q83 27 135 97q-9 -28 -27 -48q38 21 66 63t69 44q-19 -37 -45 -36q30 -3 51 14q17 13 15 -1q-13 -26 -40 -33q12 -1 26 3q-6 -12 -13 -38q-8 -28 -13 -41q-156 -6 -314 -80 q-165 -77 -205 -149l82 43q-82 -43 -119 -149q-36 -107 -25 -156q27 54 52 110l4 6q-55 -171 -66 -293q85 238 211 336l-123 -203q184 147 227 253q-21 -76 -61 -134q108 84 123 215q16 131 60 133q-34 -45 -37 -129q43 122 133 149q20 6 37 10q-11 -15 -26 -26 q-91 -67 -87 -115q8 51 97 109q22 14 36 36q88 14 145 -30q-25 -26 -45 -56q-12 0 -30 -8q-24 -10 -39 -13q9 -10 41 2q-5 -8 -26 -17q-33 -13 -72 -4q19 -21 34 -26q-4 -2 -9 -4q-61 -10 -109 18q15 -21 44 -34q-30 -1 -52 12q15 -24 51 -28q-57 -10 -105 13q31 -36 84 -39 q-51 -33 -92 -16q43 -27 100 -4t71 22q-37 -37 -97 -49q55 -1 98 27h20h2q-16 -26 -45 -52q34 17 66 49q19 -5 33 -17v8q-2 12 -3 22q2 -1 -1 0l3 3l1 -25q1 -8 1 -9v1h-1l1 -7q3 -2 1 -1q2 -8 1 -3q30 -160 42 -193q-4 81 -21 244q4 1 20 -121q18 -131 12 -187 q26 129 17 223q48 -166 6 -300q45 71 46 215q4 -18 7 -45q0 -236 -83 -425q-31 -72 -58 -121q-6 8 -3 15q-7 -11 -4 -23q1 0 1 -2q-1 -2 -3 -5q-4 1 -6 2q0 -5 2 -9q0 -1 -3 -5q-8 -10 -32 -48q0 2 -2 10h1l-1 1q-1 3 -1 5q1 1 1 2q-1 0 -1 -1q-3 17 9 37q27 45 23 77 q-4 -33 -31 -67q-12 -15 -15 -46q-4 5 -2 10q-5 -8 -2 -17q1 -2 1 -6q-5 1 -8 3q1 -5 3 -8q-8 -8 -19 -26q-6 -1 -10 -2q-3 14 7 30q19 33 16 57q-3 -25 -23 -50l-6 -10q-6 42 11 83q22 55 17 93q-7 -54 -27 -93q-7 -15 -14 -58q-8 -51 -10 -61q-6 -3 -3 -2l-10 -4 q-5 35 7 65q17 41 13 69q-5 -40 -19 -69q-5 -10 -14 -66q-7 11 1 45q21 33 17 52q-3 -5 -8 -11q0 3 0 2q9 58 -15 90q16 -50 1 -108q-5 -6 -9 -11q11 54 -3 76q-4 -14 -10 -32q-1 1 -1 2q0 -1 1 -3q-4 -10 -7 -19q-1 3 -3 6q-2 26 -2 47q1 21 7 39q3 0 6 4q4 3 7 8t3 6 q3 4 8 0q-7 13 -15 4v1l11 11q-6 -1 -12 -4q3 5 6 14q-7 -7 -9 -13q1 8 1 18q-4 -10 -6 -18q-17 3 -17 15q-2 -16 8 -25q4 -3 7 -8q-7 -3 -12 -3q3 -6 9 -9q-6 -16 -9 -74q-1 2 -8 10q1 0 1 1l-1 -1q-3 3 -4 6v2q0 -1 -1 -2q-12 17 -11 44q3 62 -19 92q14 -36 5 -87 q-4 -22 11 -56q-7 4 -8 10q-1 -11 7 -19q2 -2 4 -5q-4 -3 -9 -2q3 -5 7 -7q-4 -12 -6 -55q-18 24 -18 45q2 45 -14 68q10 -27 4 -64q-2 -7 -1 -14q-30 40 -36 91q-7 70 -34 107q23 -60 25 -111q1 -21 27 -94q22 -62 12 -69v1q-36 77 -37 83q-5 51 -25 78q17 -44 18 -82 q1 -13 23 -76q-6 3 -39 97q-23 66 -65 85q56 -54 66 -140q3 -19 8 -34q-1 0 -1 1q-4 12 -7 22q-17 48 -49 62q32 -30 45 -80q-31 12 -71 6q-39 -5 -61 -23q-9 -9 -25 -27q-15 -18 -22 -24q-26 -22 -55 4q-25 23 -67 5q-42 -19 -53 -9q-62 51 -93 143q-14 44 -48 50 q-17 3 -31 -3q-65 106 -97 120q-15 6 -39 -20q-32 -35 -77 -45q-48 -10 -130 -83q-151 -134 -144 -125q-79 -100 -120 -237q-8 -24 -77 -107zM1002 1155l7 2l-4 -3q-1 0 -3 1zM1132 1121q17 14 33 30q30 5 38 3q-27 -20 -71 -33zM1218 22q0 16 5 29q3 0 5 3q12 -24 16 -39 q-3 -6 -5 -12q-1 13 -5 19q-5 -19 -12 -39q-1 3 -3 5q-1 18 -1 34zM1226 1222l4 4q1 -1 3 -1q-2 -1 -7 -3zM1236 -35l2 10l2 -6zM1250 1251q11 12 20 22q7 -5 18 -5q-8 -8 -14 -15q-11 -2 -24 -2zM1273 1275q55 55 73 42q-18 -10 -46 -37q-13 -3 -27 -5zM1359 -17l2 3 q6 11 15 19q2 0 5 1q0 -12 -1 -20q-12 -2 -21 -3zM1377 1283q26 6 48 0q78 -21 106 -75q-18 11 -39 9q-6 0 -12 -1q-7 6 -13 11q-59 44 -90 56zM1377 1377q87 15 104 -17q-29 10 -71 4q-16 8 -33 13zM1405 1093q29 82 49 93q6 -4 38 -40q25 -28 -26 -36q36 -7 49 7 q9 -22 14 -50q-54 27 -124 26zM1450 1338q55 -19 86 -56l10 -12q2 -11 5 -25q-19 30 -47 52q-43 33 -54 41zM1453 851v8v1l1 -6q-1 -1 -1 -3zM1505 1193q23 -4 41 -29q2 -14 3 -29q-18 32 -44 58zM1586 1266q15 18 66 32q10 3 20 8q-20 -54 -36 -181l-1 -2q-4 54 -33 112 q49 58 54 51l-65 -29q-3 4 -5 9zM1600 1088q1 -2 1 -3t2 -3l-1 -1q-1 3 -2 7zM1657 1057q45 15 52 17q16 3 18 -8q1 -6 4 -11q-19 -6 -70 -24q-3 12 -4 26zM1749 1060q-1 9 0 16q7 15 14 -8q0 -1 1 -3q-8 -2 -15 -5zM1782 1069q0 10 1 17q6 -4 13 -14q-7 -1 -14 -3z M1893 1082z" />
<glyph unicode="~" horiz-adv-x="811" d="M106 1310l52 -140l172 73l135 -100l221 53l-44 128l-157 -26l-134 99z" />
<glyph unicode="&#xa1;" horiz-adv-x="565" d="M-385 -483q10 -16 42 -38q46 -32 98 -138h1260q46 242 65 252q32 17 -32 162q-72 27 -191 101q-115 -38 -131 -34q-18 4 -126 -47q-49 63 -73 57q-34 -9 -44 6q-32 48 -111 -41q-75 56 -115 34q-35 -19 -87 -23q-86 -62 -103 -72q-15 -10 -46 -4q-6 1 -30 6q-19 5 -31 7 q-40 6 -70 -7q-39 -17 -113 83q-29 -44 -89 -82q-58 -38 -62 -202q-21 -2 -11 -20zM42 -330l31 4l8 447l574 26l-9 -449l31 1l9 489l-3 -1l10 362l-4 -1l10 362h-9l10 343l-615 -27l-9 -338h-1l-10 -368h-2l-9 -369h-1zM84 160l9 323l568 25l-9 -322zM95 521l10 322l563 26 l-9 -322zM105 882l10 304l554 26l-8 -304zM158 -26l339 -6l-9 1066l-286 4zM184 1428l16 -287l285 -4l5 286z" />
<glyph unicode="&#xa2;" horiz-adv-x="826" d="M74 385l170 -178l46 -3l-21 -124l137 -20l24 136l117 -6l188 159v116l-209 18l-12 -47l-50 -45l61 342l224 -8l1 158l-140 159l-30 1l23 135l-143 42l-28 -170l-130 6l-200 -166zM297 448l18 326l57 77h26l-72 -434z" />
<glyph unicode="&#xa3;" horiz-adv-x="811" />
<glyph unicode="&#xa4;" horiz-adv-x="811" />
<glyph unicode="&#xa5;" horiz-adv-x="1010" />
<glyph unicode="&#xa6;" horiz-adv-x="811" />
<glyph unicode="&#xa7;" horiz-adv-x="811" />
<glyph unicode="&#xa8;" horiz-adv-x="634" d="M66 1215h169v167h-169v-167zM375 1215h169v167h-169v-167z" />
<glyph unicode="&#xa9;" horiz-adv-x="1211" d="M92 530l245 -289l525 -27l228 274l-26 467l-260 231l-409 27l-276 -247zM294 598l19 294l152 136l275 -18l148 -132l19 -333l-107 -128l-367 18zM400 602l97 -96l179 -9l112 85v62l-125 10l-9 -25l-30 -25l-61 -3l-35 34l10 174l33 41l53 1l20 -28v-35l142 -5l1 84 l-80 85l-177 7l-114 -88z" />
<glyph unicode="&#xaa;" horiz-adv-x="518" />
<glyph unicode="&#xab;" horiz-adv-x="755" />
<glyph unicode="&#xac;" horiz-adv-x="811" />
<glyph unicode="&#xad;" horiz-adv-x="594" d="M28 679l496 -35l6 271l-484 30z" />
<glyph unicode="&#xae;" horiz-adv-x="1257" d="M142 525l219 -263l504 26l235 277l-26 419l-265 237l-393 -26l-248 -221zM314 571l19 332l146 131l274 18l151 -136l18 -292l-137 -163l-365 -19zM480 544l103 -1l2 129h28l61 -131l109 3l-80 152l65 47l-1 152l-96 73l-185 -3zM580 884h58l34 -26l3 -70l-36 -25l-58 -3z " />
<glyph unicode="&#xaf;" horiz-adv-x="536" />
<glyph unicode="&#xb0;" horiz-adv-x="428" d="M74 1228l65 -76l139 -7l60 72l-7 124l-69 61l-108 7l-73 -66zM142 1251l4 61l32 29l57 -4l31 -28l4 -70l-22 -27l-77 4z" />
<glyph unicode="&#xb1;" horiz-adv-x="811" />
<glyph unicode="&#xb2;" horiz-adv-x="811" />
<glyph unicode="&#xb3;" horiz-adv-x="811" />
<glyph unicode="&#xb4;" horiz-adv-x="658" d="M108 1225l125 -170l304 184l-119 170z" />
<glyph unicode="&#xb5;" horiz-adv-x="944" />
<glyph unicode="&#xb6;" horiz-adv-x="819" />
<glyph unicode="&#xb7;" horiz-adv-x="446" d="M37 446l331 -13l13 357h-331z" />
<glyph unicode="&#xb8;" horiz-adv-x="454" d="M67 -326l3 -161l350 227l-174 200l-13 220l-144 -2l-10 -5l8 -250l153 -120z" />
<glyph unicode="&#xb9;" horiz-adv-x="811" />
<glyph unicode="&#xba;" horiz-adv-x="574" />
<glyph unicode="&#xbb;" horiz-adv-x="413" />
<glyph unicode="&#xbc;" horiz-adv-x="1366" />
<glyph unicode="&#xbd;" horiz-adv-x="811" />
<glyph unicode="&#xbe;" horiz-adv-x="1366" />
<glyph unicode="&#xbf;" horiz-adv-x="963" d="M-272 -576q10 -13 46 -32q29 -16 60 -51h1504q37 110 54 116q36 13 -33 125q-81 24 -213 88q-132 -30 -150 -26q-20 4 -144 -36q-54 53 -81 48q-39 -6 -50 6q-35 40 -102 8q-84 49 -130 31q-40 -15 -125 -57q-99 -49 -117 -57t-54 -2q-5 0 -33 6q-21 4 -36 5 q-44 6 -79 -4q-45 -13 -125 71q-35 -35 -104 -66q-67 -29 -76 -156q-23 -2 -12 -17zM108 522l17 -467l238 -225l375 11l221 274l-27 253l-279 -8l12 -194l-43 -61l-165 -5l-59 59l-12 241l248 176l4 305l-283 -8l-4 -181zM184 -485l29 -1l3 514l533 21l-3 -512l28 2l4 548 h-1l-1 335h-1v336h-1v330l-572 -21v-323l-8 1v-341l-3 4v-339h-3zM219 64v305l529 22v-305zM222 406v305l525 22v-305zM230 748v288l516 21v-288zM324 1249l27 -279l279 8l-8 279z" />
<glyph unicode="&#xc0;" horiz-adv-x="1242" d="M-553 -434q2 -3 15 -23q5 -129 10 -202h1722q8 12 14 23q22 40 33 51q37 35 40 66t-24 94q-31 205 -49 221q-49 43 -94 37q-21 -2 -51 -42q-30 -38 -44 -38t-53 10q-39 9 -58 9q-18 0 -45 30q-24 27 -37 22q-15 -6 -23 -20q-11 -18 -16 -23q-15 -13 -51 -33 q-40 -23 -54 -23q-2 0 -38 -14q-29 -2 -51 -2q-63 -120 -87 25q-45 27 -64 35q-37 15 -54 3q-18 -13 -63 -26q-41 -12 -58 -12q-7 0 -26 14q-17 13 -36 10q-21 -3 -52 11q-25 11 -36 22l-11 13q-10 10 -18 17q-24 21 -43 12q-13 -6 -28 -23q-15 -16 -34 -24q-21 -8 -37 -3 q-25 8 -35 8q-21 0 -30 -8q-3 -2 -10 -10q-8 -9 -15 -15q-18 -16 -32 -17q-8 -1 -34 7q-1 1 -32 16q-13 7 -27 -1q-31 -20 -62 9q-9 9 -7 11q1 1 -12 8q-26 14 -39 23q-7 10 -27 -4q-2 -2 -13 -20q-5 -9 -32 -9q-26 0 -42 7q-12 5 -17 3q-12 -4 -28 -42q-16 -170 -5 -183z M51 0l319 10l43 236l368 17l61 -230l349 20l-432 1258l-443 -39zM132 1111l24 -315l-12 -1l26 -333l-5 -1l26 -333h-5l35 -537l41 3l-33 501l752 65l33 -498l40 3l-35 535h-2l-26 333h-1l-26 332h-1l-24 316zM174 1080l728 62l22 -280l-729 -63zM187 763l740 63l23 -297 l-740 -64zM208 429l746 65l23 -298l-746 -64zM330 1560l304 -184l125 170l-310 184zM474 577l62 395l69 11l88 -386z" />
<glyph unicode="&#xc1;" horiz-adv-x="1242" d="M-553 -434q2 -3 15 -23q5 -129 10 -202h1722q8 12 14 23q22 40 33 51q37 35 40 66t-24 94q-31 205 -49 221q-49 43 -94 37q-21 -2 -51 -42q-30 -38 -44 -38t-53 10q-39 9 -58 9q-18 0 -45 30q-24 27 -37 22q-15 -6 -23 -20q-11 -18 -16 -23q-15 -13 -51 -33 q-40 -23 -54 -23q-2 0 -38 -14q-29 -2 -51 -2q-63 -120 -87 25q-45 27 -64 35q-37 15 -54 3q-18 -13 -63 -26q-41 -12 -58 -12q-7 0 -26 14q-17 13 -36 10q-21 -3 -52 11q-25 11 -36 22l-11 13q-10 10 -18 17q-24 21 -43 12q-13 -6 -28 -23q-15 -16 -34 -24q-21 -8 -37 -3 q-25 8 -35 8q-21 0 -30 -8q-3 -2 -10 -10q-8 -9 -15 -15q-18 -16 -32 -17q-8 -1 -34 7q-1 1 -32 16q-13 7 -27 -1q-31 -20 -62 9q-9 9 -7 11q1 1 -12 8q-26 14 -39 23q-7 10 -27 -4q-2 -2 -13 -20q-5 -9 -32 -9q-26 0 -42 7q-12 5 -17 3q-12 -4 -28 -42q-16 -170 -5 -183z M51 0l319 10l43 236l368 17l61 -230l349 20l-432 1258l-443 -39zM132 1111l24 -315l-12 -1l26 -333l-5 -1l26 -333h-5l35 -537l41 3l-33 501l752 65l33 -498l40 3l-35 535h-2l-26 333h-1l-26 332h-1l-24 316zM174 1080l728 62l22 -280l-729 -63zM187 763l740 63l23 -297 l-740 -64zM208 429l746 65l23 -298l-746 -64zM322 1557l125 -170l304 184l-119 170zM474 577l62 395l69 11l88 -386z" />
<glyph unicode="&#xc2;" horiz-adv-x="1242" d="M-553 -434q2 -3 15 -23q5 -129 10 -202h1722q8 12 14 23q22 40 33 51q37 35 40 66t-24 94q-31 205 -49 221q-49 43 -94 37q-21 -2 -51 -42q-30 -38 -44 -38t-53 10q-39 9 -58 9q-18 0 -45 30q-24 27 -37 22q-15 -6 -23 -20q-11 -18 -16 -23q-15 -13 -51 -33 q-40 -23 -54 -23q-2 0 -38 -14q-29 -2 -51 -2q-63 -120 -87 25q-45 27 -64 35q-37 15 -54 3q-18 -13 -63 -26q-41 -12 -58 -12q-7 0 -26 14q-17 13 -36 10q-21 -3 -52 11q-25 11 -36 22l-11 13q-10 10 -18 17q-24 21 -43 12q-13 -6 -28 -23q-15 -16 -34 -24q-21 -8 -37 -3 q-25 8 -35 8q-21 0 -30 -8q-3 -2 -10 -10q-8 -9 -15 -15q-18 -16 -32 -17q-8 -1 -34 7q-1 1 -32 16q-13 7 -27 -1q-31 -20 -62 9q-9 9 -7 11q1 1 -12 8q-26 14 -39 23q-7 10 -27 -4q-2 -2 -13 -20q-5 -9 -32 -9q-26 0 -42 7q-12 5 -17 3q-12 -4 -28 -42q-16 -170 -5 -183z M51 0l319 10l43 236l368 17l61 -230l349 20l-432 1258l-443 -39zM132 1111l24 -315l-12 -1l26 -333l-5 -1l26 -333h-5l35 -537l41 3l-33 501l752 65l33 -498l40 3l-35 535h-2l-26 333h-1l-26 332h-1l-24 316zM174 1080l728 62l22 -280l-729 -63zM187 763l740 63l23 -297 l-740 -64zM208 429l746 65l23 -298l-746 -64zM261 1392l216 -8l69 112l64 -119l233 -8l-165 324l-241 9zM474 577l62 395l69 11l88 -386z" />
<glyph unicode="&#xc3;" horiz-adv-x="1242" d="M-553 -434q2 -3 15 -23q5 -129 10 -202h1722q8 12 14 23q22 40 33 51q37 35 40 66t-24 94q-31 205 -49 221q-49 43 -94 37q-21 -2 -51 -42q-30 -38 -44 -38t-53 10q-39 9 -58 9q-18 0 -45 30q-24 27 -37 22q-15 -6 -23 -20q-11 -18 -16 -23q-15 -13 -51 -33 q-40 -23 -54 -23q-2 0 -38 -14q-29 -2 -51 -2q-63 -120 -87 25q-45 27 -64 35q-37 15 -54 3q-18 -13 -63 -26q-41 -12 -58 -12q-7 0 -26 14q-17 13 -36 10q-21 -3 -52 11q-25 11 -36 22l-11 13q-10 10 -18 17q-24 21 -43 12q-13 -6 -28 -23q-15 -16 -34 -24q-21 -8 -37 -3 q-25 8 -35 8q-21 0 -30 -8q-3 -2 -10 -10q-8 -9 -15 -15q-18 -16 -32 -17q-8 -1 -34 7q-1 1 -32 16q-13 7 -27 -1q-31 -20 -62 9q-9 9 -7 11q1 1 -12 8q-26 14 -39 23q-7 10 -27 -4q-2 -2 -13 -20q-5 -9 -32 -9q-26 0 -42 7q-12 5 -17 3q-12 -4 -28 -42q-16 -170 -5 -183z M51 0l319 10l43 236l368 17l61 -230l349 20l-432 1258l-443 -39zM132 1111l24 -315l-12 -1l26 -333l-5 -1l26 -333h-5l35 -537l41 3l-33 501l752 65l33 -498l40 3l-35 535h-2l-26 333h-1l-26 332h-1l-24 316zM174 1080l728 62l22 -280l-729 -63zM187 763l740 63l23 -297 l-740 -64zM208 429l746 65l23 -298l-746 -64zM216 1537l60 -146l199 76l154 -103l255 55l-50 133l-182 -27l-154 103zM474 577l62 395l69 11l88 -386z" />
<glyph unicode="&#xc4;" horiz-adv-x="1242" d="M-553 -434q2 -3 15 -23q5 -129 10 -202h1722q8 12 14 23q22 40 33 51q37 35 40 66t-24 94q-31 205 -49 221q-49 43 -94 37q-21 -2 -51 -42q-30 -38 -44 -38t-53 10q-39 9 -58 9q-18 0 -45 30q-24 27 -37 22q-15 -6 -23 -20q-11 -18 -16 -23q-15 -13 -51 -33 q-40 -23 -54 -23q-2 0 -38 -14q-29 -2 -51 -2q-63 -120 -87 25q-45 27 -64 35q-37 15 -54 3q-18 -13 -63 -26q-41 -12 -58 -12q-7 0 -26 14q-17 13 -36 10q-21 -3 -52 11q-25 11 -36 22l-11 13q-10 10 -18 17q-24 21 -43 12q-13 -6 -28 -23q-15 -16 -34 -24q-21 -8 -37 -3 q-25 8 -35 8q-21 0 -30 -8q-3 -2 -10 -10q-8 -9 -15 -15q-18 -16 -32 -17q-8 -1 -34 7q-1 1 -32 16q-13 7 -27 -1q-31 -20 -62 9q-9 9 -7 11q1 1 -12 8q-26 14 -39 23q-7 10 -27 -4q-2 -2 -13 -20q-5 -9 -32 -9q-26 0 -42 7q-12 5 -17 3q-12 -4 -28 -42q-16 -170 -5 -183z M51 0l319 10l43 236l368 17l61 -230l349 20l-432 1258l-443 -39zM132 1111l24 -315l-12 -1l26 -333l-5 -1l26 -333h-5l35 -537l41 3l-33 501l752 65l33 -498l40 3l-35 535h-2l-26 333h-1l-26 332h-1l-24 316zM174 1080l728 62l22 -280l-729 -63zM187 763l740 63l23 -297 l-740 -64zM208 429l746 65l23 -298l-746 -64zM291 1415h169v167h-169v-167zM474 577l62 395l69 11l88 -386zM600 1415h169v167h-169v-167z" />
<glyph unicode="&#xc5;" horiz-adv-x="1242" d="M-553 -434q2 -3 15 -23q5 -129 10 -202h1722q8 12 14 23q22 40 33 51q37 35 40 66t-24 94q-31 205 -49 221q-49 43 -94 37q-21 -2 -51 -42q-30 -38 -44 -38t-53 10q-39 9 -58 9q-18 0 -45 30q-24 27 -37 22q-15 -6 -23 -20q-11 -18 -16 -23q-15 -13 -51 -33 q-40 -23 -54 -23q-2 0 -38 -14q-29 -2 -51 -2q-63 -120 -87 25q-45 27 -64 35q-37 15 -54 3q-18 -13 -63 -26q-41 -12 -58 -12q-7 0 -26 14q-17 13 -36 10q-21 -3 -52 11q-25 11 -36 22l-11 13q-10 10 -18 17q-24 21 -43 12q-13 -6 -28 -23q-15 -16 -34 -24q-21 -8 -37 -3 q-25 8 -35 8q-21 0 -30 -8q-3 -2 -10 -10q-8 -9 -15 -15q-18 -16 -32 -17q-8 -1 -34 7q-1 1 -32 16q-13 7 -27 -1q-31 -20 -62 9q-9 9 -7 11q1 1 -12 8q-26 14 -39 23q-7 10 -27 -4q-2 -2 -13 -20q-5 -9 -32 -9q-26 0 -42 7q-12 5 -17 3q-12 -4 -28 -42q-16 -170 -5 -183z M51 0l319 10l43 236l368 17l61 -230l349 20l-432 1258l-443 -39zM132 1111l24 -315l-12 -1l26 -333l-5 -1l26 -333h-5l35 -537l41 3l-33 501l752 65l33 -498l40 3l-35 535h-2l-26 333h-1l-26 332h-1l-24 316zM174 1080l728 62l22 -280l-729 -63zM187 763l740 63l23 -297 l-740 -64zM208 429l746 65l23 -298l-746 -64zM399 1441l65 -76l139 -7l60 72l-7 124l-69 61l-108 7l-73 -66zM467 1464l4 61l32 29l57 -4l31 -28l4 -70l-22 -27l-77 4zM474 577l62 395l69 11l88 -386z" />
<glyph unicode="&#xc6;" horiz-adv-x="1657" d="M-553 -434q2 -3 15 -23q5 -129 10 -202h1722q8 12 14 23q22 40 33 51q37 35 40 66t-24 94q-31 205 -49 221q-49 43 -94 37q-21 -2 -51 -42q-30 -38 -44 -38t-53 10q-39 9 -58 9q-18 0 -45 30q-24 27 -37 22q-15 -6 -23 -20q-11 -18 -16 -23q-15 -13 -51 -33 q-40 -23 -54 -23q-2 0 -38 -14q-29 -2 -51 -2q-63 -120 -87 25q-45 27 -64 35q-37 15 -54 3q-18 -13 -63 -26q-41 -12 -58 -12q-7 0 -26 14q-17 13 -36 10q-21 -3 -52 11q-25 11 -36 22l-11 13q-10 10 -18 17q-24 21 -43 12q-13 -6 -28 -23q-15 -16 -34 -24q-21 -8 -37 -3 q-25 8 -35 8q-21 0 -30 -8q-3 -2 -10 -10q-8 -9 -15 -15q-18 -16 -32 -17q-8 -1 -34 7q-1 1 -32 16q-13 7 -27 -1q-31 -20 -62 9q-9 9 -7 11q1 1 -12 8q-26 14 -39 23q-7 10 -27 -4q-2 -2 -13 -20q-5 -9 -32 -9q-26 0 -42 7q-12 5 -17 3q-12 -4 -28 -42q-16 -170 -5 -183z M51 0l319 10l43 236l368 17l61 -230l349 20l-432 1258l-443 -39zM132 1111l24 -315l-12 -1l26 -333l-5 -1l26 -333h-5l35 -537l41 3l-33 501l752 65l33 -498l40 3l-35 535h-2l-26 333h-1l-26 332h-1l-24 316zM174 1080l728 62l22 -280l-729 -63zM187 763l740 63l23 -297 l-740 -64zM208 429l746 65l23 -298l-746 -64zM307 -423q26 -9 133 -224q84 -7 131 -12h1214q74 136 140 171q36 19 46 32q11 15 -12 17q-50 4 -117 33q-69 31 -104 66q-39 39 -84 52q-35 10 -79 4q-15 -1 -36 -5q-28 -6 -33 -6q-36 -6 -54 2t-117 57q-85 42 -125 57 q-46 18 -130 -31q-67 32 -102 -8q-11 -12 -50 -6q-27 5 -81 -48q-124 40 -144 36q-18 -4 -141 -63q-133 -64 -214 -88q-77 -23 -41 -36zM474 577l62 395l69 11l88 -386zM776 -406h34l26 448l639 13l-27 -450l35 1l28 489h-4l25 361h-4l24 362h-10l23 342l-685 -14l-23 -343 h-1l-24 -361h-2l-24 -362h-2zM840 81l22 323l633 13l-22 -323zM865 442l22 323l629 14l-22 -323zM869 0l709 24v265l-395 -12l12 255l385 15l-5 266l-381 -17l-1 221l384 13l4 281l-689 -26zM890 804l21 304l618 14l-21 -305z" />
<glyph unicode="&#xc7;" horiz-adv-x="1127" d="M-458 -652h2076q2 31 -26 92q-54 205 -73 221q-53 43 -102 37q-22 -2 -55 -42q-32 -38 -47 -38t-57 10q-43 9 -63 9q-19 0 -48 30q-26 27 -40 22q-16 -6 -25 -20q-12 -18 -17 -23q-16 -13 -55 -33q-43 -23 -58 -23q-3 0 -41 -14q-32 -2 -55 -2q-68 -120 -94 25 q-48 27 -69 35q-39 15 -58 3q-19 -13 -68 -26q-44 -12 -62 -12q-8 0 -28 14q-19 13 -39 10q-23 -3 -57 11q-26 11 -38 22l-12 13q-10 10 -19 17q-27 21 -47 12q-14 -6 -30 -23q-16 -16 -36 -24q-23 -8 -40 -3q-27 8 -38 8q-22 0 -32 -8q-4 -2 -11 -10q-9 -9 -17 -15 q-19 -16 -34 -17q-9 -1 -36 7q-1 1 -35 16q-14 7 -29 -1q-34 -20 -67 9q-10 9 -7 11q0 1 -14 8q-28 14 -42 23q-7 10 -28 -4q-2 -2 -14 -20q-6 -9 -35 -9q-28 0 -45 7q-13 5 -19 3q-12 -4 -29 -42q-70 -200 -85 -266zM80 1006l26 -766l281 -254l460 2l262 258l-15 176 l-320 8l-11 -73l-71 -75l-158 -19l-99 92l-18 495l76 121l143 11l61 -75l9 -101l372 9l-19 238l-233 229l-467 -8zM179 1090l2 -347l2 -365h-1l2 -366h-1l8 -492h37l-7 453l703 7l8 -455l38 1l-9 494h-4l-3 366h-4l-3 366h-11l-3 346zM216 1052l681 7l2 -308l-681 -7z M218 704l692 8l3 -326l-693 -8zM219 339l698 7l3 -326l-698 -8zM533 -204l1 -90l197 127l-97 112l-8 124l-81 -1l-5 -3l4 -140l86 -68z" />
<glyph unicode="&#xc8;" horiz-adv-x="954" d="M-390 -423q26 -9 133 -224q84 -7 131 -12h1214q74 136 140 171q36 19 46 32q11 15 -12 17q-50 4 -117 33q-69 31 -104 66q-39 39 -84 52q-35 10 -79 4q-15 -1 -36 -5q-28 -6 -33 -6q-36 -6 -54 2t-117 57q-85 42 -125 57q-46 18 -130 -31q-67 32 -102 -8q-11 -12 -50 -6 q-27 5 -81 -48q-124 40 -144 36q-18 -4 -141 -63q-133 -64 -214 -88q-77 -23 -41 -36zM79 -406h34l26 448l639 13l-27 -450l35 1l28 489h-4l25 361h-4l24 362h-10l23 342l-685 -14l-23 -343h-1l-24 -361h-2l-24 -362h-2zM143 81l22 323l633 13l-22 -323zM168 442l22 323 l629 14l-22 -323zM172 0l709 24v265l-395 -12l12 255l385 15l-5 266l-381 -17l-1 221l384 13l4 281l-689 -26zM193 804l21 304l618 14l-21 -305zM362 1561l304 -184l125 170l-310 184z" />
<glyph unicode="&#xc9;" horiz-adv-x="918" d="M-390 -423q26 -9 133 -224q84 -7 131 -12h1214q74 136 140 171q36 19 46 32q11 15 -12 17q-50 4 -117 33q-69 31 -104 66q-39 39 -84 52q-35 10 -79 4q-15 -1 -36 -5q-28 -6 -33 -6q-36 -6 -54 2t-117 57q-85 42 -125 57q-46 18 -130 -31q-67 32 -102 -8q-11 -12 -50 -6 q-27 5 -81 -48q-124 40 -144 36q-18 -4 -141 -63q-133 -64 -214 -88q-77 -23 -41 -36zM79 -406h34l26 448l639 13l-27 -450l35 1l28 489h-4l25 361h-4l24 362h-10l23 342l-685 -14l-23 -343h-1l-24 -361h-2l-24 -362h-2zM143 81l22 323l633 13l-22 -323zM168 442l22 323 l629 14l-22 -323zM172 0l709 24v265l-395 -12l12 255l385 15l-5 266l-381 -17l-1 221l384 13l4 281l-689 -26zM193 804l21 304l618 14l-21 -305zM372 1522l125 -170l304 184l-119 170z" />
<glyph unicode="&#xca;" horiz-adv-x="936" d="M-390 -423q26 -9 133 -224q84 -7 131 -12h1214q74 136 140 171q36 19 46 32q11 15 -12 17q-50 4 -117 33q-69 31 -104 66q-39 39 -84 52q-35 10 -79 4q-15 -1 -36 -5q-28 -6 -33 -6q-36 -6 -54 2t-117 57q-85 42 -125 57q-46 18 -130 -31q-67 32 -102 -8q-11 -12 -50 -6 q-27 5 -81 -48q-124 40 -144 36q-18 -4 -141 -63q-133 -64 -214 -88q-77 -23 -41 -36zM79 -406h34l26 448l639 13l-27 -450l35 1l28 489h-4l25 361h-4l24 362h-10l23 342l-685 -14l-23 -343h-1l-24 -361h-2l-24 -362h-2zM143 81l22 323l633 13l-22 -323zM168 442l22 323 l629 14l-22 -323zM172 0l709 24v265l-395 -12l12 255l385 15l-5 266l-381 -17l-1 221l384 13l4 281l-689 -26zM193 804l21 304l618 14l-21 -305zM271 1386l216 -8l69 112l64 -119l233 -8l-165 324l-241 9z" />
<glyph unicode="&#xcb;" horiz-adv-x="927" d="M-417 -423q26 -9 133 -224q84 -7 131 -12h1214q74 136 140 171q36 19 46 32q11 15 -12 17q-50 4 -117 33q-69 31 -104 66q-39 39 -84 52q-35 10 -79 4q-15 -1 -36 -5q-28 -6 -33 -6q-36 -6 -54 2t-117 57q-85 42 -125 57q-46 18 -130 -31q-67 32 -102 -8q-11 -12 -50 -6 q-27 5 -81 -48q-124 40 -144 36q-18 -4 -141 -63q-133 -64 -214 -88q-77 -23 -41 -36zM52 -406h34l26 448l639 13l-27 -450l35 1l28 489h-4l25 361h-4l24 362h-10l23 342l-685 -14l-23 -343h-1l-24 -361h-2l-24 -362h-2zM116 81l22 323l633 13l-22 -323zM141 442l22 323 l629 14l-22 -323zM145 0l709 24v265l-395 -12l12 255l385 15l-5 266l-381 -17l-1 221l384 13l4 281l-689 -26zM166 804l21 304l618 14l-21 -305zM278 1367h169v167h-169v-167zM587 1367h169v167h-169v-167z" />
<glyph unicode="&#xcc;" horiz-adv-x="491" d="M-542 -466q-4 -10 3 -28q12 -35 75 -129q17 -25 34 -46h1508q0 216 43 230q77 25 72 40q-4 11 -64 23q-181 36 -208 69q-40 48 -177 2q-80 -52 -89 -50q-9 3 -60 11q-55 10 -91 18q-123 29 -183 85q-51 40 -108 19q-69 -47 -154 -59q-51 -32 -136 22q-84 54 -138 152 q-58 37 -107 -24q-25 -59 -68 -104q-3 -7 -46 -85q-15 -46 -35 -51q-30 -75 -53 -82q-14 -3 -18 -13zM-130 1108l18 -316l-11 -1l19 -334l-4 -1l18 -334h-4l21 -453l34 2l-19 416l623 28l19 -464l33 2l-20 500l-2 -1l-18 335h-1l-19 334h-1l-17 317zM-96 1075l604 26 l16 -281l-604 -27zM-88 757l614 27l17 -299l-614 -27zM-73 422l619 28l16 -299l-618 -28zM-17 1530l304 -184l125 170l-310 184zM51 1294l33 -1297l355 -7l-46 1311z" />
<glyph unicode="&#xcd;" horiz-adv-x="491" d="M-542 -466q-4 -10 3 -28q12 -35 75 -129q17 -25 34 -46h1508q0 216 43 230q77 25 72 40q-4 11 -64 23q-181 36 -208 69q-40 48 -177 2q-80 -52 -89 -50q-9 3 -60 11q-55 10 -91 18q-123 29 -183 85q-51 40 -108 19q-69 -47 -154 -59q-51 -32 -136 22q-84 54 -138 152 q-58 37 -107 -24q-25 -59 -68 -104q-3 -7 -46 -85q-15 -46 -35 -51q-30 -75 -53 -82q-14 -3 -18 -13zM-130 1108l18 -316l-11 -1l19 -334l-4 -1l18 -334h-4l21 -453l34 2l-19 416l623 28l19 -464l33 2l-20 500l-2 -1l-18 335h-1l-19 334h-1l-17 317zM-96 1075l604 26 l16 -281l-604 -27zM-88 757l614 27l17 -299l-614 -27zM-73 422l619 28l16 -299l-618 -28zM-29 1531l125 -170l304 184l-119 170zM51 1294l33 -1297l355 -7l-46 1311z" />
<glyph unicode="&#xce;" horiz-adv-x="491" d="M-542 -466q-4 -10 3 -28q12 -35 75 -129q17 -25 34 -46h1508q0 216 43 230q77 25 72 40q-4 11 -64 23q-181 36 -208 69q-40 48 -177 2q-80 -52 -89 -50q-9 3 -60 11q-55 10 -91 18q-123 29 -183 85q-51 40 -108 19q-69 -47 -154 -59q-51 -32 -136 22q-84 54 -138 152 q-58 37 -107 -24q-25 -59 -68 -104q-3 -7 -46 -85q-15 -46 -35 -51q-30 -75 -53 -82q-14 -3 -18 -13zM-130 1108l18 -316l-11 -1l19 -334l-4 -1l18 -334h-4l21 -453l34 2l-19 416l623 28l19 -464l33 2l-20 500l-2 -1l-18 335h-1l-19 334h-1l-17 317zM-96 1075l604 26 l16 -281l-604 -27zM-91 1387l216 -8l69 112l64 -119l233 -8l-165 324l-241 9zM-88 757l614 27l17 -299l-614 -27zM-73 422l619 28l16 -299l-618 -28zM51 1294l33 -1297l355 -7l-46 1311z" />
<glyph unicode="&#xcf;" horiz-adv-x="491" d="M-542 -466q-4 -10 3 -28q12 -35 75 -129q17 -25 34 -46h1508q0 216 43 230q77 25 72 40q-4 11 -64 23q-181 36 -208 69q-40 48 -177 2q-80 -52 -89 -50q-9 3 -60 11q-55 10 -91 18q-123 29 -183 85q-51 40 -108 19q-69 -47 -154 -59q-51 -32 -136 22q-84 54 -138 152 q-58 37 -107 -24q-25 -59 -68 -104q-3 -7 -46 -85q-15 -46 -35 -51q-30 -75 -53 -82q-14 -3 -18 -13zM-130 1108l18 -316l-11 -1l19 -334l-4 -1l18 -334h-4l21 -453l34 2l-19 416l623 28l19 -464l33 2l-20 500l-2 -1l-18 335h-1l-19 334h-1l-17 317zM-96 1075l604 26 l16 -281l-604 -27zM-88 757l614 27l17 -299l-614 -27zM-73 422l619 28l16 -299l-618 -28zM-48 1386h169v167h-169v-167zM51 1294l33 -1297l355 -7l-46 1311zM261 1386h169v167h-169v-167z" />
<glyph unicode="&#xd0;" horiz-adv-x="1032" />
<glyph unicode="&#xd1;" horiz-adv-x="1046" d="M-390 -659h1706q1 9 1 19q8 19 -36 23q-42 2 -62 11q-16 7 -31 27q-57 70 -117 113q-91 66 -111 62q-3 0 -22 -11q-18 -10 -42 -13q-49 -5 -80 18q-38 26 -54 28q-26 4 -50 42q-25 38 -41 42q-52 11 -105 45q-70 46 -112 46q-19 0 -40 -30q-25 -35 -44 -46 q-48 -26 -53 -31q-20 -17 -10 -53q10 -38 -15 -72q-23 -29 -63 -42q-21 -7 -47 14q-29 17 -52 1q-20 25 -22 33q-9 37 -60 71l-56 50q-8 5 -19 3q-30 -2 -37 3q-5 4 -19 -3q-14 -8 -22 -19q-7 -11 -5 -17q4 -14 4 -22q0 -33 -29 -62l-18 13q-12 -5 -16 -25q-1 -10 2 -16 q-1 -3 -36 -22q-40 -19 -40 -35q0 -18 -32 -47q-9 -8 -26 -22q-17 -13 -22 -17q-4 -5 -19 -16q-13 -10 -20 -16q-20 -3 -28 -27zM-168 1184l20 -1270h346l-20 625l306 -638l292 -7l-14 1311l-333 -14l7 -550l-278 550zM-58 1481l60 -146l199 76l154 -103l255 55l-50 133 l-182 -27l-154 103zM-28 -422l32 -1l9 438l582 -21l-9 -440l31 -2l10 479l-4 1l11 354h-4l10 354l-9 1l10 335l-625 22l-10 -335l-11 -354h-1l-10 -355h-2zM15 53l9 317l577 -21l-9 -316zM26 407l9 317l573 -21l-9 -316zM37 761l8 299l564 -20l-9 -298z" />
<glyph unicode="&#xd2;" d="M-449 -367q31 -12 164 -292h1670q87 164 165 207q44 25 57 43q14 18 -15 21q-62 5 -145 43q-85 40 -128 86q-48 51 -104 68q-43 12 -98 6q-18 -3 -44 -8q-34 -7 -41 -8q-44 -8 -66 3q-23 10 -145 74q-105 56 -155 75q-57 22 -160 -41q-82 42 -126 -10q-14 -16 -62 -7 q-34 6 -100 -63q-154 52 -178 46q-22 -5 -175 -82q-164 -83 -264 -114q-95 -30 -50 -47zM51 205l285 -194l445 -11l284 194l23 866l-250 251l-468 -23l-273 -217zM210 -213l32 -1l22 393l592 -21l-22 -391l32 -1l23 419h-1l12 262h-1l11 262l11 248l-635 23l-11 -248h-10 l-12 -262l-3 1l-12 -262h-4zM269 208l11 233l587 -21l-11 -234zM285 469l10 234l583 -21l-11 -234zM305 731l10 220l574 -21l-10 -220zM408 1524l304 -184l125 170l-310 184zM428 374l16 558l70 79l151 3l66 -77l-5 -561l-95 -65l-113 -1z" />
<glyph unicode="&#xd3;" d="M-449 -367q31 -12 164 -292h1670q87 164 165 207q44 25 57 43q14 18 -15 21q-62 5 -145 43q-85 40 -128 86q-48 51 -104 68q-43 12 -98 6q-18 -3 -44 -8q-34 -7 -41 -8q-44 -8 -66 3q-23 10 -145 74q-105 56 -155 75q-57 22 -160 -41q-82 42 -126 -10q-14 -16 -62 -7 q-34 6 -100 -63q-154 52 -178 46q-22 -5 -175 -82q-164 -83 -264 -114q-95 -30 -50 -47zM51 205l285 -194l445 -11l284 194l23 866l-250 251l-468 -23l-273 -217zM210 -213l32 -1l22 393l592 -21l-22 -391l32 -1l23 419h-1l12 262h-1l11 262l11 248l-635 23l-11 -248h-10 l-12 -262l-3 1l-12 -262h-4zM269 208l11 233l587 -21l-11 -234zM285 469l10 234l583 -21l-11 -234zM305 731l10 220l574 -21l-10 -220zM401 1515l125 -170l304 184l-119 170zM428 374l16 558l70 79l151 3l66 -77l-5 -561l-95 -65l-113 -1z" />
<glyph unicode="&#xd4;" d="M-449 -367q31 -12 164 -292h1670q87 164 165 207q44 25 57 43q14 18 -15 21q-62 5 -145 43q-85 40 -128 86q-48 51 -104 68q-43 12 -98 6q-18 -3 -44 -8q-34 -7 -41 -8q-44 -8 -66 3q-23 10 -145 74q-105 56 -155 75q-57 22 -160 -41q-82 42 -126 -10q-14 -16 -62 -7 q-34 6 -100 -63q-154 52 -178 46q-22 -5 -175 -82q-164 -83 -264 -114q-95 -30 -50 -47zM51 205l285 -194l445 -11l284 194l23 866l-250 251l-468 -23l-273 -217zM210 -213l32 -1l22 393l592 -21l-22 -391l32 -1l23 419h-1l12 262h-1l11 262l11 248l-635 23l-11 -248h-10 l-12 -262l-3 1l-12 -262h-4zM269 208l11 233l587 -21l-11 -234zM285 469l10 234l583 -21l-11 -234zM305 731l10 220l574 -21l-10 -220zM333 1416l216 -8l69 112l64 -119l233 -8l-165 324l-241 9zM428 374l16 558l70 79l151 3l66 -77l-5 -561l-95 -65l-113 -1z" />
<glyph unicode="&#xd5;" d="M-449 -367q31 -12 164 -292h1670q87 164 165 207q44 25 57 43q14 18 -15 21q-62 5 -145 43q-85 40 -128 86q-48 51 -104 68q-43 12 -98 6q-18 -3 -44 -8q-34 -7 -41 -8q-44 -8 -66 3q-23 10 -145 74q-105 56 -155 75q-57 22 -160 -41q-82 42 -126 -10q-14 -16 -62 -7 q-34 6 -100 -63q-154 52 -178 46q-22 -5 -175 -82q-164 -83 -264 -114q-95 -30 -50 -47zM51 205l285 -194l445 -11l284 194l23 866l-250 251l-468 -23l-273 -217zM210 -213l32 -1l22 393l592 -21l-22 -391l32 -1l23 419h-1l12 262h-1l11 262l11 248l-635 23l-11 -248h-10 l-12 -262l-3 1l-12 -262h-4zM269 208l11 233l587 -21l-11 -234zM280 1541l60 -146l199 76l154 -103l255 55l-50 133l-182 -27l-154 103zM285 469l10 234l583 -21l-11 -234zM305 731l10 220l574 -21l-10 -220zM428 374l16 558l70 79l151 3l66 -77l-5 -561l-95 -65l-113 -1z " />
<glyph unicode="&#xd6;" d="M-449 -367q31 -12 164 -292h1670q87 164 165 207q44 25 57 43q14 18 -15 21q-62 5 -145 43q-85 40 -128 86q-48 51 -104 68q-43 12 -98 6q-18 -3 -44 -8q-34 -7 -41 -8q-44 -8 -66 3q-23 10 -145 74q-105 56 -155 75q-57 22 -160 -41q-82 42 -126 -10q-14 -16 -62 -7 q-34 6 -100 -63q-154 52 -178 46q-22 -5 -175 -82q-164 -83 -264 -114q-95 -30 -50 -47zM51 205l285 -194l445 -11l284 194l23 866l-250 251l-468 -23l-273 -217zM210 -213l32 -1l22 393l592 -21l-22 -391l32 -1l23 419h-1l12 262h-1l11 262l11 248l-635 23l-11 -248h-10 l-12 -262l-3 1l-12 -262h-4zM269 208l11 233l587 -21l-11 -234zM285 469l10 234l583 -21l-11 -234zM305 731l10 220l574 -21l-10 -220zM375 1415h169v167h-169v-167zM428 374l16 558l70 79l151 3l66 -77l-5 -561l-95 -65l-113 -1zM684 1415h169v167h-169v-167z" />
<glyph unicode="&#xd7;" horiz-adv-x="851" d="M79 467l213 5l8 -190l268 16l-8 180l200 5l-8 268l-205 -2l-8 165l-266 -2l7 -166l-201 -2v-277z" />
<glyph unicode="&#xd8;" d="M-449 -367q31 -12 164 -292h1670q87 164 165 207q44 25 57 43q14 18 -15 21q-62 5 -145 43q-85 40 -128 86q-48 51 -104 68q-43 12 -98 6q-18 -3 -44 -8q-34 -7 -41 -8q-44 -8 -66 3q-23 10 -145 74q-105 56 -155 75q-57 22 -160 -41q-82 42 -126 -10q-14 -16 -62 -7 q-34 6 -100 -63q-154 52 -178 46q-22 -5 -175 -82q-164 -83 -264 -114q-95 -30 -50 -47zM51 205l285 -194l445 -11l284 194l23 866l-250 251l-468 -23l-273 -217zM210 -213l32 -1l22 393l592 -21l-22 -391l32 -1l23 419h-1l12 262h-1l11 262l11 248l-635 23l-11 -248h-10 l-12 -262l-3 1l-12 -262h-4zM269 208l11 233l587 -21l-11 -234zM285 469l10 234l583 -21l-11 -234zM305 731l10 220l574 -21l-10 -220zM341 -10l292 -86l395 1587l-278 99zM428 374l16 558l70 79l151 3l66 -77l-5 -561l-95 -65l-113 -1z" />
<glyph unicode="&#xd9;" horiz-adv-x="1015" d="M-308 -321q-9 -34 11 -51q6 -5 49 -30q16 -95 23 -123q6 -27 52 -46q62 -27 64 -29q13 -9 39 -59h1513l74 118q9 24 2 42q-6 103 -26 120q-82 73 -90 82q-14 18 -39 17q-8 0 -50 -9q-73 -13 -117 35q-50 54 -246 41q-59 -4 -134 -15q-67 -10 -68 -10q-6 0 -28 4 q-31 7 -45 10q-64 9 -99 0q-9 -3 -43 -24q-31 -19 -66 -25q-113 -26 -358 36q-252 65 -367 -16q-41 -29 -51 -68zM51 1273l20 -994l278 -279h337l279 279l-19 1032l-286 -13l-13 -954l-65 -52l-149 -6l-58 64l-20 935zM123 1054l7 -307l8 -324h-2l9 -324h-2l16 -435l36 3 l-15 401l677 66l15 -403l36 4l-16 437h-4l-8 324l-5 -1l-8 324l-11 -1l-8 307zM159 1023l655 64l7 -272l-655 -65zM166 716l666 65l8 -289l-666 -65zM173 392l672 65l7 -289l-671 -65zM249 1544l304 -184l125 170l-310 184z" />
<glyph unicode="&#xda;" horiz-adv-x="1015" d="M-308 -321q-9 -34 11 -51q6 -5 49 -30q16 -95 23 -123q6 -27 52 -46q62 -27 64 -29q13 -9 39 -59h1513l74 118q9 24 2 42q-6 103 -26 120q-82 73 -90 82q-14 18 -39 17q-8 0 -50 -9q-73 -13 -117 35q-50 54 -246 41q-59 -4 -134 -15q-67 -10 -68 -10q-6 0 -28 4 q-31 7 -45 10q-64 9 -99 0q-9 -3 -43 -24q-31 -19 -66 -25q-113 -26 -358 36q-252 65 -367 -16q-41 -29 -51 -68zM51 1273l20 -994l278 -279h337l279 279l-19 1032l-286 -13l-13 -954l-65 -52l-149 -6l-58 64l-20 935zM123 1054l7 -307l8 -324h-2l9 -324h-2l16 -435l36 3 l-15 401l677 66l15 -403l36 4l-16 437h-4l-8 324l-5 -1l-8 324l-11 -1l-8 307zM159 1023l655 64l7 -272l-655 -65zM166 716l666 65l8 -289l-666 -65zM173 392l672 65l7 -289l-671 -65zM305 1521l125 -170l304 184l-119 170z" />
<glyph unicode="&#xdb;" horiz-adv-x="1015" d="M-308 -321q-9 -34 11 -51q6 -5 49 -30q16 -95 23 -123q6 -27 52 -46q62 -27 64 -29q13 -9 39 -59h1513l74 118q9 24 2 42q-6 103 -26 120q-82 73 -90 82q-14 18 -39 17q-8 0 -50 -9q-73 -13 -117 35q-50 54 -246 41q-59 -4 -134 -15q-67 -10 -68 -10q-6 0 -28 4 q-31 7 -45 10q-64 9 -99 0q-9 -3 -43 -24q-31 -19 -66 -25q-113 -26 -358 36q-252 65 -367 -16q-41 -29 -51 -68zM51 1273l20 -994l278 -279h337l279 279l-19 1032l-286 -13l-13 -954l-65 -52l-149 -6l-58 64l-20 935zM123 1054l7 -307l8 -324h-2l9 -324h-2l16 -435l36 3 l-15 401l677 66l15 -403l36 4l-16 437h-4l-8 324l-5 -1l-8 324l-11 -1l-8 307zM159 1023l655 64l7 -272l-655 -65zM166 716l666 65l8 -289l-666 -65zM173 392l672 65l7 -289l-671 -65zM210 1393l216 -8l69 112l64 -119l233 -8l-165 324l-241 9z" />
<glyph unicode="&#xdc;" horiz-adv-x="1015" d="M-308 -321q-9 -34 11 -51q6 -5 49 -30q16 -95 23 -123q6 -27 52 -46q62 -27 64 -29q13 -9 39 -59h1513l74 118q9 24 2 42q-6 103 -26 120q-82 73 -90 82q-14 18 -39 17q-8 0 -50 -9q-73 -13 -117 35q-50 54 -246 41q-59 -4 -134 -15q-67 -10 -68 -10q-6 0 -28 4 q-31 7 -45 10q-64 9 -99 0q-9 -3 -43 -24q-31 -19 -66 -25q-113 -26 -358 36q-252 65 -367 -16q-41 -29 -51 -68zM51 1273l20 -994l278 -279h337l279 279l-19 1032l-286 -13l-13 -954l-65 -52l-149 -6l-58 64l-20 935zM123 1054l7 -307l8 -324h-2l9 -324h-2l16 -435l36 3 l-15 401l677 66l15 -403l36 4l-16 437h-4l-8 324l-5 -1l-8 324l-11 -1l-8 307zM159 1023l655 64l7 -272l-655 -65zM166 716l666 65l8 -289l-666 -65zM173 392l672 65l7 -289l-671 -65zM262 1393h169v167h-169v-167zM571 1393h169v167h-169v-167z" />
<glyph unicode="&#xdd;" horiz-adv-x="1121" d="M-317 -604q-1 -17 14 -42q-1 1 17 -13h1580q179 35 199 41q50 13 104 85q-1 13 -1 23q-27 -2 -266 248q-137 -12 -255 -12q-264 0 -377 -20q0 1 -1 1q-46 26 -140 29q-179 5 -331 24q-210 26 -377 -20q-49 -14 -98 -305q-43 -18 -47 -18q-21 -3 -21 -21zM38 1253 l368 -877v-409h390l-12 434l272 863l-317 -10l-156 -544l-188 544zM187 -366h39l1 435l735 -1v-437h39l1 474h-4l4 351h-5l5 352h-12l4 332l-788 1l-5 -333h-1l-4 -350h-2l-4 -352h-2zM229 106l4 314l729 -1l-3 -314zM235 457l4 314l724 -1l-4 -314zM239 808l4 296l713 -1 l-4 -295h-713zM369 1490l125 -170l304 184l-119 170z" />
<glyph unicode="&#xde;" horiz-adv-x="915" />
<glyph unicode="&#xdf;" horiz-adv-x="1001" />
<glyph unicode="&#xe0;" horiz-adv-x="1243" d="M-259 -628q-10 -15 14 -15l2 -16h1632q79 106 44 116q-26 7 -151 264q-139 2 -178 5q-116 -46 -120 -26q-17 74 -63 97q-38 18 -116 9q-23 -3 -76 -11q-56 -9 -88 -13q-113 -14 -208 -5q-185 19 -302 -22q-20 -7 -87 -37q-51 -23 -91 -31q-85 -227 -168 -279 q-35 -21 -44 -36zM9 -23l318 11l44 236l368 16l61 -229l349 20l-433 1257l-437 -32zM155 1178l9 -344h-1l10 -362h-2l10 -363h-1l17 -488l36 1l-17 449l663 17l17 -451l35 1l-17 490h-5l-9 363h-5l-9 363h-11l-9 343zM190 1141l642 17l8 -305l-642 -18zM199 797l653 17 l8 -324l-652 -17zM208 434l657 17l9 -324l-657 -17zM311 1509l304 -184l125 170l-310 184zM432 555l60 401l70 5l88 -387z" />
<glyph unicode="&#xe1;" horiz-adv-x="1243" d="M-259 -628q-10 -15 14 -15l2 -16h1632q79 106 44 116q-26 7 -151 264q-139 2 -178 5q-116 -46 -120 -26q-17 74 -63 97q-38 18 -116 9q-23 -3 -76 -11q-56 -9 -88 -13q-113 -14 -208 -5q-185 19 -302 -22q-20 -7 -87 -37q-51 -23 -91 -31q-85 -227 -168 -279 q-35 -21 -44 -36zM9 -23l318 11l44 236l368 16l61 -229l349 20l-433 1257l-437 -32zM155 1178l9 -344h-1l10 -362h-2l10 -363h-1l17 -488l36 1l-17 449l663 17l17 -451l35 1l-17 490h-5l-9 363h-5l-9 363h-11l-9 343zM190 1141l642 17l8 -305l-642 -18zM199 797l653 17 l8 -324l-652 -17zM208 434l657 17l9 -324l-657 -17zM302 1513l125 -170l304 184l-119 170zM432 555l60 401l70 5l88 -387z" />
<glyph unicode="&#xe2;" horiz-adv-x="1243" d="M-179 -628q-10 -15 14 -15l2 -16h1632q79 106 44 116q-26 7 -151 264q-139 2 -178 5q-116 -46 -120 -26q-17 74 -63 97q-38 18 -116 9q-23 -3 -76 -11q-56 -9 -88 -13q-113 -14 -208 -5q-185 19 -302 -22q-20 -7 -87 -37q-51 -23 -91 -31q-85 -227 -168 -279 q-35 -21 -44 -36zM89 -23l318 11l44 236l368 16l61 -229l349 20l-433 1257l-437 -32zM235 1178l9 -344h-1l10 -362h-2l10 -363h-1l17 -488l36 1l-17 449l663 17l17 -451l35 1l-17 490h-5l-9 363h-5l-9 363h-11l-9 343zM270 1141l642 17l8 -305l-642 -18zM279 797l653 17 l8 -324l-652 -17zM288 434l657 17l9 -324l-657 -17zM301 1356l216 -8l69 112l64 -119l233 -8l-165 324l-241 9zM512 555l60 401l70 5l88 -387z" />
<glyph unicode="&#xe3;" horiz-adv-x="1243" d="M-259 -628q-10 -15 14 -15l2 -16h1632q79 106 44 116q-26 7 -151 264q-139 2 -178 5q-116 -46 -120 -26q-17 74 -63 97q-38 18 -116 9q-23 -3 -76 -11q-56 -9 -88 -13q-113 -14 -208 -5q-185 19 -302 -22q-20 -7 -87 -37q-51 -23 -91 -31q-85 -227 -168 -279 q-35 -21 -44 -36zM9 -23l318 11l44 236l368 16l61 -229l349 20l-433 1257l-437 -32zM155 1178l9 -344h-1l10 -362h-2l10 -363h-1l17 -488l36 1l-17 449l663 17l17 -451l35 1l-17 490h-5l-9 363h-5l-9 363h-11l-9 343zM190 1141l642 17l8 -305l-642 -18zM199 797l653 17 l8 -324l-652 -17zM208 434l657 17l9 -324l-657 -17zM226 1486l60 -146l199 76l154 -103l255 55l-50 133l-182 -27l-154 103zM432 555l60 401l70 5l88 -387z" />
<glyph unicode="&#xe4;" horiz-adv-x="1243" d="M-259 -628q-10 -15 14 -15l2 -16h1632q79 106 44 116q-26 7 -151 264q-139 2 -178 5q-116 -46 -120 -26q-17 74 -63 97q-38 18 -116 9q-23 -3 -76 -11q-56 -9 -88 -13q-113 -14 -208 -5q-185 19 -302 -22q-20 -7 -87 -37q-51 -23 -91 -31q-85 -227 -168 -279 q-35 -21 -44 -36zM9 -23l318 11l44 236l368 16l61 -229l349 20l-433 1257l-437 -32zM155 1178l9 -344h-1l10 -362h-2l10 -363h-1l17 -488l36 1l-17 449l663 17l17 -451l35 1l-17 490h-5l-9 363h-5l-9 363h-11l-9 343zM190 1141l642 17l8 -305l-642 -18zM199 797l653 17 l8 -324l-652 -17zM208 434l657 17l9 -324l-657 -17zM277 1344h169v167h-169v-167zM432 555l60 401l70 5l88 -387zM586 1344h169v167h-169v-167z" />
<glyph unicode="&#xe5;" horiz-adv-x="1243" d="M-259 -628q-10 -15 14 -15l2 -16h1632q79 106 44 116q-26 7 -151 264q-139 2 -178 5q-116 -46 -120 -26q-17 74 -63 97q-38 18 -116 9q-23 -3 -76 -11q-56 -9 -88 -13q-113 -14 -208 -5q-185 19 -302 -22q-20 -7 -87 -37q-51 -23 -91 -31q-85 -227 -168 -279 q-35 -21 -44 -36zM9 -23l318 11l44 236l368 16l61 -229l349 20l-433 1257l-437 -32zM155 1178l9 -344h-1l10 -362h-2l10 -363h-1l17 -488l36 1l-17 449l663 17l17 -451l35 1l-17 490h-5l-9 363h-5l-9 363h-11l-9 343zM190 1141l642 17l8 -305l-642 -18zM199 797l653 17 l8 -324l-652 -17zM208 434l657 17l9 -324l-657 -17zM395 1454l65 -76l139 -7l60 72l-7 124l-69 61l-108 7l-73 -66zM432 555l60 401l70 5l88 -387zM463 1477l4 61l32 29l57 -4l31 -28l4 -70l-22 -27l-77 4z" />
<glyph unicode="&#xe6;" horiz-adv-x="1691" d="M-259 -628q-10 -15 14 -15l2 -16h1632q79 106 44 116q-26 7 -151 264q-139 2 -178 5q-116 -46 -120 -26q-17 74 -63 97q-38 18 -116 9q-23 -3 -76 -11q-56 -9 -88 -13q-113 -14 -208 -5q-185 19 -302 -22q-20 -7 -87 -37q-51 -23 -91 -31q-85 -227 -168 -279 q-35 -21 -44 -36zM9 -23l318 11l44 236l368 16l61 -229l349 20l-433 1257l-437 -32zM155 1178l9 -344h-1l10 -362h-2l10 -363h-1l17 -488l36 1l-17 449l663 17l17 -451l35 1l-17 490h-5l-9 363h-5l-9 363h-11l-9 343zM190 1141l642 17l8 -305l-642 -18zM199 797l653 17 l8 -324l-652 -17zM208 434l657 17l9 -324l-657 -17zM382 -662h1628q7 2 14 5q53 19 62 180q8 15 -36 18q-42 2 -62 9q-16 6 -31 22q-57 57 -117 92q-91 53 -111 50q-3 0 -22 -9q-18 -8 -42 -10q-49 -4 -80 14q-38 21 -54 23q-26 3 -50 34q-25 31 -41 34q-52 9 -105 37 q-70 37 -112 37q-19 0 -40 -24q-25 -29 -44 -38q-48 -21 -53 -25q-20 -14 -10 -43q10 -31 -15 -58q-23 -24 -63 -34q-21 -6 -47 11q-29 14 -52 1q-20 20 -22 27q-9 30 -60 57l-56 41q-8 4 -19 2q-30 -1 -37 3q-5 3 -19 -3t-22 -15q-7 -9 -5 -14q4 -11 4 -18q0 -27 -29 -50 l-18 10q-12 -4 -16 -20q-1 -8 2 -13q-1 -2 -36 -18q-40 -15 -40 -28q0 -15 -32 -38q-9 -7 -26 -18t-22 -14q-4 -4 -19 -13q-13 -8 -20 -13q-59 -8 -14 -154q-10 -20 -11 -37zM432 555l60 401l70 5l88 -387zM888 1201l55 -1286l707 25l-16 265l-393 -13l-4 255l384 15 l-21 266l-380 -17l-14 221l383 13l-12 281zM968 989l11 -357h-8l12 -377h-4l13 -377h-4l13 -509l29 2l-12 468l536 29l12 -466l29 2l-13 507l-2 -1l-12 377h-1l-12 376h-1l-12 357zM997 951l519 28l10 -317l-519 -28zM1000 593l528 29l11 -337l-528 -28zM1009 216l532 29 l11 -336l-532 -29z" />
<glyph unicode="&#xe7;" horiz-adv-x="1127" d="M-458 -652h2076q2 31 -26 92q-54 205 -73 221q-53 43 -102 37q-22 -2 -55 -42q-32 -38 -47 -38t-57 10q-43 9 -63 9q-19 0 -48 30q-26 27 -40 22q-16 -6 -25 -20q-12 -18 -17 -23q-16 -13 -55 -33q-43 -23 -58 -23q-3 0 -41 -14q-32 -2 -55 -2q-68 -120 -94 25 q-48 27 -69 35q-39 15 -58 3q-19 -13 -68 -26q-44 -12 -62 -12q-8 0 -28 14q-19 13 -39 10q-23 -3 -57 11q-26 11 -38 22l-12 13q-10 10 -19 17q-27 21 -47 12q-14 -6 -30 -23q-16 -16 -36 -24q-23 -8 -40 -3q-27 8 -38 8q-22 0 -32 -8q-4 -2 -11 -10q-9 -9 -17 -15 q-19 -16 -34 -17q-9 -1 -36 7q-1 1 -35 16q-14 7 -29 -1q-34 -20 -67 9q-10 9 -7 11q0 1 -14 8q-28 14 -42 23q-7 10 -28 -4q-2 -2 -14 -20q-6 -9 -35 -9q-28 0 -45 7q-13 5 -19 3q-12 -4 -29 -42q-70 -200 -85 -266zM80 1006l26 -766l281 -254l460 2l262 258l-15 176 l-320 8l-11 -73l-71 -75l-158 -19l-99 92l-18 495l76 121l143 11l61 -75l9 -101l372 9l-19 238l-233 229l-467 -8zM179 1090l2 -347l2 -365h-1l2 -366h-1l8 -492h37l-7 453l703 7l8 -455l38 1l-9 494h-4l-3 366h-4l-3 366h-11l-3 346zM216 1052l681 7l2 -308l-681 -7z M218 704l692 8l3 -326l-693 -8zM219 339l698 7l3 -326l-698 -8zM533 -204l1 -90l197 127l-97 112l-8 124l-81 -1l-5 -3l4 -140l86 -68z" />
<glyph unicode="&#xe8;" horiz-adv-x="815" d="M-486 -659h1628q7 2 14 5q53 19 62 180q8 15 -36 18q-42 2 -62 9q-16 6 -31 22q-57 57 -117 92q-91 53 -111 50q-3 0 -22 -9q-18 -8 -42 -10q-49 -4 -80 14q-38 21 -54 23q-26 3 -50 34q-25 31 -41 34q-52 9 -105 37q-70 37 -112 37q-19 0 -40 -24q-25 -29 -44 -38 q-48 -21 -53 -25q-20 -14 -10 -43q10 -31 -15 -58q-23 -24 -63 -34q-21 -6 -47 11q-29 14 -52 1q-20 20 -22 27q-9 30 -60 57l-56 41q-8 4 -19 2q-30 -1 -37 3q-5 3 -19 -3t-22 -15q-7 -9 -5 -14q4 -11 4 -18q0 -27 -29 -50l-18 10q-12 -4 -16 -20q-1 -8 2 -13 q-1 -2 -36 -18q-40 -15 -40 -28q0 -15 -32 -38q-9 -7 -26 -18t-22 -14q-4 -4 -19 -13q-13 -8 -20 -13q-59 -8 -14 -154q-10 -20 -11 -37zM20 1204l55 -1286l707 25l-16 265l-393 -13l-4 255l384 15l-21 266l-380 -17l-14 221l383 13l-12 281zM100 992l11 -357h-8l12 -377h-4 l13 -377h-4l13 -509l29 2l-12 468l536 29l12 -466l29 2l-13 507l-2 -1l-12 377h-1l-12 376h-1l-12 357zM108 1455l304 -184l125 170l-310 184zM129 954l519 28l10 -317l-519 -28zM132 596l528 29l11 -337l-528 -28zM141 219l532 29l11 -336l-532 -29z" />
<glyph unicode="&#xe9;" horiz-adv-x="815" d="M-486 -659h1628q7 2 14 5q53 19 62 180q8 15 -36 18q-42 2 -62 9q-16 6 -31 22q-57 57 -117 92q-91 53 -111 50q-3 0 -22 -9q-18 -8 -42 -10q-49 -4 -80 14q-38 21 -54 23q-26 3 -50 34q-25 31 -41 34q-52 9 -105 37q-70 37 -112 37q-19 0 -40 -24q-25 -29 -44 -38 q-48 -21 -53 -25q-20 -14 -10 -43q10 -31 -15 -58q-23 -24 -63 -34q-21 -6 -47 11q-29 14 -52 1q-20 20 -22 27q-9 30 -60 57l-56 41q-8 4 -19 2q-30 -1 -37 3q-5 3 -19 -3t-22 -15q-7 -9 -5 -14q4 -11 4 -18q0 -27 -29 -50l-18 10q-12 -4 -16 -20q-1 -8 2 -13 q-1 -2 -36 -18q-40 -15 -40 -28q0 -15 -32 -38q-9 -7 -26 -18t-22 -14q-4 -4 -19 -13q-13 -8 -20 -13q-59 -8 -14 -154q-10 -20 -11 -37zM20 1204l55 -1286l707 25l-16 265l-393 -13l-4 255l384 15l-21 266l-380 -17l-14 221l383 13l-12 281zM100 992l11 -357h-8l12 -377h-4 l13 -377h-4l13 -509l29 2l-12 468l536 29l12 -466l29 2l-13 507l-2 -1l-12 377h-1l-12 376h-1l-12 357zM129 954l519 28l10 -317l-519 -28zM132 596l528 29l11 -337l-528 -28zM141 219l532 29l11 -336l-532 -29zM160 1448l125 -170l304 184l-119 170z" />
<glyph unicode="&#xea;" horiz-adv-x="857" d="M-444 -659h1628q7 2 14 5q53 19 62 180q8 15 -36 18q-42 2 -62 9q-16 6 -31 22q-57 57 -117 92q-91 53 -111 50q-3 0 -22 -9q-18 -8 -42 -10q-49 -4 -80 14q-38 21 -54 23q-26 3 -50 34q-25 31 -41 34q-52 9 -105 37q-70 37 -112 37q-19 0 -40 -24q-25 -29 -44 -38 q-48 -21 -53 -25q-20 -14 -10 -43q10 -31 -15 -58q-23 -24 -63 -34q-21 -6 -47 11q-29 14 -52 1q-20 20 -22 27q-9 30 -60 57l-56 41q-8 4 -19 2q-30 -1 -37 3q-5 3 -19 -3t-22 -15q-7 -9 -5 -14q4 -11 4 -18q0 -27 -29 -50l-18 10q-12 -4 -16 -20q-1 -8 2 -13 q-1 -2 -36 -18q-40 -15 -40 -28q0 -15 -32 -38q-9 -7 -26 -18t-22 -14q-4 -4 -19 -13q-13 -8 -20 -13q-59 -8 -14 -154q-10 -20 -11 -37zM62 1204l55 -1286l707 25l-16 265l-393 -13l-4 255l384 15l-21 266l-380 -17l-14 221l383 13l-12 281zM120 1314l216 -8l69 112 l64 -119l233 -8l-165 324l-241 9zM142 992l11 -357h-8l12 -377h-4l13 -377h-4l13 -509l29 2l-12 468l536 29l12 -466l29 2l-13 507l-2 -1l-12 377h-1l-12 376h-1l-12 357zM171 954l519 28l10 -317l-519 -28zM174 596l528 29l11 -337l-528 -28zM183 219l532 29l11 -336 l-532 -29z" />
<glyph unicode="&#xeb;" horiz-adv-x="843" d="M-458 -659h1628q7 2 14 5q53 19 62 180q8 15 -36 18q-42 2 -62 9q-16 6 -31 22q-57 57 -117 92q-91 53 -111 50q-3 0 -22 -9q-18 -8 -42 -10q-49 -4 -80 14q-38 21 -54 23q-26 3 -50 34q-25 31 -41 34q-52 9 -105 37q-70 37 -112 37q-19 0 -40 -24q-25 -29 -44 -38 q-48 -21 -53 -25q-20 -14 -10 -43q10 -31 -15 -58q-23 -24 -63 -34q-21 -6 -47 11q-29 14 -52 1q-20 20 -22 27q-9 30 -60 57l-56 41q-8 4 -19 2q-30 -1 -37 3q-5 3 -19 -3t-22 -15q-7 -9 -5 -14q4 -11 4 -18q0 -27 -29 -50l-18 10q-12 -4 -16 -20q-1 -8 2 -13 q-1 -2 -36 -18q-40 -15 -40 -28q0 -15 -32 -38q-9 -7 -26 -18t-22 -14q-4 -4 -19 -13q-13 -8 -20 -13q-59 -8 -14 -154q-10 -20 -11 -37zM48 1204l55 -1286l707 25l-16 265l-393 -13l-4 255l384 15l-21 266l-380 -17l-14 221l383 13l-12 281zM128 992l11 -357h-8l12 -377h-4 l13 -377h-4l13 -509l29 2l-12 468l536 29l12 -466l29 2l-13 507l-2 -1l-12 377h-1l-12 376h-1l-12 357zM140 1307h169v167h-169v-167zM157 954l519 28l10 -317l-519 -28zM160 596l528 29l11 -337l-528 -28zM169 219l532 29l11 -336l-532 -29zM449 1307h169v167h-169v-167z " />
<glyph unicode="&#xec;" horiz-adv-x="666" d="M-629 -574q-4 -10 3 -28q7 -19 28 -56h1564q34 100 68 111q77 25 72 40q-4 11 -64 23q-181 36 -208 69q-40 48 -177 2q-80 -52 -89 -50q-9 3 -60 11q-55 10 -91 18q-123 29 -183 85q-51 40 -108 19q-69 -47 -154 -59q-51 -32 -136 22q-84 54 -138 152q-58 37 -107 -24 q-25 -59 -68 -104q-3 -7 -46 -85q-15 -46 -35 -51q-30 -75 -53 -82q-14 -3 -18 -13zM-117 -587l38 4l22 509l704 8l-21 -512l37 1l24 556h-4l21 412h-5l21 412h-11l20 391l-756 -7l-20 -386h-1l-21 -419h-1l-21 -420h-2zM-54 -29l19 367l699 8l-19 -367zM-32 382l19 368 l694 8l-19 -368zM-10 794l17 346l683 8l-18 -346zM91 -88l373 -47l99 1442l-361 32zM153 1590l304 -184l125 170l-310 184z" />
<glyph unicode="&#xed;" horiz-adv-x="613" d="M-676 -576q-4 -10 3 -28q7 -19 28 -56h1564q34 100 68 111q77 25 72 40q-4 11 -64 23q-181 36 -208 69q-40 48 -177 2q-80 -52 -89 -50q-9 3 -60 11q-55 10 -91 18q-123 29 -183 85q-51 40 -108 19q-69 -47 -154 -59q-51 -32 -136 22q-84 54 -138 152q-58 37 -107 -24 q-25 -59 -68 -104q-3 -7 -46 -85q-15 -46 -35 -51q-30 -75 -53 -82q-14 -3 -18 -13zM-164 -589l38 4l22 509l704 8l-21 -512l37 1l24 556h-4l21 412h-5l21 412h-11l20 391l-756 -7l-20 -386h-1l-21 -419h-1l-21 -420h-2zM-101 -31l19 367l699 8l-19 -367zM-79 380l19 368 l694 8l-19 -368zM-57 792l17 346l683 8l-18 -346zM44 -90l373 -47l99 1442l-361 32zM102 1587l125 -170l304 184l-119 170z" />
<glyph unicode="&#xee;" horiz-adv-x="626" d="M-676 -574q-4 -10 3 -28q7 -19 28 -56h1564q34 100 68 111q77 25 72 40q-4 11 -64 23q-181 36 -208 69q-40 48 -177 2q-80 -52 -89 -50q-9 3 -60 11q-55 10 -91 18q-123 29 -183 85q-51 40 -108 19q-69 -47 -154 -59q-51 -32 -136 22q-84 54 -138 152q-58 37 -107 -24 q-25 -59 -68 -104q-3 -7 -46 -85q-15 -46 -35 -51q-30 -75 -53 -82q-14 -3 -18 -13zM-164 -587l38 4l22 509l704 8l-21 -512l37 1l24 556h-4l21 412h-5l21 412h-11l20 391l-756 -7l-20 -386h-1l-21 -419h-1l-21 -420h-2zM-101 -29l19 367l699 8l-19 -367zM-79 382l19 368 l694 8l-19 -368zM-57 794l17 346l683 8l-18 -346zM44 -88l373 -47l99 1442l-361 32zM62 1432l216 -8l69 112l64 -119l233 -8l-165 324l-241 9z" />
<glyph unicode="&#xef;" horiz-adv-x="576" d="M-705 -578q-4 -10 3 -28q7 -19 28 -56h1564q34 100 68 111q77 25 72 40q-4 11 -64 23q-181 36 -208 69q-40 48 -177 2q-80 -52 -89 -50q-9 3 -60 11q-55 10 -91 18q-123 29 -183 85q-51 40 -108 19q-69 -47 -154 -59q-51 -32 -136 22q-84 54 -138 152q-58 37 -107 -24 q-25 -59 -68 -104q-3 -7 -46 -85q-15 -46 -35 -51q-30 -75 -53 -82q-14 -3 -18 -13zM-193 -591l38 4l22 509l704 8l-21 -512l37 1l24 556h-4l21 412h-5l21 412h-11l20 391l-756 -7l-20 -386h-1l-21 -419h-1l-21 -420h-2zM-130 -33l19 367l699 8l-19 -367zM-108 378l19 368 l694 8l-19 -368zM-86 790l17 346l683 8l-18 -346zM15 -92l373 -47l99 1442l-361 32zM56 1420h169v167h-169v-167zM365 1420h169v167h-169v-167z" />
<glyph unicode="&#xf0;" horiz-adv-x="911" />
<glyph unicode="&#xf1;" horiz-adv-x="1046" d="M-237 -441q21 -8 80 -218h1303q63 120 121 153q33 19 43 32q10 15 -12 17q-8 127 -70 156q-65 31 -97 66q-74 -84 -116 -71q-33 10 -74 4q-13 -1 -33 -5q-26 -6 -31 -6q-33 -6 -50 2t-109 57q-56 2 -93 17q-43 18 -121 -31q-85 72 -118 32q-10 -12 -46 -6q-26 5 -96 2 q-95 -10 -113 -14q-17 -4 -139 26q-123 -64 -199 -88q-64 -112 -30 -125zM71 1370l20 -1270h346l-20 625l306 -638l292 -7l-14 1311l-333 -14l7 -550l-278 550zM153 -343l37 -2l10 503l685 -7l-11 -501h37l11 537h-2l3 328h-1l3 329h-1l3 323l-734 10l-3 -316l-11 1l-3 -334 l-4 3l-4 -331h-4zM199 1570l60 -146l199 76l154 -103l255 55l-50 133l-182 -27l-154 103zM205 193l3 299l679 -6l-3 -299zM212 528l3 299l673 -6l-2 -299zM226 863l2 282l663 -6l-2 -282z" />
<glyph unicode="&#xf2;" d="M-388 -624q10 -4 32 -35h2031q3 12 -20 14q-63 5 -148 43q-87 40 -133 86q-51 51 -108 68q-44 12 -98 6q-18 -3 -44 -8q-34 -7 -41 -8q-43 -8 -66 3q-23 10 -149 74q-109 56 -160 75q-58 22 -157 -41q-85 42 -126 -10q-13 -16 -61 -7q-35 6 -96 -63q-158 52 -181 46 q-22 -5 -170 -82q-159 -83 -257 -114q-94 -30 -48 -47zM69 296l293 -197l445 -11l277 197l-11 881l-261 255l-467 -23l-265 -221zM151 -504h38l9 509l694 23l-8 -508l37 2l9 544h-2l3 333h-2l3 333l-1 -1l2 328l-744 -22l-3 -320h-11l-3 -338l-4 3l-3 -335l-4 -1zM203 41 l1 303l690 24l-3 -304zM209 381l2 303l684 23l-2 -303zM223 720l2 286l672 23l-3 -286zM289 1640l304 -184l125 170l-310 184zM434 1036l66 80l151 3l70 -78l17 -571l-93 -66l-113 -2l-93 66z" />
<glyph unicode="&#xf3;" d="M-378 -624q10 -4 32 -35h2031q3 12 -20 14q-63 5 -148 43q-87 40 -133 86q-51 51 -108 68q-44 12 -98 6q-18 -3 -44 -8q-34 -7 -41 -8q-43 -8 -66 3q-23 10 -149 74q-109 56 -160 75q-58 22 -157 -41q-85 42 -126 -10q-13 -16 -61 -7q-35 6 -96 -63q-158 52 -181 46 q-22 -5 -170 -82q-159 -83 -257 -114q-94 -30 -48 -47zM79 296l293 -197l445 -11l277 197l-11 881l-261 255l-467 -23l-265 -221zM161 -504h38l9 509l694 23l-8 -508l37 2l9 544h-2l3 333h-2l3 333l-1 -1l2 328l-744 -22l-3 -320h-11l-3 -338l-4 3l-3 -335l-4 -1zM213 41 l1 303l690 24l-3 -304zM219 381l2 303l684 23l-2 -303zM233 720l2 286l672 23l-3 -286zM375 1615l125 -170l304 184l-119 170zM444 1036l66 80l151 3l70 -78l17 -571l-93 -66l-113 -2l-93 66z" />
<glyph unicode="&#xf4;" d="M-400 -624q10 -4 32 -35h2031q3 12 -20 14q-63 5 -148 43q-87 40 -133 86q-51 51 -108 68q-44 12 -98 6q-18 -3 -44 -8q-34 -7 -41 -8q-43 -8 -66 3q-23 10 -149 74q-109 56 -160 75q-58 22 -157 -41q-85 42 -126 -10q-13 -16 -61 -7q-35 6 -96 -63q-158 52 -181 46 q-22 -5 -170 -82q-159 -83 -257 -114q-94 -30 -48 -47zM57 296l293 -197l445 -11l277 197l-11 881l-261 255l-467 -23l-265 -221zM139 -504h38l9 509l694 23l-8 -508l37 2l9 544h-2l3 333h-2l3 333l-1 -1l2 328l-744 -22l-3 -320h-11l-3 -338l-4 3l-3 -335l-4 -1zM191 41 l1 303l690 24l-3 -304zM197 381l2 303l684 23l-2 -303zM211 720l2 286l672 23l-3 -286zM288 1520l216 -8l69 112l64 -119l233 -8l-165 324l-241 9zM422 1036l66 80l151 3l70 -78l17 -571l-93 -66l-113 -2l-93 66z" />
<glyph unicode="&#xf5;" d="M-399 -624q10 -4 32 -35h2031q3 12 -20 14q-63 5 -148 43q-87 40 -133 86q-51 51 -108 68q-44 12 -98 6q-18 -3 -44 -8q-34 -7 -41 -8q-43 -8 -66 3q-23 10 -149 74q-109 56 -160 75q-58 22 -157 -41q-85 42 -126 -10q-13 -16 -61 -7q-35 6 -96 -63q-158 52 -181 46 q-22 -5 -170 -82q-159 -83 -257 -114q-94 -30 -48 -47zM58 296l293 -197l445 -11l277 197l-11 881l-261 255l-467 -23l-265 -221zM140 -504h38l9 509l694 23l-8 -508l37 2l9 544h-2l3 333h-2l3 333l-1 -1l2 328l-744 -22l-3 -320h-11l-3 -338l-4 3l-3 -335l-4 -1zM192 41 l1 303l690 24l-3 -304zM198 381l2 303l684 23l-2 -303zM212 720l2 286l672 23l-3 -286zM240 1655l60 -146l199 76l154 -103l255 55l-50 133l-182 -27l-154 103zM423 1036l66 80l151 3l70 -78l17 -571l-93 -66l-113 -2l-93 66z" />
<glyph unicode="&#xf6;" d="M-393 -624q10 -4 32 -35h2031q3 12 -20 14q-63 5 -148 43q-87 40 -133 86q-51 51 -108 68q-44 12 -98 6q-18 -3 -44 -8q-34 -7 -41 -8q-43 -8 -66 3q-23 10 -149 74q-109 56 -160 75q-58 22 -157 -41q-85 42 -126 -10q-13 -16 -61 -7q-35 6 -96 -63q-158 52 -181 46 q-22 -5 -170 -82q-159 -83 -257 -114q-94 -30 -48 -47zM64 296l293 -197l445 -11l277 197l-11 881l-261 255l-467 -23l-265 -221zM146 -504h38l9 509l694 23l-8 -508l37 2l9 544h-2l3 333h-2l3 333l-1 -1l2 328l-744 -22l-3 -320h-11l-3 -338l-4 3l-3 -335l-4 -1zM198 41 l1 303l690 24l-3 -304zM204 381l2 303l684 23l-2 -303zM218 720l2 286l672 23l-3 -286zM327 1488h169v167h-169v-167zM429 1036l66 80l151 3l70 -78l17 -571l-93 -66l-113 -2l-93 66zM636 1488h169v167h-169v-167z" />
<glyph unicode="&#xf7;" horiz-adv-x="800" d="M47 535l701 -35l-8 271l-684 30zM231 1237l8 -344l331 -13l-8 357h-331zM234 425l7 -344l332 -13l-9 357h-330z" />
<glyph unicode="&#xf8;" d="M-448 -624q10 -4 32 -35h2031q3 12 -20 14q-63 5 -148 43q-87 40 -133 86q-51 51 -108 68q-44 12 -98 6q-18 -3 -44 -8q-34 -7 -41 -8q-43 -8 -66 3q-23 10 -149 74q-109 56 -160 75q-58 22 -157 -41q-85 42 -126 -10q-13 -16 -61 -7q-35 6 -96 -63q-158 52 -181 46 q-22 -5 -170 -82q-159 -83 -257 -114q-94 -30 -48 -47zM9 296l293 -197l445 -11l277 197l-11 881l-261 255l-467 -23l-265 -221zM91 -504h38l9 509l694 23l-8 -508l37 2l9 544h-2l3 333h-2l3 333l-1 -1l2 328l-744 -22l-3 -320h-11l-3 -338l-4 3l-3 -335l-4 -1zM143 41 l1 303l690 24l-3 -304zM149 381l2 303l684 23l-2 -303zM163 720l2 286l672 23l-3 -286zM172 -36l292 -86l395 1587l-278 99zM374 1036l66 80l151 3l70 -78l17 -571l-93 -66l-113 -2l-93 66z" />
<glyph unicode="&#xf9;" horiz-adv-x="1015" d="M-210 -573q2 -50 9 -86h1699q15 86 -30 92q-7 5 -20 13q-15 9 -19 13q-5 3 -22 14t-26 18q-31 23 -31 38q0 13 -40 28q-35 16 -37 18q4 5 2 13q-3 16 -15 20l-19 -10q-29 23 -29 50q0 7 5 18q2 5 -6 14t-22 15t-18 3q-8 -4 -38 -3q-10 2 -19 -2l-56 -41q-51 -27 -59 -57 q-2 -7 -22 -27h-1q-22 13 -52 -1q-25 -17 -47 -11q-39 10 -62 34q-25 27 -15 58q9 29 -11 43q-5 4 -52 25q-19 9 -45 38q-21 24 -39 24q-43 0 -113 -37q-52 -28 -105 -37q-15 -3 -40 -34t-51 -34q-15 -2 -53 -23q-32 -18 -80 -14q-25 2 -42 10q-20 9 -22 9q-21 3 -112 -50 q-60 -35 -117 -92q-15 -16 -31 -22q-20 -7 -62 -9q-44 -3 -35 -18zM51 1273l19 -994l278 -279h338l279 279l-20 1032l-285 -13l-13 -954l-65 -52l-149 -6l-59 64l-19 935zM138 1005l4 -345h-1l5 -365h-1l4 -365h-1l11 -490l36 2l-10 451l676 40l11 -454l36 2l-11 493h-4 l-5 365h-4l-5 365l-11 -1l-5 346zM173 969l656 39l4 -307l-656 -39zM178 623l666 40l4 -326l-666 -40zM181 258l671 40l5 -326l-672 -40zM276 1517l304 -184l125 170l-310 184z" />
<glyph unicode="&#xfa;" horiz-adv-x="1015" d="M-210 -573q2 -50 9 -86h1699q15 86 -30 92q-7 5 -20 13q-15 9 -19 13q-5 3 -22 14t-26 18q-31 23 -31 38q0 13 -40 28q-35 16 -37 18q4 5 2 13q-3 16 -15 20l-19 -10q-29 23 -29 50q0 7 5 18q2 5 -6 14t-22 15t-18 3q-8 -4 -38 -3q-10 2 -19 -2l-56 -41q-51 -27 -59 -57 q-2 -7 -22 -27h-1q-22 13 -52 -1q-25 -17 -47 -11q-39 10 -62 34q-25 27 -15 58q9 29 -11 43q-5 4 -52 25q-19 9 -45 38q-21 24 -39 24q-43 0 -113 -37q-52 -28 -105 -37q-15 -3 -40 -34t-51 -34q-15 -2 -53 -23q-32 -18 -80 -14q-25 2 -42 10q-20 9 -22 9q-21 3 -112 -50 q-60 -35 -117 -92q-15 -16 -31 -22q-20 -7 -62 -9q-44 -3 -35 -18zM51 1273l19 -994l278 -279h338l279 279l-20 1032l-285 -13l-13 -954l-65 -52l-149 -6l-59 64l-19 935zM138 1005l4 -345h-1l5 -365h-1l4 -365h-1l11 -490l36 2l-10 451l676 40l11 -454l36 2l-11 493h-4 l-5 365h-4l-5 365l-11 -1l-5 346zM173 969l656 39l4 -307l-656 -39zM178 623l666 40l4 -326l-666 -40zM181 258l671 40l5 -326l-672 -40zM336 1481l125 -170l304 184l-119 170z" />
<glyph unicode="&#xfb;" horiz-adv-x="1015" d="M-210 -573q2 -50 9 -86h1699q15 86 -30 92q-7 5 -20 13q-15 9 -19 13q-5 3 -22 14t-26 18q-31 23 -31 38q0 13 -40 28q-35 16 -37 18q4 5 2 13q-3 16 -15 20l-19 -10q-29 23 -29 50q0 7 5 18q2 5 -6 14t-22 15t-18 3q-8 -4 -38 -3q-10 2 -19 -2l-56 -41q-51 -27 -59 -57 q-2 -7 -22 -27h-1q-22 13 -52 -1q-25 -17 -47 -11q-39 10 -62 34q-25 27 -15 58q9 29 -11 43q-5 4 -52 25q-19 9 -45 38q-21 24 -39 24q-43 0 -113 -37q-52 -28 -105 -37q-15 -3 -40 -34t-51 -34q-15 -2 -53 -23q-32 -18 -80 -14q-25 2 -42 10q-20 9 -22 9q-21 3 -112 -50 q-60 -35 -117 -92q-15 -16 -31 -22q-20 -7 -62 -9q-44 -3 -35 -18zM51 1273l19 -994l278 -279h338l279 279l-20 1032l-285 -13l-13 -954l-65 -52l-149 -6l-59 64l-19 935zM138 1005l4 -345h-1l5 -365h-1l4 -365h-1l11 -490l36 2l-10 451l676 40l11 -454l36 2l-11 493h-4 l-5 365h-4l-5 365l-11 -1l-5 346zM173 969l656 39l4 -307l-656 -39zM178 623l666 40l4 -326l-666 -40zM181 258l671 40l5 -326l-672 -40zM209 1412l216 -8l69 112l64 -119l233 -8l-165 324l-241 9z" />
<glyph unicode="&#xfc;" horiz-adv-x="1015" d="M-210 -573q2 -50 9 -86h1699q15 86 -30 92q-7 5 -20 13q-15 9 -19 13q-5 3 -22 14t-26 18q-31 23 -31 38q0 13 -40 28q-35 16 -37 18q4 5 2 13q-3 16 -15 20l-19 -10q-29 23 -29 50q0 7 5 18q2 5 -6 14t-22 15t-18 3q-8 -4 -38 -3q-10 2 -19 -2l-56 -41q-51 -27 -59 -57 q-2 -7 -22 -27h-1q-22 13 -52 -1q-25 -17 -47 -11q-39 10 -62 34q-25 27 -15 58q9 29 -11 43q-5 4 -52 25q-19 9 -45 38q-21 24 -39 24q-43 0 -113 -37q-52 -28 -105 -37q-15 -3 -40 -34t-51 -34q-15 -2 -53 -23q-32 -18 -80 -14q-25 2 -42 10q-20 9 -22 9q-21 3 -112 -50 q-60 -35 -117 -92q-15 -16 -31 -22q-20 -7 -62 -9q-44 -3 -35 -18zM51 1273l19 -994l278 -279h338l279 279l-20 1032l-285 -13l-13 -954l-65 -52l-149 -6l-59 64l-19 935zM138 1005l4 -345h-1l5 -365h-1l4 -365h-1l11 -490l36 2l-10 451l676 40l11 -454l36 2l-11 493h-4 l-5 365h-4l-5 365l-11 -1l-5 346zM173 969l656 39l4 -307l-656 -39zM178 623l666 40l4 -326l-666 -40zM181 258l671 40l5 -326l-672 -40zM274 1389h169v167h-169v-167zM583 1389h169v167h-169v-167z" />
<glyph unicode="&#xfd;" horiz-adv-x="1121" d="M-468 -659h1694q-5 2 -10 3q-37 10 -53 23q-13 10 -24 33q-80 84 -127 141q-70 84 -89 84q-2 -1 -21 -9q-16 -8 -38 -6q-44 3 -68 31q-30 35 -43 40q-23 8 -39 52q-16 45 -29 51q-45 21 -86 66q-56 60 -93 67q-16 4 -39 -24q-27 -34 -46 -42q-46 -20 -51 -24 q-20 -16 -16 -55q3 -41 -24 -73q-24 -28 -61 -35q-20 -3 -40 22q-23 25 -45 11h-1q-14 30 -14 39q-2 40 -42 84l-42 63q-7 6 -17 6q-26 4 -32 10q-4 5 -17 0q-13 -6 -22 -16q-8 -11 -7 -18q2 -15 0 -24q-4 -35 -34 -61l-15 17q-11 -4 -17 -25q-2 -9 0 -17q-2 -2 -36 -18 q-38 -12 -40 -30q-3 -19 -34 -44q-10 -7 -27 -18q-16 -12 -21 -16q-5 -3 -19 -13q-13 -8 -21 -15q-53 1 -176 -198q-18 -34 -18 -62zM40 1417l339 -905l-14 -385l390 -21l2 418l301 870h-317l-174 -539l-170 550zM149 -396l36 -1l7 436l677 -15l-7 -439l36 -1l9 477h-5 l10 352h-4l9 352h-11l9 334l-726 17l-9 -334h-1l-10 -352h-1l-9 -352h-2zM195 77l8 315l672 -16l-9 -314zM205 429l9 314l666 -15l-8 -314zM215 781l8 297l656 -15l-8 -297zM392 1558l125 -170l304 184l-119 170z" />
<glyph unicode="&#xfe;" horiz-adv-x="917" />
<glyph unicode="&#xff;" horiz-adv-x="1121" d="M-468 -659h1694q-5 2 -10 3q-37 10 -53 23q-13 10 -24 33q-80 84 -127 141q-70 84 -89 84q-2 -1 -21 -9q-16 -8 -38 -6q-44 3 -68 31q-30 35 -43 40q-23 8 -39 52q-16 45 -29 51q-45 21 -86 66q-56 60 -93 67q-16 4 -39 -24q-27 -34 -46 -42q-46 -20 -51 -24 q-20 -16 -16 -55q3 -41 -24 -73q-24 -28 -61 -35q-20 -3 -40 22q-23 25 -45 11h-1q-14 30 -14 39q-2 40 -42 84l-42 63q-7 6 -17 6q-26 4 -32 10q-4 5 -17 0q-13 -6 -22 -16q-8 -11 -7 -18q2 -15 0 -24q-4 -35 -34 -61l-15 17q-11 -4 -17 -25q-2 -9 0 -17q-2 -2 -36 -18 q-38 -12 -40 -30q-3 -19 -34 -44q-10 -7 -27 -18q-16 -12 -21 -16q-5 -3 -19 -13q-13 -8 -21 -15q-53 1 -176 -198q-18 -34 -18 -62zM40 1417l339 -905l-14 -385l390 -21l2 418l301 870h-317l-174 -539l-170 550zM149 -396l36 -1l7 436l677 -15l-7 -439l36 -1l9 477h-5 l10 352h-4l9 352h-11l9 334l-726 17l-9 -334h-1l-10 -352h-1l-9 -352h-2zM195 77l8 315l672 -16l-9 -314zM205 429l9 314l666 -15l-8 -314zM215 781l8 297l656 -15l-8 -297zM334 1479h169v167h-169v-167zM643 1479h169v167h-169v-167z" />
<glyph unicode="&#x2c6;" horiz-adv-x="738" d="M82 1106l216 -8l69 112l64 -119l233 -8l-165 324l-241 9z" />
<glyph unicode="&#x2dc;" horiz-adv-x="811" d="M56 1271l60 -146l199 76l154 -103l255 55l-50 133l-182 -27l-154 103z" />
<glyph unicode="&#x2000;" horiz-adv-x="1024" />
<glyph unicode="&#x2001;" horiz-adv-x="2049" />
<glyph unicode="&#x2002;" horiz-adv-x="1024" />
<glyph unicode="&#x2003;" horiz-adv-x="2049" />
<glyph unicode="&#x2004;" horiz-adv-x="683" />
<glyph unicode="&#x2005;" horiz-adv-x="512" />
<glyph unicode="&#x2006;" horiz-adv-x="341" />
<glyph unicode="&#x2007;" horiz-adv-x="341" />
<glyph unicode="&#x2008;" horiz-adv-x="256" />
<glyph unicode="&#x2009;" horiz-adv-x="409" />
<glyph unicode="&#x200a;" horiz-adv-x="113" />
<glyph unicode="&#x2010;" horiz-adv-x="594" d="M28 679l496 -35l6 271l-484 30z" />
<glyph unicode="&#x2011;" horiz-adv-x="594" d="M28 679l496 -35l6 271l-484 30z" />
<glyph unicode="&#x2012;" horiz-adv-x="594" d="M28 679l496 -35l6 271l-484 30z" />
<glyph unicode="&#x2013;" horiz-adv-x="925" />
<glyph unicode="&#x2014;" horiz-adv-x="1766" />
<glyph unicode="&#x2018;" horiz-adv-x="330" />
<glyph unicode="&#x2019;" horiz-adv-x="330" />
<glyph unicode="&#x201a;" horiz-adv-x="330" />
<glyph unicode="&#x201c;" horiz-adv-x="612" />
<glyph unicode="&#x201d;" horiz-adv-x="612" />
<glyph unicode="&#x201e;" horiz-adv-x="612" />
<glyph unicode="&#x2022;" horiz-adv-x="602" />
<glyph unicode="&#x2026;" horiz-adv-x="1421" />
<glyph unicode="&#x202f;" horiz-adv-x="409" />
<glyph unicode="&#x2039;" horiz-adv-x="413" />
<glyph unicode="&#x203a;" horiz-adv-x="413" />
<glyph unicode="&#x205f;" horiz-adv-x="512" />
<glyph unicode="&#x20ac;" horiz-adv-x="1017" />
<glyph unicode="&#x2122;" horiz-adv-x="1198" />
<glyph unicode="&#x25fc;" horiz-adv-x="1310" d="M0 0v1310h1310v-1310h-1310z" />
</font>
</defs>
</svg>
